OFF 1446 2892 0
10.6768 -5.46771 -3.0926 
11.5768 -6.98284 -4.23201 
11.5732 -5.23122 -2.81202 
10.3923 -6 -3.55241 
10.1504 -6.38901 -3.89182 
10.7625 -5.30746 -2.95825 
10.8927 -5.02001 -2.71974 
11.3632 -3.85727 -1.73501 
11.5696 -3.4796 -1.40908 
11.4661 -3.518 -1.45156 
11.0866 -4.5922 -2.35508 
11.4831 -3.46193 -1.4057 
11.569 -3.17863 -1.17343 
11.5553 3.52689 3.82293 
11.4814 3.46759 3.77465 
11.5559 3.22178 3.60614 
11.4692 3.50763 3.8056 
11.3632 3.85727 4.04288 
11.5517 5.27852 5.03599 
11.0866 4.5922 4.53912 
11.0023 4.77821 4.66407 
10.8769 5.05481 4.88449 
10.4436 5.90412 5.4652 
11.5481 7.03014 6.23201 
10.7625 5.30746 5.05722 
10.3923 6 5.54535 
10.1373 6.41001 5.89176 
14.1741 -5.94897 -3.10626 
14.1907 -7.97048 -4.76791 
14.1576 -3.92746 -1.47806 
14.1411 -1.90595 0.0883532 
11.7694 -2.34108 -0.496848 
11.8672 -1.74879 -0.0229062 
11.5911 -3.10583 -1.11414 
11.9055 -1.48338 0.176188 
14.1245 0.115558 1.57403 
11.8973 -1.56631 0.114356 
11.9987 0.0392976 1.34055 
12 0 1.3108 
11.9743 -0.784837 0.7125 
11.9877 0.376666 1.5732 
14.108 2.13707 2.97231 
11.9743 0.784837 1.87218 
11.8973 1.56631 2.442 
11.8559 1.81742 2.62426 
11.822 2.02284 2.75614 
14.0914 4.15858 4.28985 
11.7694 2.34108 2.98189 
11.5911 3.10583 3.524 
14.0749 6.18008 5.5456 
14.0584 8.20159 6.76791 
16.8103 -6.51757 -3.32867 
16.8522 -8.79248 -5.19678 
16.7684 -4.24266 -1.50912 
16.7266 -1.96775 0.220725 
16.6847 0.307162 1.83335 
16.6428 2.58207 3.31911 
16.6009 4.85699 4.68766 
16.559 7.1319 5.9665 
16.5171 9.40681 7.19678 
19.4852 -6.86908 -3.46657 
19.567 -9.36872 -5.49662 
19.4034 -4.36944 -1.49831 
19.3215 -1.8698 0.355767 
19.2397 0.629842 2.06066 
19.1579 3.12948 3.60408 
19.076 5.62912 4.99831 
18.9942 8.12876 6.27836 
18.9124 10.6284 7.49662 
22.1961 -6.9374 -3.51212 
22.3334 -9.62149 -5.65254 
22.0587 -4.25332 -1.44436 
21.9214 -1.56924 0.489131 
21.784 1.11485 2.2472 
21.6466 3.79893 3.8154 
21.5093 6.48301 5.20818 
21.3719 9.1671 6.46669 
21.2345 11.8512 7.65254 
24.9325 -6.66013 -3.46255 
25.1404 -9.47788 -5.65718 
24.7247 -3.84237 -1.34867 
24.5168 -1.02462 0.616035 
24.309 1.79314 2.38582 
24.1011 4.61089 3.94462 
23.8933 7.42865 5.30851 
23.6854 10.2464 6.52321 
23.4776 13.0642 7.65718 
27.6747 -5.98036 -3.32003 
27.9655 -8.8722 -5.5107 
27.3839 -3.08852 -1.21507 
27.0931 -0.196678 0.731515 
26.8023 2.69516 2.47118 
26.5115 5.587 3.98687 
26.2207 8.47884 5.29563 
25.9299 11.3707 6.44602 
25.6392 14.2625 7.5107 
30.3929 -4.8487 -3.09135 
30.7747 -7.74845 -5.2205 
30.0111 -1.94896 -1.04959 
29.6294 0.95078 0.830694 
29.2476 3.85052 2.5 
28.8659 6.75026 3.94094 
28.4841 9.65001 5.17091 
28.1023 12.5497 6.2394 
27.7206 15.4495 7.2205 
33.0469 -3.22526 -2.78736 
33.5213 -6.06285 -4.80048 
32.5724 -0.387662 -0.859961 
32.098 2.44993 0.90907 
31.6235 5.28753 2.47118 
31.149 8.12512 3.80931 
30.6746 10.9627 4.94052 
30.2001 13.8003 5.91336 
29.7257 16.6379 6.80048 
35.5864 -1.08148 -2.42228 
36.1474 -3.78618 -4.27014 
35.0254 1.62321 -0.655149 
34.4643 4.32791 0.962794 
33.9033 7.03261 2.38582 
33.3423 9.7373 3.59787 
32.7812 12.442 4.61499 
32.2202 15.1467 5.48294 
31.6591 17.8514 6.27014 
37.9523 1.59809 -2.01273 
38.585 -0.905735 -3.65335 
37.3197 4.10193 -0.444768 
36.6871 6.60576 0.988929 
36.0545 9.10959 2.2472 
35.4219 11.6134 3.3156 
34.7892 14.1172 4.20858 
34.1566 16.6211 4.9673 
33.524 19.1249 5.65335 
40.0782 4.81451 -1.57684 
40.7581 2.57307 -2.97698 
39.3982 7.05594 -0.238489 
38.7183 9.29738 0.985677 
38.0384 11.5388 2.06066 
37.3584 13.7803 2.97417 
36.6785 16.0217 3.73849 
35.9986 18.2631 4.38863 
35.3186 20.5046 4.97698 
41.8923 8.55345 -1.13317 
42.5864 6.6259 -2.26944 
41.1981 10.481 -0.0454473 
40.504 12.4086 0.95256 
39.8098 14.3361 1.83335 
39.1157 16.2637 2.58728 
38.4216 18.1912 3.22399 
37.7274 20.1188 3.77099 
37.0333 22.0463 4.26944 
43.3205 12.7849 -0.699718 
43.9883 11.2094 -1.55918 
42.6527 14.3604 0.126305 
41.985 15.936 0.890533 
41.3172 17.5115 1.57403 
40.6494 19.0871 2.17013 
39.9817 20.6626 2.68549 
39.3139 22.2382 3.13906 
38.6462 23.8137 3.55918 
44.2892 17.4634 -0.292972 
44.8848 16.2619 -0.873278 
43.6936 18.665 0.270285 
43.098 19.8665 0.80204 
42.5024 21.068 1.29263 
41.9068 22.2696 1.73868 
41.3112 23.4711 2.14356 
40.7156 24.6727 2.51694 
40.12 25.8742 2.87328 
45.2034 21.7054 -0.236068 
44.7279 22.5291 0.0729485 
44.2523 23.3527 0.381966 
43.7768 24.1764 0.690983 
43.3013 25 1 
42.8257 25.8236 1.30902 
42.3502 26.6473 1.61803 
41.8747 27.4709 1.92705 
41.3992 28.2946 2.23607 
11.5732 -5.23122 -4.81202 
10.7625 -5.30746 -4.95825 
10.8927 -5.02001 -4.71974 
10.6768 -5.46771 -5.0926 
11.5768 -6.98284 -6.23201 
10.3923 -6 -5.55241 
10.1504 -6.38901 -5.89182 
11.5696 -3.4796 -3.40908 
11.4661 -3.518 -3.45156 
11.4831 -3.46193 -3.4057 
11.3632 -3.85727 -3.73501 
11.0866 -4.5922 -4.35508 
11.569 -3.17863 -3.17344 
11.4814 3.46759 1.77465 
11.4692 3.50763 1.8056 
11.5553 3.52689 1.82293 
11.5559 3.22178 1.60614 
11.0023 4.77821 2.66407 
10.8769 5.05481 2.88449 
11.5517 5.27852 3.03599 
11.3632 3.85727 2.04288 
11.0866 4.5922 2.53912 
10.3923 6 3.54535 
11.5481 7.03014 4.23201 
10.4436 5.90412 3.4652 
10.1373 6.41001 3.89176 
10.7625 5.30746 3.05722 
14.1741 -5.94897 -5.10626 
14.1907 -7.97048 -6.76791 
14.1576 -3.92746 -3.47806 
14.1411 -1.90595 -1.91165 
11.7694 -2.34108 -2.49685 
11.8672 -1.74879 -2.02291 
11.5911 -3.10583 -3.11414 
14.1245 0.115558 -0.425975 
11.9743 -0.784837 -1.2875 
12 0 -0.689197 
11.9055 -1.48338 -1.82381 
11.9987 0.0392976 -0.659452 
11.8973 -1.56631 -1.88564 
11.9743 0.784837 -0.127824 
14.108 2.13707 0.972306 
11.9877 0.376666 -0.426798 
11.8973 1.56631 0.442 
11.8559 1.81742 0.624258 
11.7694 2.34108 0.981893 
14.0914 4.15858 2.28985 
11.822 2.02284 0.756143 
11.5911 3.10583 1.524 
14.0749 6.18008 3.5456 
14.0584 8.20159 4.76791 
16.8103 -6.51757 -5.32867 
16.8522 -8.79248 -7.19678 
16.7684 -4.24266 -3.50912 
16.7266 -1.96775 -1.77927 
16.6847 0.307162 -0.166644 
16.6428 2.58207 1.31911 
16.6009 4.85699 2.68766 
16.559 7.1319 3.96649 
16.5171 9.40681 5.19678 
19.4852 -6.86908 -5.46657 
19.567 -9.36872 -7.49662 
19.4034 -4.36944 -3.49831 
19.3215 -1.8698 -1.64423 
19.2397 0.629842 0.0606594 
19.1579 3.12948 1.60408 
19.076 5.62912 2.99831 
18.9942 8.12876 4.27836 
18.9124 10.6284 5.49662 
22.1961 -6.9374 -5.51212 
22.3334 -9.62149 -7.65254 
22.0587 -4.25332 -3.44436 
21.9214 -1.56924 -1.51087 
21.784 1.11485 0.247204 
21.6466 3.79893 1.8154 
21.5093 6.48301 3.20818 
21.3719 9.1671 4.46669 
21.2345 11.8512 5.65254 
24.9325 -6.66013 -5.46255 
25.1404 -9.47788 -7.65718 
24.7247 -3.84237 -3.34867 
24.5168 -1.02462 -1.38396 
24.309 1.79314 0.385818 
24.1011 4.61089 1.94462 
23.8933 7.42865 3.30851 
23.6854 10.2464 4.52321 
23.4776 13.0642 5.65718 
27.6747 -5.98036 -5.32003 
27.9655 -8.8722 -7.5107 
27.3839 -3.08852 -3.21507 
27.0931 -0.196678 -1.26848 
26.8023 2.69516 0.471177 
26.5115 5.587 1.98687 
26.2207 8.47884 3.29563 
25.9299 11.3707 4.44602 
25.6392 14.2625 5.5107 
30.3929 -4.8487 -5.09135 
30.7747 -7.74845 -7.2205 
30.0111 -1.94896 -3.04959 
29.6294 0.95078 -1.1693 
29.2476 3.85052 0.5 
28.8659 6.75026 1.94094 
28.4841 9.65001 3.17091 
28.1023 12.5497 4.2394 
27.7206 15.4495 5.2205 
33.0469 -3.22526 -4.78736 
33.5213 -6.06285 -6.80048 
32.5724 -0.387662 -2.85996 
32.098 2.44993 -1.09093 
31.6235 5.28753 0.471177 
31.149 8.12512 1.80931 
30.6746 10.9627 2.94052 
30.2001 13.8003 3.91336 
29.7257 16.6379 4.80048 
35.5864 -1.08148 -4.42228 
36.1474 -3.78618 -6.27014 
35.0254 1.62321 -2.65515 
34.4643 4.32791 -1.03721 
33.9033 7.03261 0.385818 
33.3423 9.7373 1.59787 
32.7812 12.442 2.61499 
32.2202 15.1467 3.48294 
31.6591 17.8514 4.27014 
37.9523 1.59809 -4.01273 
38.585 -0.905735 -5.65335 
37.3197 4.10193 -2.44477 
36.6871 6.60576 -1.01107 
36.0545 9.10959 0.247204 
35.4219 11.6134 1.3156 
34.7892 14.1172 2.20858 
34.1566 16.6211 2.9673 
33.524 19.1249 3.65335 
40.0782 4.81451 -3.57684 
40.7581 2.57307 -4.97698 
39.3982 7.05594 -2.23849 
38.7183 9.29738 -1.01432 
38.0384 11.5388 0.0606594 
37.3584 13.7803 0.974167 
36.6785 16.0217 1.73849 
35.9986 18.2631 2.38863 
35.3186 20.5046 2.97698 
41.8923 8.55345 -3.13317 
42.5864 6.6259 -4.26944 
41.1981 10.481 -2.04545 
40.504 12.4086 -1.04744 
39.8098 14.3361 -0.166644 
39.1157 16.2637 0.587279 
38.4216 18.1912 1.22399 
37.7274 20.1188 1.77099 
37.0333 22.0463 2.26944 
43.3205 12.7849 -2.69972 
43.9883 11.2094 -3.55918 
42.6527 14.3604 -1.87369 
41.985 15.936 -1.10947 
41.3172 17.5115 -0.425975 
40.6494 19.0871 0.170126 
39.9817 20.6626 0.685489 
39.3139 22.2382 1.13906 
38.6462 23.8137 1.55918 
44.2892 17.4634 -2.29297 
44.8848 16.2619 -2.87328 
43.6936 18.665 -1.72971 
43.098 19.8665 -1.19796 
42.5024 21.068 -0.707364 
41.9068 22.2696 -0.26132 
41.3112 23.4711 0.143563 
40.7156 24.6727 0.516945 
40.12 25.8742 0.873278 
44.7279 22.5291 -1.92705 
45.2034 21.7054 -2.23607 
44.2523 23.3527 -1.61803 
43.7768 24.1764 -1.30902 
43.3013 25 -1 
42.8257 25.8236 -0.690983 
42.3502 26.6473 -0.381966 
41.8747 27.4709 -0.0729485 
41.3992 28.2946 0.236068 
0.258916 13.5172 -4.23201 
0 12 -3.55241 
0.457843 11.985 -3.89182 
-0.603239 11.9803 -3.0926 
-1.25624 12.6383 -2.81202 
-0.784837 11.9743 -2.95825 
-1.0989 11.9434 -2.71974 
-1.56631 11.8973 -2.35508 
-2.34108 11.7694 -1.73501 
-2.7714 11.7594 -1.40908 
-2.68636 11.6889 -1.45156 
-2.74343 11.6756 -1.4057 
-3.03174 11.6084 -1.17343 
-8.56812 8.39684 3.60614 
-8.83204 8.24374 3.82293 
-8.74371 8.20936 3.77465 
-8.77231 8.17883 3.8056 
-9.02208 7.91215 4.04288 
-10.3472 7.36483 5.03599 
-9.52024 7.30514 4.53913 
-9.63919 7.13914 4.66407 
-9.81607 6.89231 4.88449 
-9.97763 6.66684 5.05722 
-10.3349 6.09232 5.4652 
-11.8624 6.48592 6.23201 
-10.3923 6 5.54535 
-10.6199 5.57419 5.89176 
-0.192706 16.2747 -4.76791 
-1.93511 15.2497 -3.10626 
-3.67752 14.2246 -1.47806 
-5.41993 13.1995 0.0883532 
-3.10583 11.5911 -1.11414 
-3.85727 11.3632 -0.496848 
-4.41911 11.1517 -0.0229061 
-4.5922 11.0866 0.114355 
-4.66811 11.0522 0.176188 
-7.16234 12.1744 1.57403 
-6 10.3923 1.3108 
-6.03339 10.3715 1.34055 
-5.30746 10.7625 0.712499 
-6.32004 10.1933 1.5732 
-8.90475 11.1493 2.97231 
-7.30514 9.52024 2.442 
-7.50187 9.35878 2.62426 
-6.66684 9.97763 1.87218 
-7.66281 9.2267 2.75614 
-10.6472 10.1243 4.28985 
-8.48528 8.48528 3.524 
-7.91215 9.02208 2.98189 
-12.3896 9.09919 5.5456 
-14.132 8.07411 6.76791 
-0.811583 18.9907 -5.19678 
-2.76077 17.8169 -3.32867 
-4.70996 16.6432 -1.50912 
-6.65915 15.4695 0.220725 
-8.60835 14.2958 1.83335 
-10.5575 13.122 3.31911 
-12.5067 11.9483 4.68766 
-14.4559 10.7746 5.9665 
-16.4051 9.60087 7.19678 
-1.66996 21.6299 -5.49662 
-3.7938 20.3092 -3.46657 
-5.91763 18.9885 -1.49831 
-8.04147 17.6678 0.355767 
-10.1653 16.3471 2.06066 
-12.2891 15.0265 3.60408 
-14.413 13.7058 4.99831 
-16.5368 12.3851 6.27836 
-18.6607 11.0644 7.49662 
-2.83427 24.1521 -5.65254 
-5.09007 22.6911 -3.51212 
-7.34588 21.2301 -1.44436 
-9.60168 19.7691 0.489131 
-11.8575 18.3081 2.2472 
-14.1133 16.8471 3.8154 
-16.3691 15.3861 5.20818 
-18.6249 13.9251 6.46669 
-20.8807 12.4641 7.65254 
-4.36209 26.5111 -5.65718 
-6.69841 24.9222 -3.46255 
-9.03473 23.3334 -1.34867 
-11.3711 21.7445 0.616035 
-13.7074 20.1556 2.38582 
-16.0437 18.5667 3.94462 
-18.38 16.9778 5.30851 
-20.7163 15.389 6.52321 
-23.0527 13.8001 7.65718 
-6.29921 28.6549 -5.5107 
-8.65822 26.9572 -3.32003 
-11.0172 25.2594 -1.21507 
-13.3762 23.5617 0.731515 
-15.7352 21.8639 2.47118 
-18.0943 20.1662 3.98687 
-20.4533 18.4684 5.29563 
-22.8123 16.7707 6.44602 
-25.1713 15.0729 7.5107 
-8.67698 30.5259 -5.2205 
-10.9973 28.7454 -3.09135 
-13.3177 26.9649 -1.04959 
-15.6381 25.1844 0.830694 
-17.9585 23.4039 2.5 
-20.2788 21.6234 3.94094 
-22.5992 19.843 5.17091 
-24.9196 18.0625 6.2394 
-27.2399 16.282 7.2205 
-11.5101 32.0617 -4.80048 
-13.7303 30.232 -2.78736 
-15.9505 28.4024 -0.859961 
-18.1707 26.5727 0.90907 
-20.3909 24.743 2.47118 
-22.6111 22.9133 3.80931 
-24.8313 21.0836 4.94052 
-27.0515 19.2539 5.91336 
-29.2717 17.4243 6.80048 
-14.7948 33.1977 -4.27014 
-16.8566 31.3595 -2.42228 
-18.9184 29.5213 -0.655149 
-20.9802 27.683 0.962794 
-23.0421 25.8448 2.38582 
-25.1039 24.0066 3.59787 
-27.1657 22.1684 4.61499 
-29.2275 20.3301 5.48294 
-31.2893 18.4919 6.27014 
-18.5081 33.8684 -3.65335 
-20.3602 32.0686 -2.01273 
-22.2122 30.2689 -0.444768 
-24.0643 28.4691 0.988929 
-25.9164 26.6693 2.2472 
-27.7684 24.8695 3.3156 
-29.6205 23.0697 4.20858 
-31.4726 21.27 4.9673 
-33.3247 19.4702 5.65335 
-22.6074 34.011 -2.97698 
-24.2086 32.3015 -1.57684 
-25.8097 30.5919 -0.238489 
-27.4109 28.8824 0.985677 
-29.0121 27.1728 2.06066 
-30.6133 25.4632 2.97417 
-32.2144 23.7537 3.73849 
-33.8156 22.0441 4.38863 
-35.4168 20.3346 4.97698 
-27.0314 33.568 -2.26944 
-28.3536 32.003 -1.13317 
-29.6759 30.4381 -0.0454473 
-30.9981 28.8732 0.95256 
-32.3204 27.3083 1.83335 
-33.6426 25.7434 2.58728 
-34.9648 24.1784 3.22399 
-36.2871 22.6135 3.77099 
-37.6093 21.0486 4.26944 
-31.7017 32.4903 -1.55918 
-32.7323 31.1242 -0.699718 
-33.7629 29.7581 0.126305 
-34.7935 28.3921 0.890533 
-35.824 27.026 1.57403 
-36.8546 25.6599 2.17013 
-37.8852 24.2938 2.68549 
-38.9158 22.9278 3.13906 
-39.9463 21.5617 3.55918 
-36.5256 30.7404 -0.873278 
-37.2683 29.6239 -0.292972 
-38.0111 28.5073 0.270285 
-38.7539 27.3907 0.80204 
-39.4967 26.2741 1.29263 
-40.2394 25.1576 1.73868 
-40.9822 24.041 2.14356 
-41.725 22.9244 2.51694 
-42.4677 21.8078 2.87328 
-41.3992 28.2946 -0.236068 
-41.8747 27.4709 0.0729485 
-42.3502 26.6473 0.381966 
-42.8257 25.8236 0.690983 
-43.3013 25 1 
-43.7768 24.1764 1.30902 
-44.2523 23.3527 1.61803 
-44.7279 22.5291 1.92705 
-45.2034 21.7054 2.23607 
-0.784837 11.9743 -4.95825 
-1.25624 12.6383 -4.81202 
-0.603239 11.9803 -5.0926 
-1.0989 11.9434 -4.71974 
0 12 -5.55241 
0.258916 13.5172 -6.23201 
0.457843 11.985 -5.89182 
-2.74343 11.6756 -3.4057 
-2.7714 11.7594 -3.40908 
-2.68636 11.6889 -3.45156 
-1.56631 11.8973 -4.35508 
-2.34108 11.7694 -3.73501 
-3.03174 11.6084 -3.17344 
-8.77231 8.17883 1.8056 
-8.83204 8.24374 1.82293 
-8.74371 8.20936 1.77465 
-8.56812 8.39684 1.60614 
-9.81607 6.89231 2.88449 
-10.3472 7.36483 3.03599 
-9.63919 7.13914 2.66407 
-9.02208 7.91215 2.04288 
-9.52024 7.30514 2.53913 
-10.3923 6 3.54535 
-11.8624 6.48592 4.23201 
-10.3349 6.09232 3.4652 
-10.6199 5.57419 3.89176 
-9.97763 6.66684 3.05722 
-1.93511 15.2497 -5.10626 
-0.192706 16.2747 -6.76791 
-3.67752 14.2246 -3.47806 
-3.10583 11.5911 -3.11414 
-5.41993 13.1995 -1.91165 
-3.85727 11.3632 -2.49685 
-4.41911 11.1517 -2.02291 
-5.30746 10.7625 -1.2875 
-7.16234 12.1744 -0.425975 
-4.66811 11.0522 -1.82381 
-6 10.3923 -0.689197 
-6.03339 10.3715 -0.659452 
-4.5922 11.0866 -1.88564 
-6.66684 9.97763 -0.127823 
-8.90475 11.1493 0.972306 
-6.32004 10.1933 -0.426798 
-7.30514 9.52024 0.442001 
-7.50187 9.35878 0.624258 
-8.48528 8.48528 1.524 
-10.6472 10.1243 2.28985 
-7.91215 9.02208 0.981893 
-7.66281 9.2267 0.756144 
-12.3896 9.09919 3.5456 
-14.132 8.07411 4.76791 
-2.76077 17.8169 -5.32867 
-0.811583 18.9907 -7.19678 
-4.70996 16.6432 -3.50912 
-6.65915 15.4695 -1.77927 
-8.60835 14.2958 -0.166644 
-10.5575 13.122 1.31911 
-12.5067 11.9483 2.68766 
-14.4559 10.7746 3.96649 
-16.4051 9.60087 5.19678 
-3.7938 20.3092 -5.46657 
-1.66996 21.6299 -7.49662 
-5.91763 18.9885 -3.49831 
-8.04147 17.6678 -1.64423 
-10.1653 16.3471 0.0606594 
-12.2891 15.0265 1.60408 
-14.413 13.7058 2.99831 
-16.5368 12.3851 4.27836 
-18.6607 11.0644 5.49662 
-5.09007 22.6911 -5.51212 
-2.83427 24.1521 -7.65254 
-7.34588 21.2301 -3.44436 
-9.60168 19.7691 -1.51087 
-11.8575 18.3081 0.247204 
-14.1133 16.8471 1.8154 
-16.3691 15.3861 3.20818 
-18.6249 13.9251 4.46669 
-20.8807 12.4641 5.65254 
-6.69841 24.9222 -5.46255 
-4.36209 26.5111 -7.65718 
-9.03473 23.3334 -3.34867 
-11.3711 21.7445 -1.38396 
-13.7074 20.1556 0.385818 
-16.0437 18.5667 1.94462 
-18.38 16.9778 3.30851 
-20.7163 15.389 4.52321 
-23.0527 13.8001 5.65718 
-8.65822 26.9572 -5.32003 
-6.29921 28.6549 -7.5107 
-11.0172 25.2594 -3.21507 
-13.3762 23.5617 -1.26848 
-15.7352 21.8639 0.471177 
-18.0943 20.1662 1.98687 
-20.4533 18.4684 3.29563 
-22.8123 16.7707 4.44602 
-25.1713 15.0729 5.5107 
-10.9973 28.7454 -5.09135 
-8.67698 30.5259 -7.2205 
-13.3177 26.9649 -3.04959 
-15.6381 25.1844 -1.1693 
-17.9585 23.4039 0.5 
-20.2788 21.6234 1.94094 
-22.5992 19.843 3.17091 
-24.9196 18.0625 4.2394 
-27.2399 16.282 5.2205 
-13.7303 30.232 -4.78736 
-11.5101 32.0617 -6.80048 
-15.9505 28.4024 -2.85996 
-18.1707 26.5727 -1.09093 
-20.3909 24.743 0.471177 
-22.6111 22.9133 1.80931 
-24.8313 21.0836 2.94052 
-27.0515 19.2539 3.91336 
-29.2717 17.4243 4.80048 
-16.8566 31.3595 -4.42228 
-14.7948 33.1977 -6.27014 
-18.9184 29.5213 -2.65515 
-20.9802 27.683 -1.03721 
-23.0421 25.8448 0.385818 
-25.1039 24.0066 1.59787 
-27.1657 22.1684 2.61499 
-29.2275 20.3301 3.48294 
-31.2893 18.4919 4.27014 
-20.3602 32.0686 -4.01273 
-18.5081 33.8684 -5.65335 
-22.2122 30.2689 -2.44477 
-24.0643 28.4691 -1.01107 
-25.9164 26.6693 0.247204 
-27.7684 24.8695 1.3156 
-29.6205 23.0697 2.20858 
-31.4726 21.27 2.9673 
-33.3247 19.4702 3.65335 
-24.2086 32.3015 -3.57684 
-22.6074 34.011 -4.97698 
-25.8097 30.5919 -2.23849 
-27.4109 28.8824 -1.01432 
-29.0121 27.1728 0.0606594 
-30.6133 25.4632 0.974167 
-32.2144 23.7537 1.73849 
-33.8156 22.0441 2.38863 
-35.4168 20.3346 2.97698 
-28.3536 32.003 -3.13317 
-27.0314 33.568 -4.26944 
-29.6759 30.4381 -2.04545 
-30.9981 28.8732 -1.04744 
-32.3204 27.3083 -0.166644 
-33.6426 25.7434 0.587279 
-34.9648 24.1784 1.22399 
-36.2871 22.6135 1.77099 
-37.6093 21.0486 2.26944 
-32.7323 31.1242 -2.69972 
-31.7017 32.4903 -3.55918 
-33.7629 29.7581 -1.87369 
-34.7935 28.3921 -1.10947 
-35.824 27.026 -0.425975 
-36.8546 25.6599 0.170126 
-37.8852 24.2938 0.685489 
-38.9158 22.9278 1.13906 
-39.9463 21.5617 1.55918 
-37.2683 29.6239 -2.29297 
-36.5256 30.7404 -2.87328 
-38.0111 28.5073 -1.72971 
-38.7539 27.3907 -1.19796 
-39.4967 26.2741 -0.707364 
-40.2394 25.1576 -0.26132 
-40.9822 24.041 0.143563 
-41.725 22.9244 0.516945 
-42.4677 21.8078 0.873278 
-41.8747 27.4709 -1.92705 
-41.3992 28.2946 -2.23607 
-42.3502 26.6473 -1.61803 
-42.8257 25.8236 -1.30902 
-43.3013 25 -1 
-43.7768 24.1764 -0.690983 
-44.2523 23.3527 -0.381966 
-44.7279 22.5291 -0.0729485 
-45.2034 21.7054 0.236068 
-11.8357 -6.53439 -4.23201 
-10.0736 -6.51255 -3.0926 
-10.3923 -6 -3.55241 
-10.6082 -5.596 -3.89182 
-10.317 -7.4071 -2.81202 
-9.97763 -6.66684 -2.95825 
-9.79381 -6.92337 -2.71974 
-9.02208 -7.91215 -1.73501 
-8.79824 -8.2798 -1.40908 
-8.77972 -8.17091 -1.45156 
-9.52024 -7.30514 -2.35508 
-8.73966 -8.21368 -1.4057 
-8.53729 -8.42975 -1.17344 
-2.73766 -11.677 3.77465 
-2.98782 -11.6186 3.60614 
-2.72327 -11.7706 3.82293 
-2.69692 -11.6865 3.8056 
-1.56631 -11.8973 4.53912 
-1.20453 -12.6433 5.03599 
-1.36308 -11.9174 4.66407 
-2.34108 -11.7694 4.04288 
-1.06088 -11.9471 4.88449 
-0.108659 -11.9964 5.4652 
-0.784837 -11.9743 5.05722 
0.314207 -13.5161 6.23201 
0 -12 5.54535 
0.482559 -11.9842 5.89176 
-13.998 -8.30425 -4.76791 
-12.239 -9.30068 -3.10626 
-10.4801 -10.2971 -1.47806 
-8.72113 -11.2935 0.0883532 
-7.91215 -9.02208 -0.496847 
-7.4481 -9.40291 -0.0229061 
-8.48528 -8.48528 -1.11414 
-7.2374 -9.56878 0.176189 
-7.30514 -9.52024 0.114355 
-6.96219 -12.29 1.57403 
-6 -10.3923 1.3108 
-5.96532 -10.4108 1.34055 
-6.66684 -9.97763 0.712499 
-5.66763 -10.57 1.5732 
-5.20324 -13.2864 2.97231 
-4.5922 -11.0866 2.442 
-4.354 -11.1762 2.62426 
-5.30746 -10.7625 1.87218 
-4.15915 -11.2495 2.75614 
-3.44429 -14.2828 4.28985 
-3.10583 -11.5911 3.524 
-3.85727 -11.3632 2.98189 
-1.68534 -15.2793 5.5456 
0.0736008 -16.2757 6.76791 
-16.0406 -10.1982 -5.19678 
-14.0495 -11.2994 -3.32867 
-12.0585 -12.4006 -1.50912 
-10.0674 -13.5017 0.220725 
-8.07633 -14.6029 1.83335 
-6.08525 -15.7041 3.31911 
-4.09418 -16.8053 4.68766 
-2.10311 -17.9065 5.9665 
-0.112039 -19.0077 7.19678 
-17.8971 -12.2612 -5.49662 
-15.6914 -13.4401 -3.46657 
-13.4857 -14.6191 -1.49831 
-11.2801 -15.798 0.355767 
-9.07439 -16.977 2.06066 
-6.86872 -18.1559 3.60408 
-4.66305 -19.3349 4.99831 
-2.45739 -20.5138 6.27836 
-0.251721 -21.6928 7.49662 
-19.4992 -14.5306 -5.65254 
-17.106 -15.7537 -3.51212 
-14.7128 -16.9767 -1.44436 
-12.3197 -18.1998 0.489131 
-9.92651 -19.4229 2.2472 
-7.53334 -20.646 3.8154 
-5.14018 -21.8691 5.20818 
-2.74701 -23.0922 6.46669 
-0.353845 -24.3152 7.65254 
-20.7783 -17.0332 -5.65718 
-18.2341 -18.2621 -3.46255 
-15.6899 -19.491 -1.34867 
-13.1457 -20.7199 0.616035 
-10.6016 -21.9487 2.38582 
-8.0574 -23.1776 3.94462 
-5.51323 -24.4065 5.30851 
-2.96906 -25.6354 6.52321 
-0.424886 -26.8642 7.65718 
-21.6663 -19.7827 -5.5107 
-19.0165 -20.9768 -3.32003 
-16.3667 -22.1709 -1.21507 
-13.7169 -23.365 0.731515 
-11.0671 -24.5591 2.47118 
-8.41728 -25.7532 3.98687 
-5.76748 -26.9473 5.29563 
-3.11768 -28.1413 6.44602 
-0.467872 -29.3354 7.5107 
-22.0977 -22.7774 -5.2205 
-19.3955 -23.8967 -3.09135 
-16.6934 -25.0159 -1.04959 
-13.9913 -26.1352 0.830694 
-11.2892 -27.2544 2.5 
-8.58703 -28.3737 3.94094 
-5.8849 -29.493 5.17091 
-3.18277 -30.6122 6.2394 
-0.480642 -31.7315 7.2205 
-19.3166 -27.0068 -2.78736 
-22.0112 -25.9989 -4.80048 
-16.6219 -28.0147 -0.859961 
-13.9273 -29.0226 0.90907 
-11.2326 -30.0305 2.47118 
-8.53796 -31.0384 3.80931 
-5.84331 -32.0463 4.94052 
-3.14865 -33.0542 5.91336 
-0.453998 -34.0622 6.80048 
-18.7298 -30.278 -2.42228 
-21.3526 -29.4115 -4.27014 
-16.1069 -31.1445 -0.655149 
-13.4841 -32.0109 0.962794 
-10.8612 -32.8774 2.38582 
-8.23837 -33.7439 3.59787 
-5.61552 -34.6104 4.61499 
-2.99267 -35.4768 5.48294 
-0.369813 -36.3433 6.27014 
-17.5922 -33.6667 -2.01273 
-20.0769 -32.9627 -3.65335 
-15.1075 -34.3708 -0.444768 
-12.6228 -35.0748 0.988929 
-10.1381 -35.7789 2.2472 
-7.65341 -36.4829 3.3156 
-5.16872 -37.187 4.20858 
-2.68403 -37.891 4.9673 
-0.199337 -38.5951 5.65335 
-15.8696 -37.116 -1.57684 
-18.1507 -36.5841 -2.97698 
-13.5885 -37.6479 -0.238489 
-11.3074 -38.1797 0.985677 
-9.02628 -38.7116 2.06066 
-6.74518 -39.2435 2.97417 
-4.46407 -39.7754 3.73849 
-2.18296 -40.3072 4.38863 
0.0981436 -40.8391 4.97698 
-13.5386 -40.5565 -1.13317 
-15.555 -40.1939 -2.26944 
-11.5222 -40.9191 -0.0454473 
-9.50587 -41.2818 0.95256 
-7.48949 -41.6444 1.83335 
-5.47311 -42.007 2.58728 
-3.45673 -42.3697 3.22399 
-1.44035 -42.7323 3.77099 
0.576022 -43.0949 4.26944 
-10.5882 -43.9091 -0.699718 
-12.2866 -43.6996 -1.55918 
-8.88986 -44.1186 0.126305 
-7.19152 -44.328 0.890533 
-5.49318 -44.5375 1.57403 
-3.79484 -44.747 2.17013 
-2.09649 -44.9565 2.68549 
-0.398149 -45.1659 3.13906 
1.30019 -45.3754 3.55918 
-7.02084 -47.0873 -0.292972 
-8.3592 -47.0023 -0.873278 
-5.68247 -47.1722 0.270285 
-4.3441 -47.2572 0.80204 
-3.00574 -47.3422 1.29263 
-1.66737 -47.4272 1.73868 
-0.329004 -47.5121 2.14356 
1.00936 -47.5971 2.51694 
2.34773 -47.6821 2.87328 
-2.85317 -50 0.0729485 
-3.80423 -50 -0.236068 
-1.90211 -50 0.381966 
-0.951056 -50 0.690983 
0 -50 1 
0.951056 -50 1.30902 
1.90211 -50 1.61803 
2.85317 -50 1.92705 
3.80422 -50 2.23607 
-9.97763 -6.66684 -4.95825 
-10.317 -7.4071 -4.81202 
-10.0736 -6.51255 -5.0926 
-9.79381 -6.92337 -4.71974 
-11.8357 -6.53439 -6.23201 
-10.3923 -6 -5.55241 
-10.6082 -5.596 -5.89182 
-8.73966 -8.21368 -3.4057 
-8.79824 -8.2798 -3.40908 
-8.77972 -8.17091 -3.45156 
-9.02208 -7.91215 -3.73501 
-9.52024 -7.30514 -4.35508 
-8.53729 -8.42975 -3.17344 
-2.72327 -11.7706 1.82293 
-2.73766 -11.677 1.77465 
-2.69692 -11.6865 1.8056 
-2.98782 -11.6186 1.60614 
-1.20453 -12.6433 3.03599 
-1.36308 -11.9174 2.66407 
-1.06088 -11.9471 2.88449 
-1.56631 -11.8973 2.53913 
-2.34108 -11.7694 2.04288 
0.314207 -13.5161 4.23201 
0 -12 3.54535 
0.482559 -11.9842 3.89176 
-0.108659 -11.9964 3.4652 
-0.784837 -11.9743 3.05722 
-12.239 -9.30068 -5.10626 
-13.998 -8.30425 -6.76791 
-10.4801 -10.2971 -3.47806 
-8.72113 -11.2935 -1.91165 
-7.91215 -9.02208 -2.49685 
-7.4481 -9.40291 -2.02291 
-8.48528 -8.48528 -3.11414 
-6.96219 -12.29 -0.425975 
-6 -10.3923 -0.689198 
-5.96532 -10.4108 -0.659452 
-6.66684 -9.97763 -1.2875 
-7.2374 -9.56878 -1.82381 
-7.30514 -9.52024 -1.88564 
-5.20324 -13.2864 0.972306 
-4.5922 -11.0866 0.442001 
-4.354 -11.1762 0.624258 
-5.30746 -10.7625 -0.127823 
-5.66763 -10.57 -0.426798 
-3.10583 -11.5911 1.524 
-3.44429 -14.2828 2.28985 
-3.85727 -11.3632 0.981893 
-4.15915 -11.2495 0.756144 
-1.68534 -15.2793 3.5456 
0.0736008 -16.2757 4.76791 
-14.0495 -11.2994 -5.32867 
-16.0406 -10.1982 -7.19678 
-12.0585 -12.4006 -3.50912 
-10.0674 -13.5017 -1.77927 
-8.07633 -14.6029 -0.166644 
-6.08525 -15.7041 1.31911 
-4.09418 -16.8053 2.68766 
-2.10311 -17.9065 3.96649 
-0.112039 -19.0077 5.19678 
-15.6914 -13.4401 -5.46657 
-17.8971 -12.2612 -7.49662 
-13.4857 -14.6191 -3.49831 
-11.2801 -15.798 -1.64423 
-9.07439 -16.977 0.0606594 
-6.86872 -18.1559 1.60408 
-4.66305 -19.3349 2.99831 
-2.45739 -20.5138 4.27836 
-0.251721 -21.6928 5.49662 
-17.106 -15.7537 -5.51212 
-19.4992 -14.5306 -7.65254 
-14.7128 -16.9767 -3.44436 
-12.3197 -18.1998 -1.51087 
-9.92651 -19.4229 0.247204 
-7.53334 -20.646 1.8154 
-5.14018 -21.8691 3.20818 
-2.74701 -23.0922 4.46669 
-0.353845 -24.3152 5.65254 
-18.2341 -18.2621 -5.46255 
-20.7783 -17.0332 -7.65718 
-15.6899 -19.491 -3.34867 
-13.1457 -20.7199 -1.38396 
-10.6016 -21.9487 0.385818 
-8.0574 -23.1776 1.94462 
-5.51323 -24.4065 3.30851 
-2.96906 -25.6354 4.52321 
-0.424886 -26.8642 5.65718 
-19.0165 -20.9768 -5.32003 
-21.6663 -19.7827 -7.5107 
-16.3667 -22.1709 -3.21507 
-13.7169 -23.365 -1.26848 
-11.0671 -24.5591 0.471177 
-8.41728 -25.7532 1.98687 
-5.76748 -26.9473 3.29563 
-3.11768 -28.1413 4.44602 
-0.467872 -29.3354 5.5107 
-19.3955 -23.8967 -5.09135 
-22.0977 -22.7774 -7.2205 
-16.6934 -25.0159 -3.04959 
-13.9913 -26.1352 -1.1693 
-11.2892 -27.2544 0.5 
-8.58703 -28.3737 1.94094 
-5.8849 -29.493 3.17091 
-3.18277 -30.6122 4.2394 
-0.480642 -31.7315 5.2205 
-19.3166 -27.0068 -4.78736 
-22.0112 -25.9989 -6.80048 
-16.6219 -28.0147 -2.85996 
-13.9273 -29.0226 -1.09093 
-11.2326 -30.0305 0.471177 
-8.53796 -31.0384 1.80931 
-5.84331 -32.0463 2.94052 
-3.14865 -33.0542 3.91336 
-0.453998 -34.0622 4.80048 
-18.7298 -30.278 -4.42228 
-21.3526 -29.4115 -6.27014 
-16.1069 -31.1445 -2.65515 
-13.4841 -32.0109 -1.03721 
-10.8612 -32.8774 0.385818 
-8.23837 -33.7439 1.59787 
-5.61552 -34.6104 2.61499 
-2.99267 -35.4768 3.48294 
-0.369813 -36.3433 4.27014 
-17.5922 -33.6667 -4.01273 
-20.0769 -32.9627 -5.65335 
-15.1075 -34.3708 -2.44477 
-12.6228 -35.0748 -1.01107 
-10.1381 -35.7789 0.247204 
-7.65341 -36.4829 1.3156 
-5.16872 -37.187 2.20858 
-2.68403 -37.891 2.9673 
-0.199337 -38.5951 3.65335 
-15.8696 -37.116 -3.57684 
-18.1507 -36.5841 -4.97698 
-13.5885 -37.6479 -2.23849 
-11.3074 -38.1797 -1.01432 
-9.02628 -38.7116 0.0606594 
-6.74518 -39.2435 0.974167 
-4.46407 -39.7754 1.73849 
-2.18296 -40.3072 2.38863 
0.0981436 -40.8391 2.97698 
-13.5386 -40.5565 -3.13317 
-15.555 -40.1939 -4.26944 
-11.5222 -40.9191 -2.04545 
-9.50587 -41.2818 -1.04744 
-7.48949 -41.6444 -0.166644 
-5.47311 -42.007 0.587279 
-3.45673 -42.3697 1.22399 
-1.44035 -42.7323 1.77099 
0.576022 -43.0949 2.26944 
-10.5882 -43.9091 -2.69972 
-12.2866 -43.6996 -3.55918 
-8.88986 -44.1186 -1.87369 
-7.19152 -44.328 -1.10947 
-5.49318 -44.5375 -0.425975 
-3.79484 -44.747 0.170126 
-2.09649 -44.9565 0.685489 
-0.398149 -45.1659 1.13906 
1.30019 -45.3754 1.55918 
-7.02084 -47.0873 -2.29297 
-8.3592 -47.0023 -2.87328 
-5.68247 -47.1722 -1.72971 
-4.3441 -47.2572 -1.19796 
-3.00574 -47.3422 -0.707364 
-1.66737 -47.4272 -0.26132 
-0.329004 -47.5121 0.143563 
1.00936 -47.5971 0.516945 
2.34773 -47.6821 0.873278 
-2.85317 -50 -1.92705 
-3.80423 -50 -2.23607 
-1.90211 -50 -1.61803 
-0.951056 -50 -1.30902 
0 -50 -1 
0.951056 -50 -0.690983 
1.90211 -50 -0.381966 
2.85317 -50 -0.0729485 
3.80422 -50 0.236068 
11.9743 -0.784837 10 
12 0 10 
12 0 -10 
11.9743 -0.784837 -10 
11.3632 -3.85727 -10 
11.0866 -4.5922 -10 
11.0866 -4.5922 10 
11.3632 -3.85727 10 
-6.66684 -9.97763 10 
-6 -10.3923 10 
-6 -10.3923 -10 
-6.66684 -9.97763 -10 
5.30746 -10.7625 -10 
6 -10.3923 10 
5.30746 -10.7625 10 
6 -10.3923 -10 
9.02208 7.91215 10 
8.48528 8.48528 -10 
8.48528 8.48528 10 
9.02208 7.91215 -10 
-3.85727 11.3632 -10 
-3.10583 11.5911 -10 
-3.10583 11.5911 10 
-3.85727 11.3632 10 
-10.7625 -5.30746 -10 
-10.3923 -6 -10 
-10.7625 -5.30746 10 
-10.3923 -6 10 
-1.56631 11.8973 -10 
-0.784837 11.9743 -10 
-0.784837 11.9743 10 
-1.56631 11.8973 10 
11.8973 -1.56631 -10 
11.8973 -1.56631 10 
11.3632 3.85727 -10 
11.5911 3.10583 -10 
11.5911 3.10583 10 
11.3632 3.85727 10 
11.9743 0.784837 10 
11.9743 0.784837 -10 
-6.66684 9.97763 -10 
-6 10.3923 -10 
-6 10.3923 10 
-6.66684 9.97763 10 
1.56631 11.8973 -10 
0.784837 11.9743 10 
1.56631 11.8973 10 
0.784837 11.9743 -10 
-11.3632 -3.85727 -10 
-11.5911 -3.10583 10 
-11.5911 -3.10583 -10 
-11.3632 -3.85727 10 
-10.3923 6 -10 
-9.97763 6.66684 -10 
-9.97763 6.66684 10 
-10.3923 6 10 
-11.8973 -1.56631 -10 
-11.9743 -0.784837 10 
-11.9743 -0.784837 -10 
-11.8973 -1.56631 10 
9.02208 -7.91215 10 
9.52024 -7.30514 -10 
9.52024 -7.30514 10 
9.02208 -7.91215 -10 
11.8973 1.56631 -10 
11.8973 1.56631 10 
-7.30514 -9.52024 -10 
-7.91215 -9.02208 -10 
-7.91215 -9.02208 10 
-7.30514 -9.52024 10 
7.91215 -9.02208 -10 
8.48528 -8.48528 10 
7.91215 -9.02208 10 
8.48528 -8.48528 -10 
7.91215 9.02208 -10 
7.30514 9.52024 10 
7.91215 9.02208 10 
7.30514 9.52024 -10 
4.5922 11.0866 -10 
3.85727 11.3632 10 
4.5922 11.0866 10 
3.85727 11.3632 -10 
-12 0 10 
-12 0 -10 
-4.5922 11.0866 -10 
-4.5922 11.0866 10 
-8.48528 -8.48528 -10 
-8.48528 -8.48528 10 
6.66684 -9.97763 10 
6.66684 -9.97763 -10 
-9.97763 -6.66684 10 
-9.97763 -6.66684 -10 
-5.30746 10.7625 10 
-5.30746 10.7625 -10 
-9.02208 -7.91215 10 
-9.02208 -7.91215 -10 
11.5911 -3.10583 -10 
11.5911 -3.10583 10 
-11.7694 -2.34108 -10 
-11.7694 -2.34108 10 
2.34108 -11.7694 -10 
3.10583 -11.5911 10 
2.34108 -11.7694 10 
3.10583 -11.5911 -10 
0 -12 -10 
-0.784837 -11.9743 -10 
-0.784837 -11.9743 10 
0 -12 10 
3.85727 -11.3632 10 
3.85727 -11.3632 -10 
6.66684 9.97763 10 
6.66684 9.97763 -10 
6 10.3923 10 
6 10.3923 -10 
-9.52024 7.30514 -10 
-9.02208 7.91215 -10 
-9.02208 7.91215 10 
-9.52024 7.30514 10 
0.784837 -11.9743 -10 
1.56631 -11.8973 10 
0.784837 -11.9743 10 
1.56631 -11.8973 -10 
0 12 10 
0 12 -10 
-3.85727 -11.3632 10 
-3.10583 -11.5911 10 
-3.10583 -11.5911 -10 
-3.85727 -11.3632 -10 
11.7694 -2.34108 -10 
11.7694 -2.34108 10 
10.7625 -5.30746 -10 
10.3923 -6 -10 
10.3923 -6 10 
10.7625 -5.30746 10 
7.30514 -9.52024 -10 
7.30514 -9.52024 10 
-11.3632 3.85727 -10 
-11.0866 4.5922 10 
-11.0866 4.5922 -10 
-11.3632 3.85727 10 
9.52024 7.30514 10 
9.52024 7.30514 -10 
10.7625 5.30746 10 
10.3923 6 10 
10.3923 6 -10 
10.7625 5.30746 -10 
-9.52024 -7.30514 10 
-9.52024 -7.30514 -10 
5.30746 10.7625 10 
5.30746 10.7625 -10 
-7.91215 9.02208 -10 
-7.30514 9.52024 -10 
-7.30514 9.52024 10 
-7.91215 9.02208 10 
11.7694 2.34108 10 
11.7694 2.34108 -10 
-2.34108 -11.7694 10 
-1.56631 -11.8973 10 
-1.56631 -11.8973 -10 
-2.34108 -11.7694 -10 
-4.5922 -11.0866 10 
-4.5922 -11.0866 -10 
11.0866 4.5922 10 
11.0866 4.5922 -10 
-11.0866 -4.5922 10 
-11.0866 -4.5922 -10 
9.97763 -6.66684 10 
9.97763 -6.66684 -10 
4.5922 -11.0866 -10 
4.5922 -11.0866 10 
-8.48528 8.48528 -10 
-8.48528 8.48528 10 
-2.34108 11.7694 10 
-2.34108 11.7694 -10 
2.5 0 -10 
2.49465 -0.163507 -10 
2.47861 -0.326315 -10 
2.49465 0.163507 -10 
2.45196 -0.487725 -10 
2.41481 -0.647047 -10 
2.47861 0.326315 -10 
2.36732 -0.803598 -10 
2.3097 -0.956708 -10 
2.45196 0.487725 -10 
2.24218 -1.10572 -10 
2.16506 -1.25 -10 
2.41481 0.647047 -10 
2.07867 -1.38893 -10 
1.98338 -1.5219 -10 
2.36732 0.803598 -10 
1.8796 -1.64836 -10 
1.76777 -1.76777 -10 
2.3097 0.956708 -10 
1.64836 -1.8796 -10 
1.5219 -1.98338 -10 
2.24218 1.10572 -10 
1.38893 -2.07867 -10 
1.25 -2.16506 -10 
2.16506 1.25 -10 
1.10572 -2.24218 -10 
9.97763 6.66684 -10 
0.956708 -2.3097 -10 
2.07867 1.38893 -10 
0.803598 -2.36732 -10 
1.98338 1.5219 -10 
0.647047 -2.41481 -10 
0.487725 -2.45196 -10 
0.326315 -2.47861 -10 
0.163507 -2.49465 -10 
0 -2.5 -10 
-0.163507 -2.49465 -10 
-0.326315 -2.47861 -10 
-0.487725 -2.45196 -10 
-0.647047 -2.41481 -10 
-0.803598 -2.36732 -10 
-0.956708 -2.3097 -10 
-1.10572 -2.24218 -10 
-5.30746 -10.7625 -10 
-1.25 -2.16506 -10 
-1.38893 -2.07867 -10 
-1.5219 -1.98338 -10 
-1.64836 -1.8796 -10 
-1.76777 -1.76777 -10 
-1.8796 -1.64836 -10 
-1.98338 -1.5219 -10 
1.8796 1.64836 -10 
1.76777 1.76777 -10 
1.64836 1.8796 -10 
1.5219 1.98338 -10 
1.38893 2.07867 -10 
1.25 2.16506 -10 
1.10572 2.24218 -10 
0.956708 2.3097 -10 
0.803598 2.36732 -10 
3.10583 11.5911 -10 
0.647047 2.41481 -10 
2.34108 11.7694 -10 
0.487725 2.45196 -10 
0.326315 2.47861 -10 
0.163507 2.49465 -10 
0 2.5 -10 
-0.163507 2.49465 -10 
-0.326315 2.47861 -10 
-0.487725 2.45196 -10 
-0.647047 2.41481 -10 
-0.803598 2.36732 -10 
-0.956708 2.3097 -10 
-1.10572 2.24218 -10 
-1.25 2.16506 -10 
-1.38893 2.07867 -10 
-1.5219 1.98338 -10 
-1.64836 1.8796 -10 
-1.76777 1.76777 -10 
-1.8796 1.64836 -10 
-1.98338 1.5219 -10 
-2.07867 1.38893 -10 
-2.16506 1.25 -10 
-2.24218 1.10572 -10 
-10.7625 5.30746 -10 
-2.3097 0.956708 -10 
-2.36732 0.803598 -10 
-2.41481 0.647047 -10 
-11.5911 3.10583 -10 
-2.45196 0.487725 -10 
-11.7694 2.34108 -10 
-2.47861 0.326315 -10 
-11.8973 1.56631 -10 
-2.49465 0.163507 -10 
-11.9743 0.784837 -10 
-2.5 0 -10 
-2.07867 -1.38893 -10 
-2.16506 -1.25 -10 
-2.24218 -1.10572 -10 
-2.3097 -0.956708 -10 
-2.36732 -0.803598 -10 
-2.41481 -0.647047 -10 
-2.45196 -0.487725 -10 
-2.47861 -0.326315 -10 
-2.49465 -0.163507 -10 
-11.5911 3.10583 10 
-11.7694 2.34108 10 
-11.9743 0.784837 10 
9.97763 6.66684 10 
-11.8973 1.56631 10 
2.34108 11.7694 10 
3.10583 11.5911 10 
-10.7625 5.30746 10 
-5.30746 -10.7625 10 
2.5 0 10 
2.49465 0.163507 10 
2.47861 0.326315 10 
2.49465 -0.163507 10 
2.45196 0.487725 10 
2.41481 0.647047 10 
2.47861 -0.326315 10 
2.36732 0.803598 10 
2.3097 0.956708 10 
2.45196 -0.487725 10 
2.24218 1.10572 10 
2.16506 1.25 10 
2.41481 -0.647047 10 
2.07867 1.38893 10 
1.98338 1.5219 10 
2.36732 -0.803598 10 
1.8796 1.64836 10 
1.76777 1.76777 10 
2.3097 -0.956708 10 
1.64836 1.8796 10 
1.5219 1.98338 10 
2.24218 -1.10572 10 
1.38893 2.07867 10 
1.25 2.16506 10 
2.16506 -1.25 10 
1.10572 2.24218 10 
0.956708 2.3097 10 
2.07867 -1.38893 10 
0.803598 2.36732 10 
1.98338 -1.5219 10 
0.647047 2.41481 10 
0.487725 2.45196 10 
0.326315 2.47861 10 
0.163507 2.49465 10 
0 2.5 10 
-0.163507 2.49465 10 
-0.326315 2.47861 10 
-0.487725 2.45196 10 
-0.647047 2.41481 10 
-0.803598 2.36732 10 
-0.956708 2.3097 10 
-1.10572 2.24218 10 
-1.25 2.16506 10 
-1.38893 2.07867 10 
-1.5219 1.98338 10 
-1.64836 1.8796 10 
-1.76777 1.76777 10 
-1.8796 1.64836 10 
-1.98338 1.5219 10 
1.8796 -1.64836 10 
1.76777 -1.76777 10 
1.64836 -1.8796 10 
1.5219 -1.98338 10 
1.38893 -2.07867 10 
1.25 -2.16506 10 
1.10572 -2.24218 10 
0.956708 -2.3097 10 
0.803598 -2.36732 10 
0.647047 -2.41481 10 
0.487725 -2.45196 10 
0.326315 -2.47861 10 
0.163507 -2.49465 10 
0 -2.5 10 
-0.163507 -2.49465 10 
-0.326315 -2.47861 10 
-0.487725 -2.45196 10 
-0.647047 -2.41481 10 
-0.803598 -2.36732 10 
-0.956708 -2.3097 10 
-1.10572 -2.24218 10 
-1.25 -2.16506 10 
-1.38893 -2.07867 10 
-1.5219 -1.98338 10 
-1.64836 -1.8796 10 
-1.76777 -1.76777 10 
-1.8796 -1.64836 10 
-1.98338 -1.5219 10 
-2.07867 -1.38893 10 
-2.16506 -1.25 10 
-2.24218 -1.10572 10 
-2.3097 -0.956708 10 
-2.36732 -0.803598 10 
-2.41481 -0.647047 10 
-2.45196 -0.487725 10 
-2.47861 -0.326315 10 
-2.49465 -0.163507 10 
-2.5 0 10 
-2.07867 1.38893 10 
-2.16506 1.25 10 
-2.24218 1.10572 10 
-2.3097 0.956708 10 
-2.36732 0.803598 10 
-2.41481 0.647047 10 
-2.45196 0.487725 10 
-2.47861 0.326315 10 
-2.49465 0.163507 10 
3 0 1 2
3 3 1 0
3 1 3 4
3 5 2 6
3 2 5 0
3 7 8 9
3 8 7 2
3 10 2 7
3 2 10 6
3 11 9 8
3 12 11 8
3 13 14 15
3 13 16 14
3 17 13 18
3 13 17 16
3 18 19 17
3 19 18 20
3 18 21 20
3 22 18 23
3 18 24 21
3 18 22 24
3 23 25 22
3 25 23 26
3 27 1 28
3 27 2 1
3 29 2 27
3 29 8 2
3 30 8 29
3 31 30 32
3 33 30 31
3 33 8 30
3 8 33 12
3 34 30 35
3 36 30 34
3 30 36 32
3 35 37 38
3 39 35 38
3 35 39 34
3 40 35 41
3 35 40 37
3 41 42 40
3 41 43 42
3 43 41 44
3 45 41 46
3 41 45 44
3 46 47 45
3 46 48 47
3 13 48 46
3 48 13 15
3 49 13 46
3 49 18 13
3 50 18 49
3 50 23 18
3 51 28 52
3 51 27 28
3 53 27 51
3 53 29 27
3 54 29 53
3 54 30 29
3 55 30 54
3 55 35 30
3 56 35 55
3 56 41 35
3 57 41 56
3 57 46 41
3 58 46 57
3 58 49 46
3 59 49 58
3 59 50 49
3 60 52 61
3 60 51 52
3 62 51 60
3 62 53 51
3 63 53 62
3 63 54 53
3 64 54 63
3 64 55 54
3 65 55 64
3 65 56 55
3 66 56 65
3 66 57 56
3 67 57 66
3 67 58 57
3 68 58 67
3 68 59 58
3 69 61 70
3 69 60 61
3 71 60 69
3 71 62 60
3 72 62 71
3 72 63 62
3 73 63 72
3 73 64 63
3 74 64 73
3 74 65 64
3 75 65 74
3 75 66 65
3 76 66 75
3 76 67 66
3 77 67 76
3 77 68 67
3 78 70 79
3 78 69 70
3 80 69 78
3 80 71 69
3 81 71 80
3 81 72 71
3 82 72 81
3 82 73 72
3 83 73 82
3 83 74 73
3 84 74 83
3 84 75 74
3 85 75 84
3 85 76 75
3 86 76 85
3 86 77 76
3 87 79 88
3 87 78 79
3 89 78 87
3 89 80 78
3 90 80 89
3 90 81 80
3 91 81 90
3 91 82 81
3 92 82 91
3 92 83 82
3 93 83 92
3 93 84 83
3 94 84 93
3 94 85 84
3 95 85 94
3 95 86 85
3 96 88 97
3 96 87 88
3 98 87 96
3 98 89 87
3 99 89 98
3 99 90 89
3 100 90 99
3 100 91 90
3 101 91 100
3 101 92 91
3 102 92 101
3 102 93 92
3 103 93 102
3 103 94 93
3 104 94 103
3 104 95 94
3 105 97 106
3 105 96 97
3 107 96 105
3 107 98 96
3 108 98 107
3 108 99 98
3 109 99 108
3 109 100 99
3 110 100 109
3 110 101 100
3 111 101 110
3 111 102 101
3 112 102 111
3 112 103 102
3 113 103 112
3 113 104 103
3 114 106 115
3 114 105 106
3 116 105 114
3 116 107 105
3 117 107 116
3 117 108 107
3 118 108 117
3 118 109 108
3 119 109 118
3 119 110 109
3 120 110 119
3 120 111 110
3 121 111 120
3 121 112 111
3 122 112 121
3 122 113 112
3 123 115 124
3 123 114 115
3 125 114 123
3 125 116 114
3 126 116 125
3 126 117 116
3 127 117 126
3 127 118 117
3 128 118 127
3 128 119 118
3 129 119 128
3 129 120 119
3 130 120 129
3 130 121 120
3 131 121 130
3 131 122 121
3 132 124 133
3 132 123 124
3 134 123 132
3 134 125 123
3 135 125 134
3 135 126 125
3 136 126 135
3 136 127 126
3 137 127 136
3 137 128 127
3 138 128 137
3 138 129 128
3 139 129 138
3 139 130 129
3 140 130 139
3 140 131 130
3 141 133 142
3 141 132 133
3 143 132 141
3 143 134 132
3 144 134 143
3 144 135 134
3 145 135 144
3 145 136 135
3 146 136 145
3 146 137 136
3 147 137 146
3 147 138 137
3 148 138 147
3 148 139 138
3 149 139 148
3 149 140 139
3 150 142 151
3 150 141 142
3 152 141 150
3 152 143 141
3 153 143 152
3 153 144 143
3 154 144 153
3 154 145 144
3 155 145 154
3 155 146 145
3 156 146 155
3 156 147 146
3 157 147 156
3 157 148 147
3 158 148 157
3 158 149 148
3 159 151 160
3 159 150 151
3 161 150 159
3 161 152 150
3 162 152 161
3 162 153 152
3 163 153 162
3 163 154 153
3 164 154 163
3 164 155 154
3 165 155 164
3 165 156 155
3 166 156 165
3 166 157 156
3 167 157 166
3 167 158 157
3 168 169 160
3 169 159 160
3 169 170 159
3 170 161 159
3 171 161 170
3 171 162 161
3 172 162 171
3 172 163 162
3 173 163 172
3 173 164 163
3 174 164 173
3 174 165 164
3 175 165 174
3 175 166 165
3 176 166 175
3 176 167 166
3 177 178 179
3 178 177 180
3 181 180 177
3 181 182 180
3 182 181 183
3 184 185 186
3 187 184 177
3 184 187 185
3 177 188 187
3 188 177 179
3 184 186 189
3 190 191 192
3 193 190 192
3 194 195 196
3 197 192 191
3 192 197 196
3 198 196 197
3 196 198 194
3 199 200 201
3 200 199 202
3 203 196 195
3 201 196 203
3 196 201 200
3 181 177 204
3 205 181 204
3 177 184 206
3 204 177 206
3 207 208 209
3 207 210 208
3 184 210 207
3 210 184 189
3 206 184 207
3 211 212 213
3 212 211 214
3 211 213 215
3 207 214 211
3 207 216 214
3 216 207 209
3 217 218 219
3 220 218 217
3 218 220 221
3 219 211 215
3 211 219 218
3 222 223 224
3 225 223 222
3 192 225 193
3 225 192 223
3 224 218 221
3 218 224 223
3 192 196 226
3 223 192 226
3 196 200 227
3 226 196 227
3 205 204 228
3 229 205 228
3 204 206 230
3 228 204 230
3 206 207 231
3 230 206 231
3 207 211 232
3 231 207 232
3 211 218 233
3 232 211 233
3 218 223 234
3 233 218 234
3 223 226 235
3 234 223 235
3 226 227 236
3 235 226 236
3 229 228 237
3 238 229 237
3 228 230 239
3 237 228 239
3 230 231 240
3 239 230 240
3 231 232 241
3 240 231 241
3 232 233 242
3 241 232 242
3 233 234 243
3 242 233 243
3 234 235 244
3 243 234 244
3 235 236 245
3 244 235 245
3 238 237 246
3 247 238 246
3 237 239 248
3 246 237 248
3 239 240 249
3 248 239 249
3 240 241 250
3 249 240 250
3 241 242 251
3 250 241 251
3 242 243 252
3 251 242 252
3 243 244 253
3 252 243 253
3 244 245 254
3 253 244 254
3 247 246 255
3 256 247 255
3 246 248 257
3 255 246 257
3 248 249 258
3 257 248 258
3 249 250 259
3 258 249 259
3 250 251 260
3 259 250 260
3 251 252 261
3 260 251 261
3 252 253 262
3 261 252 262
3 253 254 263
3 262 253 263
3 256 255 264
3 265 256 264
3 255 257 266
3 264 255 266
3 257 258 267
3 266 257 267
3 258 259 268
3 267 258 268
3 259 260 269
3 268 259 269
3 260 261 270
3 269 260 270
3 261 262 271
3 270 261 271
3 262 263 272
3 271 262 272
3 265 264 273
3 274 265 273
3 264 266 275
3 273 264 275
3 266 267 276
3 275 266 276
3 267 268 277
3 276 267 277
3 268 269 278
3 277 268 278
3 269 270 279
3 278 269 279
3 270 271 280
3 279 270 280
3 271 272 281
3 280 271 281
3 274 273 282
3 283 274 282
3 273 275 284
3 282 273 284
3 275 276 285
3 284 275 285
3 276 277 286
3 285 276 286
3 277 278 287
3 286 277 287
3 278 279 288
3 287 278 288
3 279 280 289
3 288 279 289
3 280 281 290
3 289 280 290
3 283 282 291
3 292 283 291
3 282 284 293
3 291 282 293
3 284 285 294
3 293 284 294
3 285 286 295
3 294 285 295
3 286 287 296
3 295 286 296
3 287 288 297
3 296 287 297
3 288 289 298
3 297 288 298
3 289 290 299
3 298 289 299
3 292 291 300
3 301 292 300
3 291 293 302
3 300 291 302
3 293 294 303
3 302 293 303
3 294 295 304
3 303 294 304
3 295 296 305
3 304 295 305
3 296 297 306
3 305 296 306
3 297 298 307
3 306 297 307
3 298 299 308
3 307 298 308
3 301 300 309
3 310 301 309
3 300 302 311
3 309 300 311
3 302 303 312
3 311 302 312
3 303 304 313
3 312 303 313
3 304 305 314
3 313 304 314
3 305 306 315
3 314 305 315
3 306 307 316
3 315 306 316
3 307 308 317
3 316 307 317
3 310 309 318
3 319 310 318
3 309 311 320
3 318 309 320
3 311 312 321
3 320 311 321
3 312 313 322
3 321 312 322
3 313 314 323
3 322 313 323
3 314 315 324
3 323 314 324
3 315 316 325
3 324 315 325
3 316 317 326
3 325 316 326
3 319 318 327
3 328 319 327
3 318 320 329
3 327 318 329
3 320 321 330
3 329 320 330
3 321 322 331
3 330 321 331
3 322 323 332
3 331 322 332
3 323 324 333
3 332 323 333
3 324 325 334
3 333 324 334
3 325 326 335
3 334 325 335
3 328 327 336
3 337 328 336
3 327 329 338
3 336 327 338
3 329 330 339
3 338 329 339
3 330 331 340
3 339 330 340
3 331 332 341
3 340 331 341
3 332 333 342
3 341 332 342
3 333 334 343
3 342 333 343
3 334 335 344
3 343 334 344
3 337 336 345
3 337 345 346
3 336 338 347
3 336 347 345
3 338 339 348
3 347 338 348
3 339 340 349
3 348 339 349
3 340 341 350
3 349 340 350
3 341 342 351
3 350 341 351
3 342 343 352
3 351 342 352
3 343 344 353
3 352 343 353
3 183 1 4
3 1 183 181
3 200 26 23
3 26 200 202
3 181 28 1
3 28 181 205
3 227 23 50
3 23 227 200
3 205 52 28
3 52 205 229
3 236 50 59
3 50 236 227
3 229 61 52
3 61 229 238
3 245 59 68
3 59 245 236
3 238 70 61
3 70 238 247
3 254 68 77
3 68 254 245
3 247 79 70
3 79 247 256
3 263 77 86
3 77 263 254
3 79 265 88
3 265 79 256
3 95 263 86
3 263 95 272
3 88 274 97
3 274 88 265
3 104 272 95
3 272 104 281
3 97 283 106
3 283 97 274
3 113 281 104
3 281 113 290
3 106 292 115
3 292 106 283
3 122 290 113
3 290 122 299
3 115 301 124
3 301 115 292
3 131 299 122
3 299 131 308
3 124 310 133
3 310 124 301
3 140 308 131
3 308 140 317
3 133 319 142
3 319 133 310
3 149 317 140
3 317 149 326
3 142 328 151
3 328 142 319
3 326 158 335
3 158 326 149
3 151 337 160
3 337 151 328
3 335 167 344
3 167 335 158
3 160 346 168
3 346 160 337
3 344 176 353
3 176 344 167
3 173 351 174
3 173 350 351
3 172 350 173
3 172 349 350
3 171 349 172
3 171 348 349
3 170 348 171
3 170 347 348
3 169 347 170
3 169 345 347
3 168 345 169
3 345 168 346
3 174 352 175
3 352 174 351
3 175 353 176
3 353 175 352
3 354 355 356
3 354 357 355
3 357 354 358
3 359 358 360
3 358 359 357
3 358 361 360
3 358 362 361
3 363 362 358
3 362 363 364
3 364 363 365
3 363 366 365
3 367 368 369
3 369 368 370
3 368 371 370
3 372 371 368
3 373 372 374
3 371 372 373
3 374 372 375
3 372 376 375
3 372 377 376
3 377 372 378
3 379 378 380
3 378 379 377
3 381 382 354
3 354 382 358
3 382 383 358
3 358 383 363
3 383 384 363
3 363 385 366
3 384 385 363
3 386 384 387
3 385 384 386
3 384 388 387
3 384 389 388
3 389 384 390
3 391 390 392
3 393 390 391
3 390 393 389
3 390 394 392
3 394 390 395
3 396 395 397
3 398 395 396
3 395 398 394
3 395 399 397
3 399 395 400
3 401 368 367
3 400 401 402
3 401 400 368
3 400 402 399
3 400 403 368
3 368 403 372
3 403 404 372
3 372 404 378
3 405 406 381
3 381 406 382
3 406 407 382
3 382 407 383
3 407 408 383
3 383 408 384
3 408 409 384
3 384 409 390
3 409 410 390
3 390 410 395
3 410 411 395
3 395 411 400
3 411 412 400
3 400 412 403
3 412 413 403
3 403 413 404
3 414 415 405
3 405 415 406
3 415 416 406
3 406 416 407
3 416 417 407
3 407 417 408
3 417 418 408
3 408 418 409
3 418 419 409
3 409 419 410
3 419 420 410
3 410 420 411
3 420 421 411
3 411 421 412
3 421 422 412
3 412 422 413
3 423 424 414
3 414 424 415
3 424 425 415
3 415 425 416
3 425 426 416
3 416 426 417
3 426 427 417
3 417 427 418
3 427 428 418
3 418 428 419
3 428 429 419
3 419 429 420
3 429 430 420
3 420 430 421
3 430 431 421
3 421 431 422
3 432 433 423
3 423 433 424
3 433 434 424
3 424 434 425
3 434 435 425
3 425 435 426
3 435 436 426
3 426 436 427
3 436 437 427
3 427 437 428
3 437 438 428
3 428 438 429
3 438 439 429
3 429 439 430
3 439 440 430
3 430 440 431
3 441 442 432
3 432 442 433
3 442 443 433
3 433 443 434
3 443 444 434
3 434 444 435
3 444 445 435
3 435 445 436
3 445 446 436
3 436 446 437
3 446 447 437
3 437 447 438
3 447 448 438
3 438 448 439
3 448 449 439
3 439 449 440
3 450 451 441
3 441 451 442
3 451 452 442
3 442 452 443
3 452 453 443
3 443 453 444
3 453 454 444
3 444 454 445
3 454 455 445
3 445 455 446
3 455 456 446
3 446 456 447
3 456 457 447
3 447 457 448
3 457 458 448
3 448 458 449
3 459 460 450
3 450 460 451
3 460 461 451
3 451 461 452
3 461 462 452
3 452 462 453
3 462 463 453
3 453 463 454
3 463 464 454
3 454 464 455
3 464 465 455
3 455 465 456
3 465 466 456
3 456 466 457
3 466 467 457
3 457 467 458
3 468 469 459
3 459 469 460
3 469 470 460
3 460 470 461
3 470 471 461
3 461 471 462
3 471 472 462
3 462 472 463
3 472 473 463
3 463 473 464
3 473 474 464
3 464 474 465
3 474 475 465
3 465 475 466
3 475 476 466
3 466 476 467
3 477 478 468
3 468 478 469
3 478 479 469
3 469 479 470
3 479 480 470
3 470 480 471
3 480 481 471
3 471 481 472
3 481 482 472
3 472 482 473
3 482 483 473
3 473 483 474
3 483 484 474
3 474 484 475
3 484 485 475
3 475 485 476
3 486 487 477
3 477 487 478
3 487 488 478
3 478 488 479
3 488 489 479
3 479 489 480
3 489 490 480
3 480 490 481
3 490 491 481
3 481 491 482
3 491 492 482
3 482 492 483
3 492 493 483
3 483 493 484
3 493 494 484
3 484 494 485
3 495 496 486
3 486 496 487
3 496 497 487
3 487 497 488
3 497 498 488
3 488 498 489
3 498 499 489
3 489 499 490
3 499 500 490
3 490 500 491
3 500 501 491
3 491 501 492
3 501 502 492
3 492 502 493
3 502 503 493
3 493 503 494
3 504 505 495
3 495 505 496
3 505 506 496
3 496 506 497
3 506 507 497
3 497 507 498
3 507 508 498
3 498 508 499
3 508 509 499
3 499 509 500
3 509 510 500
3 500 510 501
3 510 511 501
3 501 511 502
3 511 512 502
3 502 512 503
3 513 514 504
3 504 514 505
3 514 515 505
3 505 515 506
3 515 516 506
3 506 516 507
3 516 517 507
3 507 517 508
3 517 518 508
3 508 518 509
3 518 519 509
3 509 519 510
3 519 520 510
3 510 520 511
3 520 521 511
3 511 521 512
3 522 523 513
3 513 523 514
3 523 524 514
3 514 524 515
3 524 525 515
3 515 525 516
3 525 526 516
3 516 526 517
3 526 527 517
3 517 527 518
3 527 528 518
3 518 528 519
3 528 529 519
3 519 529 520
3 529 530 520
3 520 530 521
3 531 532 533
3 532 531 534
3 535 536 537
3 533 536 535
3 536 533 532
3 538 539 540
3 541 532 534
3 542 532 541
3 539 542 540
3 542 539 532
3 538 543 539
3 544 545 546
3 546 545 547
3 548 549 550
3 551 545 544
3 549 551 552
3 551 549 545
3 549 552 550
3 553 554 555
3 554 553 556
3 557 549 548
3 555 549 557
3 549 555 554
3 532 558 536
3 536 558 559
3 539 560 532
3 532 560 558
3 561 539 543
3 562 561 563
3 561 562 539
3 562 563 564
3 539 562 560
3 565 566 567
3 568 566 565
3 566 568 569
3 570 562 564
3 567 562 570
3 562 567 566
3 571 572 573
3 574 572 571
3 572 574 575
3 573 566 569
3 566 573 572
3 545 576 547
3 577 576 545
3 578 577 579
3 576 577 578
3 579 572 575
3 572 579 577
3 549 580 545
3 545 580 577
3 554 581 549
3 549 581 580
3 558 582 559
3 559 582 583
3 560 584 558
3 558 584 582
3 562 585 560
3 560 585 584
3 566 586 562
3 562 586 585
3 572 587 566
3 566 587 586
3 577 588 572
3 572 588 587
3 580 589 577
3 577 589 588
3 581 590 580
3 580 590 589
3 582 591 583
3 583 591 592
3 584 593 582
3 582 593 591
3 585 594 584
3 584 594 593
3 586 595 585
3 585 595 594
3 587 596 586
3 586 596 595
3 588 597 587
3 587 597 596
3 589 598 588
3 588 598 597
3 590 599 589
3 589 599 598
3 591 600 592
3 592 600 601
3 593 602 591
3 591 602 600
3 594 603 593
3 593 603 602
3 595 604 594
3 594 604 603
3 596 605 595
3 595 605 604
3 597 606 596
3 596 606 605
3 598 607 597
3 597 607 606
3 599 608 598
3 598 608 607
3 600 609 601
3 601 609 610
3 602 611 600
3 600 611 609
3 603 612 602
3 602 612 611
3 604 613 603
3 603 613 612
3 605 614 604
3 604 614 613
3 606 615 605
3 605 615 614
3 607 616 606
3 606 616 615
3 608 617 607
3 607 617 616
3 609 618 610
3 610 618 619
3 611 620 609
3 609 620 618
3 612 621 611
3 611 621 620
3 613 622 612
3 612 622 621
3 614 623 613
3 613 623 622
3 615 624 614
3 614 624 623
3 616 625 615
3 615 625 624
3 617 626 616
3 616 626 625
3 618 627 619
3 619 627 628
3 620 629 618
3 618 629 627
3 621 630 620
3 620 630 629
3 622 631 621
3 621 631 630
3 623 632 622
3 622 632 631
3 624 633 623
3 623 633 632
3 625 634 624
3 624 634 633
3 626 635 625
3 625 635 634
3 627 636 628
3 628 636 637
3 629 638 627
3 627 638 636
3 630 639 629
3 629 639 638
3 631 640 630
3 630 640 639
3 632 641 631
3 631 641 640
3 633 642 632
3 632 642 641
3 634 643 633
3 633 643 642
3 635 644 634
3 634 644 643
3 636 645 637
3 637 645 646
3 638 647 636
3 636 647 645
3 639 648 638
3 638 648 647
3 640 649 639
3 639 649 648
3 641 650 640
3 640 650 649
3 642 651 641
3 641 651 650
3 643 652 642
3 642 652 651
3 644 653 643
3 643 653 652
3 645 654 646
3 646 654 655
3 647 656 645
3 645 656 654
3 648 657 647
3 647 657 656
3 649 658 648
3 648 658 657
3 650 659 649
3 649 659 658
3 651 660 650
3 650 660 659
3 652 661 651
3 651 661 660
3 653 662 652
3 652 662 661
3 654 663 655
3 655 663 664
3 656 665 654
3 654 665 663
3 657 666 656
3 656 666 665
3 658 667 657
3 657 667 666
3 659 668 658
3 658 668 667
3 660 669 659
3 659 669 668
3 661 670 660
3 660 670 669
3 662 671 661
3 661 671 670
3 663 672 664
3 664 672 673
3 665 674 663
3 663 674 672
3 666 675 665
3 665 675 674
3 667 676 666
3 666 676 675
3 668 677 667
3 667 677 676
3 669 678 668
3 668 678 677
3 670 679 669
3 669 679 678
3 671 680 670
3 670 680 679
3 672 681 673
3 673 681 682
3 674 683 672
3 672 683 681
3 675 684 674
3 674 684 683
3 676 685 675
3 675 685 684
3 677 686 676
3 676 686 685
3 678 687 677
3 677 687 686
3 679 688 678
3 678 688 687
3 680 689 679
3 679 689 688
3 681 690 682
3 682 690 691
3 683 692 681
3 681 692 690
3 684 693 683
3 683 693 692
3 685 694 684
3 684 694 693
3 686 695 685
3 685 695 694
3 687 696 686
3 686 696 695
3 688 697 687
3 687 697 696
3 689 698 688
3 688 698 697
3 690 699 691
3 691 699 700
3 692 701 690
3 690 701 699
3 693 702 692
3 692 702 701
3 694 703 693
3 693 703 702
3 695 704 694
3 694 704 703
3 696 705 695
3 695 705 704
3 697 706 696
3 696 706 705
3 698 707 697
3 697 707 706
3 537 354 356
3 354 537 536
3 554 380 378
3 380 554 556
3 536 381 354
3 381 536 559
3 581 378 404
3 378 581 554
3 559 405 381
3 405 559 583
3 590 404 413
3 404 590 581
3 583 414 405
3 414 583 592
3 599 413 422
3 413 599 590
3 592 423 414
3 423 592 601
3 608 422 431
3 422 608 599
3 423 610 432
3 610 423 601
3 617 431 440
3 431 617 608
3 432 619 441
3 619 432 610
3 449 617 440
3 617 449 626
3 441 628 450
3 628 441 619
3 458 626 449
3 626 458 635
3 450 637 459
3 637 450 628
3 467 635 458
3 635 467 644
3 459 646 468
3 646 459 637
3 476 644 467
3 644 476 653
3 468 655 477
3 655 468 646
3 485 653 476
3 653 485 662
3 477 664 486
3 664 477 655
3 494 662 485
3 662 494 671
3 486 673 495
3 673 486 664
3 503 671 494
3 671 503 680
3 495 682 504
3 682 495 673
3 512 680 503
3 680 512 689
3 504 691 513
3 691 504 682
3 521 689 512
3 689 521 698
3 513 700 522
3 700 513 691
3 530 698 521
3 698 530 707
3 699 522 700
3 522 699 523
3 701 523 699
3 523 701 524
3 702 524 701
3 524 702 525
3 703 525 702
3 525 703 526
3 704 526 703
3 526 704 527
3 705 527 704
3 527 705 528
3 706 528 705
3 528 706 529
3 707 529 706
3 529 707 530
3 708 709 710
3 708 710 711
3 709 708 712
3 713 712 714
3 712 713 709
3 715 716 717
3 712 715 718
3 715 712 716
3 712 718 714
3 717 716 719
3 719 716 720
3 721 722 723
3 724 721 723
3 725 726 727
3 728 726 725
3 723 728 724
3 728 723 726
3 729 727 726
3 726 730 731
3 726 731 729
3 730 726 732
3 733 732 734
3 732 733 730
3 708 735 736
3 708 736 712
3 712 736 737
3 712 737 716
3 716 737 738
3 739 738 740
3 741 738 739
3 716 741 720
3 741 716 738
3 738 742 743
3 738 743 740
3 742 738 744
3 745 744 746
3 747 744 745
3 744 747 742
3 744 748 746
3 748 744 749
3 750 749 751
3 752 749 750
3 749 752 748
3 749 753 751
3 753 749 754
3 755 723 722
3 755 754 723
3 756 754 755
3 754 756 753
3 723 754 757
3 726 723 757
3 726 757 758
3 732 726 758
3 735 759 760
3 735 760 736
3 736 760 761
3 737 736 761
3 737 761 762
3 738 737 762
3 738 762 763
3 744 738 763
3 744 763 764
3 749 744 764
3 749 764 765
3 754 749 765
3 754 765 766
3 757 754 766
3 757 766 767
3 758 757 767
3 759 768 769
3 760 759 769
3 760 769 770
3 761 760 770
3 761 770 771
3 762 761 771
3 762 771 772
3 763 762 772
3 763 772 773
3 764 763 773
3 764 773 774
3 765 764 774
3 765 774 775
3 766 765 775
3 766 775 776
3 767 766 776
3 768 777 778
3 769 768 778
3 769 778 779
3 770 769 779
3 770 779 780
3 771 770 780
3 771 780 781
3 772 771 781
3 772 781 782
3 773 772 782
3 773 782 783
3 774 773 783
3 774 783 784
3 775 774 784
3 775 784 785
3 776 775 785
3 777 786 787
3 778 777 787
3 778 787 788
3 779 778 788
3 779 788 789
3 780 779 789
3 780 789 790
3 781 780 790
3 781 790 791
3 782 781 791
3 782 791 792
3 783 782 792
3 783 792 793
3 784 783 793
3 784 793 794
3 785 784 794
3 786 795 796
3 787 786 796
3 787 796 797
3 788 787 797
3 788 797 798
3 789 788 798
3 789 798 799
3 790 789 799
3 790 799 800
3 791 790 800
3 791 800 801
3 792 791 801
3 792 801 802
3 793 792 802
3 793 802 803
3 794 793 803
3 795 804 805
3 796 795 805
3 796 805 806
3 797 796 806
3 797 806 807
3 798 797 807
3 798 807 808
3 799 798 808
3 799 808 809
3 800 799 809
3 800 809 810
3 801 800 810
3 801 810 811
3 802 801 811
3 802 811 812
3 803 802 812
3 813 804 814
3 805 804 813
3 815 805 813
3 806 805 815
3 816 806 815
3 807 806 816
3 817 807 816
3 808 807 817
3 818 808 817
3 809 808 818
3 819 809 818
3 810 809 819
3 820 810 819
3 811 810 820
3 821 811 820
3 812 811 821
3 822 814 823
3 813 814 822
3 824 813 822
3 815 813 824
3 825 815 824
3 816 815 825
3 826 816 825
3 817 816 826
3 827 817 826
3 818 817 827
3 828 818 827
3 819 818 828
3 829 819 828
3 820 819 829
3 830 820 829
3 821 820 830
3 831 823 832
3 822 823 831
3 833 822 831
3 824 822 833
3 834 824 833
3 825 824 834
3 835 825 834
3 826 825 835
3 836 826 835
3 827 826 836
3 837 827 836
3 828 827 837
3 838 828 837
3 829 828 838
3 839 829 838
3 830 829 839
3 840 832 841
3 831 832 840
3 842 831 840
3 833 831 842
3 843 833 842
3 834 833 843
3 844 834 843
3 835 834 844
3 845 835 844
3 836 835 845
3 846 836 845
3 837 836 846
3 847 837 846
3 838 837 847
3 848 838 847
3 839 838 848
3 849 841 850
3 840 841 849
3 851 840 849
3 842 840 851
3 852 842 851
3 843 842 852
3 853 843 852
3 844 843 853
3 854 844 853
3 845 844 854
3 855 845 854
3 846 845 855
3 856 846 855
3 847 846 856
3 857 847 856
3 848 847 857
3 858 850 859
3 849 850 858
3 860 849 858
3 851 849 860
3 861 851 860
3 852 851 861
3 862 852 861
3 853 852 862
3 863 853 862
3 854 853 863
3 864 854 863
3 855 854 864
3 865 855 864
3 856 855 865
3 866 856 865
3 857 856 866
3 867 859 868
3 858 859 867
3 869 858 867
3 860 858 869
3 870 860 869
3 861 860 870
3 871 861 870
3 862 861 871
3 872 862 871
3 863 862 872
3 873 863 872
3 864 863 873
3 874 864 873
3 865 864 874
3 875 865 874
3 866 865 875
3 876 868 877
3 867 868 876
3 878 867 876
3 869 867 878
3 879 869 878
3 870 869 879
3 880 870 879
3 871 870 880
3 881 871 880
3 872 871 881
3 882 872 881
3 873 872 882
3 883 873 882
3 874 873 883
3 884 874 883
3 875 874 884
3 885 886 887
3 886 885 888
3 889 887 886
3 887 889 890
3 890 889 891
3 892 893 894
3 893 895 894
3 886 895 893
3 896 886 888
3 895 886 896
3 897 893 892
3 898 899 900
3 898 901 899
3 902 903 904
3 902 905 903
3 902 906 905
3 898 906 902
3 906 898 900
3 907 908 909
3 908 907 910
3 902 910 907
3 910 902 911
3 911 902 904
3 886 912 889
3 912 913 889
3 893 914 886
3 914 912 886
3 915 916 917
3 915 918 916
3 893 918 915
3 918 893 897
3 915 914 893
3 919 920 921
3 919 922 920
3 922 919 923
3 915 923 919
3 923 915 924
3 924 915 917
3 925 926 927
3 925 928 926
3 928 925 929
3 919 929 925
3 929 919 921
3 898 930 901
3 931 930 898
3 931 932 930
3 932 931 933
3 925 933 931
3 933 925 927
3 934 898 902
3 934 931 898
3 935 902 907
3 935 934 902
3 912 936 913
3 936 937 913
3 938 912 914
3 938 936 912
3 939 914 915
3 939 938 914
3 940 915 919
3 940 939 915
3 941 919 925
3 941 940 919
3 942 925 931
3 942 941 925
3 943 931 934
3 943 942 931
3 944 934 935
3 944 943 934
3 945 937 936
3 945 946 937
3 947 936 938
3 947 945 936
3 948 938 939
3 948 947 938
3 949 939 940
3 949 948 939
3 950 940 941
3 950 949 940
3 951 941 942
3 951 950 941
3 952 942 943
3 952 951 942
3 953 943 944
3 953 952 943
3 954 946 945
3 954 955 946
3 956 945 947
3 956 954 945
3 957 947 948
3 957 956 947
3 958 948 949
3 958 957 948
3 959 949 950
3 959 958 949
3 960 950 951
3 960 959 950
3 961 951 952
3 961 960 951
3 962 952 953
3 962 961 952
3 963 955 954
3 963 964 955
3 965 954 956
3 965 963 954
3 966 956 957
3 966 965 956
3 967 957 958
3 967 966 957
3 968 958 959
3 968 967 958
3 969 959 960
3 969 968 959
3 970 960 961
3 970 969 960
3 971 961 962
3 971 970 961
3 972 964 963
3 972 973 964
3 974 963 965
3 974 972 963
3 975 965 966
3 975 974 965
3 976 966 967
3 976 975 966
3 977 967 968
3 977 976 967
3 978 968 969
3 978 977 968
3 979 969 970
3 979 978 969
3 980 970 971
3 980 979 970
3 981 973 972
3 981 982 973
3 983 972 974
3 983 981 972
3 984 974 975
3 984 983 974
3 985 975 976
3 985 984 975
3 986 976 977
3 986 985 976
3 987 977 978
3 987 986 977
3 988 978 979
3 988 987 978
3 989 979 980
3 989 988 979
3 990 982 981
3 991 982 990
3 992 981 983
3 990 981 992
3 993 983 984
3 992 983 993
3 994 984 985
3 993 984 994
3 995 985 986
3 994 985 995
3 996 986 987
3 995 986 996
3 997 987 988
3 996 987 997
3 998 988 989
3 997 988 998
3 999 991 990
3 1000 991 999
3 1001 990 992
3 999 990 1001
3 1002 992 993
3 1001 992 1002
3 1003 993 994
3 1002 993 1003
3 1004 994 995
3 1003 994 1004
3 1005 995 996
3 1004 995 1005
3 1006 996 997
3 1005 996 1006
3 1007 997 998
3 1006 997 1007
3 1008 1000 999
3 1009 1000 1008
3 1010 999 1001
3 1008 999 1010
3 1011 1001 1002
3 1010 1001 1011
3 1012 1002 1003
3 1011 1002 1012
3 1013 1003 1004
3 1012 1003 1013
3 1014 1004 1005
3 1013 1004 1014
3 1015 1005 1006
3 1014 1005 1015
3 1016 1006 1007
3 1015 1006 1016
3 1017 1009 1008
3 1018 1009 1017
3 1019 1008 1010
3 1017 1008 1019
3 1020 1010 1011
3 1019 1010 1020
3 1021 1011 1012
3 1020 1011 1021
3 1022 1012 1013
3 1021 1012 1022
3 1023 1013 1014
3 1022 1013 1023
3 1024 1014 1015
3 1023 1014 1024
3 1025 1015 1016
3 1024 1015 1025
3 1026 1018 1017
3 1027 1018 1026
3 1028 1017 1019
3 1026 1017 1028
3 1029 1019 1020
3 1028 1019 1029
3 1030 1020 1021
3 1029 1020 1030
3 1031 1021 1022
3 1030 1021 1031
3 1032 1022 1023
3 1031 1022 1032
3 1033 1023 1024
3 1032 1023 1033
3 1034 1024 1025
3 1033 1024 1034
3 1035 1027 1026
3 1036 1027 1035
3 1037 1026 1028
3 1035 1026 1037
3 1038 1028 1029
3 1037 1028 1038
3 1039 1029 1030
3 1038 1029 1039
3 1040 1030 1031
3 1039 1030 1040
3 1041 1031 1032
3 1040 1031 1041
3 1042 1032 1033
3 1041 1032 1042
3 1043 1033 1034
3 1042 1033 1043
3 1044 1036 1035
3 1045 1036 1044
3 1046 1035 1037
3 1044 1035 1046
3 1047 1037 1038
3 1046 1037 1047
3 1048 1038 1039
3 1047 1038 1048
3 1049 1039 1040
3 1048 1039 1049
3 1050 1040 1041
3 1049 1040 1050
3 1051 1041 1042
3 1050 1041 1051
3 1052 1042 1043
3 1051 1042 1052
3 1053 1045 1044
3 1054 1045 1053
3 1055 1044 1046
3 1053 1044 1055
3 1056 1046 1047
3 1055 1046 1056
3 1057 1047 1048
3 1056 1047 1057
3 1058 1048 1049
3 1057 1048 1058
3 1059 1049 1050
3 1058 1049 1059
3 1060 1050 1051
3 1059 1050 1060
3 1061 1051 1052
3 1060 1051 1061
3 891 708 711
3 708 891 889
3 907 734 732
3 734 907 909
3 889 735 708
3 735 889 913
3 935 732 758
3 732 935 907
3 913 759 735
3 759 913 937
3 944 758 767
3 758 944 935
3 768 937 946
3 937 768 759
3 953 767 776
3 767 953 944
3 777 946 955
3 946 777 768
3 962 776 785
3 776 962 953
3 964 777 955
3 777 964 786
3 794 962 785
3 962 794 971
3 973 786 964
3 786 973 795
3 803 971 794
3 971 803 980
3 982 795 973
3 795 982 804
3 812 980 803
3 980 812 989
3 991 804 982
3 804 991 814
3 821 989 812
3 989 821 998
3 1000 814 991
3 814 1000 823
3 830 998 821
3 998 830 1007
3 1009 823 1000
3 823 1009 832
3 839 1007 830
3 1007 839 1016
3 1018 832 1009
3 832 1018 841
3 848 1016 839
3 1016 848 1025
3 1027 841 1018
3 841 1027 850
3 857 1025 848
3 1025 857 1034
3 1036 850 1027
3 850 1036 859
3 866 1034 857
3 1034 866 1043
3 859 1045 868
3 1045 859 1036
3 875 1043 866
3 1043 875 1052
3 868 1054 877
3 1054 868 1045
3 884 1052 875
3 1052 884 1061
3 877 1053 876
3 1053 877 1054
3 876 1055 878
3 1055 876 1053
3 878 1056 879
3 1056 878 1055
3 879 1057 880
3 1057 879 1056
3 880 1058 881
3 1058 880 1057
3 881 1059 882
3 1059 881 1058
3 882 1060 883
3 1060 882 1059
3 883 1061 884
3 1061 883 1060
3 1062 38 1063
3 38 1062 39
3 212 1064 213
3 1064 212 1065
3 188 1066 187
3 1066 188 1067
3 1068 7 1069
3 7 1068 10
3 1070 745 1071
3 745 1070 747
3 1072 922 1073
3 922 1072 920
3 1074 1075 1076
3 1075 1074 1077
3 1078 1079 1080
3 1079 1078 1081
3 1082 561 1083
3 561 1082 563
3 1084 386 1085
3 386 1084 385
3 711 1086 891
3 1087 891 1086
3 891 1087 890
3 1086 711 1088
3 710 1088 711
3 1088 710 1089
3 1090 531 1091
3 531 1090 534
3 534 1090 541
3 1092 361 1093
3 1092 360 361
3 360 1092 359
3 214 1065 212
3 216 1065 214
3 1065 216 1094
3 1095 39 1062
3 39 1095 34
3 34 1095 36
3 190 197 191
3 197 190 1096
3 193 1096 190
3 225 1096 193
3 1096 225 1097
3 1098 17 1099
3 17 1098 16
3 15 16 1098
3 16 15 14
3 15 1098 48
3 1063 42 1100
3 42 1063 40
3 40 1063 37
3 37 1063 38
3 219 1101 217
3 215 1101 219
3 213 1101 215
3 1101 213 1064
3 568 573 569
3 1102 568 1103
3 568 1102 573
3 573 1102 571
3 1104 398 1105
3 1104 394 398
3 1104 392 394
3 392 1104 391
3 1106 1107 1108
3 1107 1106 1109
3 1110 1111 1112
3 1111 1110 1113
3 1114 557 1115
3 557 1114 555
3 555 1114 553
3 377 1116 376
3 379 1116 377
3 1116 379 1117
3 1118 1119 1120
3 1119 1118 1121
3 1122 1123 1124
3 1123 1122 1125
3 217 1126 220
3 1126 217 1101
3 1100 43 1127
3 43 1100 42
3 1128 917 916
3 1128 916 1129
3 917 1128 924
3 1130 743 1131
3 1130 740 743
3 740 1130 739
3 1132 1133 1134
3 1133 1132 1135
3 1136 1137 1138
3 1137 1136 1139
3 1140 1141 1142
3 1141 1140 1143
3 1120 1144 1145
3 1144 1120 1119
3 1146 564 563
3 1146 563 1082
3 564 1146 570
3 1085 388 1147
3 1085 387 388
3 387 1085 386
3 1129 918 1148
3 918 1129 916
3 1149 739 1130
3 739 1149 741
3 1077 1150 1075
3 1150 1077 1151
3 709 1089 710
3 713 1089 709
3 1089 713 1152
3 1153 890 1087
3 890 1153 887
3 887 1153 885
3 1147 393 1154
3 1147 389 393
3 389 1147 388
3 1155 570 1146
3 570 1155 567
3 567 1155 565
3 717 1156 715
3 719 1156 717
3 720 1156 719
3 741 1156 720
3 1156 741 1149
3 1148 895 1157
3 895 1148 894
3 894 1148 892
3 892 1148 897
3 897 1148 918
3 189 1158 210
3 186 1158 189
3 185 1158 186
3 187 1158 185
3 1158 187 1066
3 1069 33 1159
3 33 1069 12
3 12 1069 11
3 11 1069 9
3 9 1069 7
3 1160 1121 1118
3 1121 1160 1161
3 1162 1163 1164
3 1163 1162 1165
3 1166 911 1167
3 911 1166 910
3 910 1166 908
3 1168 733 1169
3 1168 730 733
3 730 1168 731
3 1165 1170 1163
3 1170 1165 1171
3 1139 1172 1137
3 1172 1139 1173
3 1173 1174 1172
3 1174 1173 1175
3 1176 551 1177
3 551 1176 552
3 373 1178 371
3 1178 373 1179
3 1180 1181 1182
3 1181 1180 1183
3 1107 355 1184
3 1107 356 355
3 1109 356 1107
3 356 1109 537
3 1185 537 1109
3 537 1185 535
3 1186 755 1187
3 755 1186 756
3 1188 932 1189
3 932 1188 930
3 210 1190 208
3 1190 210 1158
3 1159 31 1191
3 31 1159 33
3 180 1192 178
3 182 1192 180
3 1192 182 1193
3 1194 5 1195
3 5 1194 0
3 0 1194 3
3 1196 1134 1197
3 1134 1196 1132
3 1198 1199 1200
3 1199 1198 1201
3 1202 1081 1078
3 1081 1202 1203
3 1204 25 1205
3 25 1204 22
3 22 1204 24
3 201 1206 199
3 203 1206 201
3 1206 203 1207
3 715 1208 718
3 1208 715 1156
3 1157 896 1209
3 896 1157 895
3 1175 1210 1174
3 1210 1175 1211
3 574 579 575
3 1212 574 1213
3 574 1212 579
3 579 1212 578
3 1214 402 1215
3 1214 399 402
3 1214 397 399
3 397 1214 396
3 1169 734 1182
3 734 1169 733
3 909 1182 734
3 1180 908 1166
3 908 1180 909
3 909 1180 1182
3 1216 48 1098
3 48 1216 47
3 222 1097 225
3 1097 222 1217
3 1218 725 1219
3 725 1218 728
3 1220 906 1221
3 906 1220 905
3 1222 756 1186
3 1222 753 756
3 1222 751 753
3 751 1222 750
3 926 933 927
3 1189 926 1223
3 926 1189 933
3 933 1189 932
3 1213 571 1102
3 571 1213 574
3 1105 396 1214
3 396 1105 398
3 1099 19 1224
3 19 1099 17
3 197 1225 198
3 1225 197 1096
3 1209 885 1153
3 885 1209 888
3 888 1209 896
3 714 1152 713
3 718 1152 714
3 1152 718 1208
3 1086 1226 1227
3 1226 1086 1088
3 1228 3 1194
3 1229 4 1228
3 3 1228 4
3 183 1193 182
3 183 1229 1193
3 4 1229 183
3 1230 1076 1231
3 1076 1230 1074
3 1232 578 1212
3 578 1232 576
3 1215 401 1233
3 401 1215 402
3 1234 385 1084
3 1234 366 385
3 1234 365 366
3 1234 364 365
3 364 1234 362
3 1083 543 538
3 1083 540 542
3 540 1083 538
3 1083 542 1235
3 543 1083 561
3 1091 533 535
3 1091 535 1185
3 533 1091 531
3 1184 359 1092
3 1184 357 359
3 357 1184 355
3 1227 1113 1110
3 1113 1227 1226
3 1183 1164 1181
3 1164 1183 1162
3 1211 1142 1210
3 1142 1211 1140
3 1236 1064 1065
3 1237 1065 1094
3 1064 1236 1101
3 1238 1094 1190
3 1239 1101 1236
3 1240 1190 1158
3 1101 1239 1126
3 1241 1158 1066
3 1242 1126 1239
3 1243 1066 1067
3 1126 1242 1217
3 1244 1067 1192
3 1245 1217 1242
3 1246 1192 1193
3 1217 1245 1097
3 1247 1193 1229
3 1248 1097 1245
3 1249 1229 1123
3 1097 1248 1096
3 1250 1123 1125
3 1251 1096 1248
3 1252 1125 1135
3 1096 1251 1225
3 1253 1135 1132
3 1254 1225 1251
3 1255 1132 1196
3 1225 1254 1207
3 1256 1196 1151
3 1257 1207 1254
3 1258 1151 1077
3 1207 1257 1206
3 1259 1077 1074
3 1260 1206 1257
3 1261 1074 1230
3 1206 1260 1262
3 1263 1230 1171
3 1264 1262 1260
3 1265 1171 1165
3 1262 1264 1203
3 1266 1203 1264
3 1065 1237 1236
3 1094 1238 1237
3 1190 1240 1238
3 1158 1241 1240
3 1066 1243 1241
3 1267 1165 1162
3 1067 1244 1243
3 1192 1246 1244
3 1193 1247 1246
3 1229 1249 1247
3 1123 1250 1249
3 1125 1252 1250
3 1135 1253 1252
3 1132 1255 1253
3 1268 1162 1183
3 1196 1256 1255
3 1151 1258 1256
3 1077 1259 1258
3 1074 1261 1259
3 1230 1263 1261
3 1171 1265 1263
3 1269 1183 1180
3 1165 1267 1265
3 1162 1268 1267
3 1183 1269 1268
3 1180 1270 1269
3 1166 1270 1180
3 1166 1271 1270
3 1166 1272 1271
3 1167 1272 1166
3 1272 1167 1273
3 1220 1273 1167
3 1273 1220 1274
3 1221 1274 1220
3 1274 1221 1275
3 1188 1275 1221
3 1275 1188 1276
3 1189 1276 1188
3 1276 1189 1277
3 1223 1277 1189
3 1277 1223 1278
3 1279 1278 1223
3 1278 1279 1280
3 1072 1280 1279
3 1280 1072 1281
3 1073 1281 1072
3 1281 1073 1282
3 1128 1282 1073
3 1282 1128 1283
3 1129 1283 1128
3 1283 1129 1284
3 1148 1284 1129
3 1284 1148 1285
3 1157 1285 1148
3 1285 1157 1286
3 1209 1286 1157
3 1203 1266 1081
3 1287 1081 1266
3 1081 1287 1079
3 1288 1079 1287
3 1079 1288 1136
3 1289 1136 1288
3 1136 1289 1139
3 1290 1139 1289
3 1139 1290 1173
3 1291 1173 1290
3 1173 1291 1175
3 1292 1175 1291
3 1175 1292 1211
3 1293 1211 1292
3 1211 1293 1140
3 1294 1140 1293
3 1140 1294 1143
3 1295 1143 1294
3 1143 1295 1296
3 1297 1296 1295
3 1296 1297 1298
3 1299 1298 1297
3 1298 1299 1106
3 1300 1106 1299
3 1106 1300 1109
3 1301 1109 1300
3 1302 1109 1301
3 1302 1185 1109
3 1303 1185 1302
3 1091 1303 1304
3 1090 1304 1305
3 1235 1305 1306
3 1303 1091 1185
3 1083 1306 1307
3 1082 1307 1308
3 1146 1308 1309
3 1155 1309 1310
3 1103 1310 1311
3 1102 1311 1312
3 1304 1090 1091
3 1213 1312 1313
3 1212 1313 1314
3 1232 1314 1315
3 1177 1315 1316
3 1176 1316 1317
3 1115 1317 1318
3 1114 1318 1319
3 1320 1319 1321
3 1305 1235 1090
3 1200 1321 1322
3 1198 1322 1323
3 1324 1323 1325
3 1326 1325 1327
3 1328 1327 1329
3 1330 1329 1331
3 1286 1209 1332
3 1306 1083 1235
3 1153 1332 1209
3 1307 1082 1083
3 1332 1153 1333
3 1308 1146 1082
3 1087 1333 1153
3 1309 1155 1146
3 1333 1087 1334
3 1310 1103 1155
3 1086 1334 1087
3 1311 1102 1103
3 1334 1086 1335
3 1312 1213 1102
3 1227 1335 1086
3 1313 1212 1213
3 1335 1227 1336
3 1314 1232 1212
3 1110 1336 1227
3 1315 1177 1232
3 1336 1110 1337
3 1316 1176 1177
3 1112 1337 1110
3 1317 1115 1176
3 1337 1112 1338
3 1318 1114 1115
3 1160 1338 1112
3 1319 1320 1114
3 1338 1160 1339
3 1321 1200 1320
3 1118 1339 1160
3 1322 1198 1200
3 1339 1118 1340
3 1323 1324 1198
3 1120 1340 1118
3 1325 1326 1324
3 1340 1120 1331
3 1327 1328 1326
3 1145 1331 1120
3 1329 1330 1328
3 1331 1145 1330
3 1326 1341 1324
3 1341 1326 1342
3 224 1217 222
3 220 224 221
3 224 220 1217
3 1217 220 1126
3 1127 47 1216
3 47 1127 45
3 45 1127 44
3 44 1127 43
3 1145 1343 1330
3 1343 1145 1144
3 1235 541 1090
3 541 1235 542
3 1093 362 1234
3 362 1093 361
3 1344 1203 1202
3 1203 1344 1262
3 1171 1231 1170
3 1231 1171 1230
3 903 911 904
3 1167 905 1220
3 905 1167 903
3 903 1167 911
3 1219 731 1168
3 1219 729 731
3 1219 727 729
3 727 1219 725
3 1124 1229 1228
3 1229 1124 1123
3 1328 1342 1326
3 1342 1328 1345
3 1079 1138 1080
3 1138 1079 1136
3 1224 24 1204
3 24 1224 21
3 21 1224 20
3 20 1224 19
3 194 203 195
3 203 194 1207
3 198 1207 194
3 1207 198 1225
3 1298 1108 1346
3 1108 1298 1106
3 1143 1347 1141
3 1347 1143 1296
3 1324 1201 1198
3 1201 1324 1341
3 1177 576 1232
3 576 1177 547
3 547 1177 546
3 551 546 1177
3 546 551 544
3 367 1233 401
3 370 367 369
3 367 370 1233
3 371 1233 370
3 1233 371 1178
3 1151 1197 1150
3 1197 1151 1196
3 202 1344 26
3 1205 26 1344
3 26 1205 25
3 1344 202 1262
3 199 1262 202
3 1262 199 1206
3 1330 1345 1328
3 1345 1330 1343
3 1131 747 1070
3 1131 742 747
3 742 1131 743
3 1073 924 1128
3 924 1073 923
3 923 1073 922
3 1115 552 1176
3 552 1115 550
3 557 550 1115
3 550 557 548
3 374 1179 373
3 375 1179 374
3 376 1179 375
3 1179 376 1116
3 1133 1125 1122
3 1125 1133 1135
3 179 1067 188
3 178 1067 179
3 1067 178 1192
3 1195 10 1068
3 10 1195 6
3 6 1195 5
3 1296 1346 1347
3 1346 1296 1298
3 1112 1161 1160
3 1161 1112 1111
3 209 1094 216
3 208 1094 209
3 1094 208 1190
3 1191 36 1095
3 36 1191 32
3 32 1191 31
3 1200 1348 1320
3 1348 1200 1199
3 1320 553 1114
3 1348 556 1320
3 553 1320 556
3 380 1117 379
3 380 1348 1117
3 556 1348 380
3 1154 391 1104
3 391 1154 393
3 1103 565 1155
3 565 1103 568
3 1223 928 1279
3 928 1223 926
3 1349 750 1222
3 750 1349 752
3 899 906 900
3 1221 901 930
3 901 1221 899
3 1221 930 1188
3 899 1221 906
3 1187 728 1218
3 1187 724 728
3 1187 721 724
3 1187 722 721
3 722 1187 755
3 1071 752 1349
3 1071 748 752
3 1071 746 748
3 746 1071 745
3 920 929 921
3 1279 920 1072
3 920 1279 929
3 929 1279 928
3 1350 1063 1100
3 1351 1100 1127
3 1063 1350 1062
3 1352 1127 1216
3 1353 1062 1350
3 1354 1216 1098
3 1062 1353 1095
3 1355 1098 1099
3 1356 1095 1353
3 1357 1099 1224
3 1095 1356 1191
3 1358 1224 1204
3 1359 1191 1356
3 1360 1204 1205
3 1191 1359 1159
3 1361 1205 1344
3 1362 1159 1359
3 1363 1344 1202
3 1159 1362 1069
3 1364 1202 1078
3 1365 1069 1362
3 1366 1078 1080
3 1069 1365 1068
3 1367 1080 1138
3 1368 1068 1365
3 1369 1138 1137
3 1068 1368 1195
3 1370 1137 1172
3 1371 1195 1368
3 1372 1172 1174
3 1195 1371 1194
3 1373 1174 1210
3 1374 1194 1371
3 1375 1210 1142
3 1194 1374 1228
3 1376 1142 1141
3 1377 1228 1374
3 1378 1141 1347
3 1228 1377 1124
3 1379 1124 1377
3 1100 1351 1350
3 1127 1352 1351
3 1216 1354 1352
3 1098 1355 1354
3 1099 1357 1355
3 1380 1347 1346
3 1224 1358 1357
3 1204 1360 1358
3 1205 1361 1360
3 1344 1363 1361
3 1202 1364 1363
3 1078 1366 1364
3 1080 1367 1366
3 1138 1369 1367
3 1381 1346 1108
3 1137 1370 1369
3 1172 1372 1370
3 1174 1373 1372
3 1210 1375 1373
3 1142 1376 1375
3 1141 1378 1376
3 1382 1108 1107
3 1347 1380 1378
3 1346 1381 1380
3 1108 1382 1381
3 1107 1383 1382
3 1184 1383 1107
3 1184 1384 1383
3 1184 1385 1384
3 1092 1385 1184
3 1385 1092 1386
3 1093 1386 1092
3 1386 1093 1387
3 1234 1387 1093
3 1387 1234 1388
3 1084 1388 1234
3 1388 1084 1389
3 1085 1389 1084
3 1389 1085 1390
3 1147 1390 1085
3 1390 1147 1391
3 1154 1391 1147
3 1391 1154 1392
3 1104 1392 1154
3 1392 1104 1393
3 1105 1393 1104
3 1393 1105 1394
3 1214 1394 1105
3 1394 1214 1395
3 1215 1395 1214
3 1395 1215 1396
3 1233 1396 1215
3 1396 1233 1397
3 1178 1397 1233
3 1397 1178 1398
3 1179 1398 1178
3 1124 1379 1122
3 1399 1122 1379
3 1122 1399 1133
3 1400 1133 1399
3 1133 1400 1134
3 1401 1134 1400
3 1134 1401 1197
3 1402 1197 1401
3 1197 1402 1150
3 1403 1150 1402
3 1150 1403 1075
3 1404 1075 1403
3 1075 1404 1076
3 1405 1076 1404
3 1076 1405 1231
3 1406 1231 1405
3 1231 1406 1170
3 1407 1170 1406
3 1170 1407 1163
3 1408 1163 1407
3 1163 1408 1164
3 1409 1164 1408
3 1164 1409 1181
3 1410 1181 1409
3 1181 1410 1182
3 1411 1182 1410
3 1412 1182 1411
3 1412 1169 1182
3 1413 1169 1412
3 1168 1413 1414
3 1219 1414 1415
3 1218 1415 1416
3 1413 1168 1169
3 1187 1416 1417
3 1186 1417 1418
3 1222 1418 1419
3 1349 1419 1420
3 1071 1420 1421
3 1070 1421 1422
3 1414 1219 1168
3 1131 1422 1423
3 1130 1423 1424
3 1149 1424 1425
3 1156 1425 1426
3 1208 1426 1427
3 1152 1427 1428
3 1089 1428 1429
3 1088 1429 1430
3 1415 1218 1219
3 1226 1430 1431
3 1113 1431 1432
3 1111 1432 1433
3 1161 1433 1434
3 1121 1434 1435
3 1119 1435 1436
3 1398 1179 1437
3 1416 1187 1218
3 1116 1437 1179
3 1417 1186 1187
3 1437 1116 1438
3 1418 1222 1186
3 1117 1438 1116
3 1419 1349 1222
3 1438 1117 1439
3 1420 1071 1349
3 1348 1439 1117
3 1421 1070 1071
3 1439 1348 1440
3 1422 1131 1070
3 1199 1440 1348
3 1423 1130 1131
3 1440 1199 1441
3 1424 1149 1130
3 1201 1441 1199
3 1425 1156 1149
3 1441 1201 1442
3 1426 1208 1156
3 1341 1442 1201
3 1427 1152 1208
3 1442 1341 1443
3 1428 1089 1152
3 1342 1443 1341
3 1429 1088 1089
3 1443 1342 1444
3 1430 1226 1088
3 1345 1444 1342
3 1431 1113 1226
3 1444 1345 1445
3 1432 1111 1113
3 1343 1445 1345
3 1433 1161 1111
3 1445 1343 1436
3 1434 1121 1161
3 1144 1436 1343
3 1435 1119 1121
3 1436 1144 1119
3 1239 1352 1242
3 1352 1239 1351
3 1236 1351 1239
3 1351 1236 1350
3 1307 1388 1389
3 1388 1307 1306
3 1427 1333 1428
3 1333 1427 1332
3 1436 1329 1445
3 1329 1436 1331
3 1313 1394 1395
3 1394 1313 1312
3 1299 1380 1381
3 1380 1299 1297
3 1292 1372 1373
3 1372 1292 1291
3 1254 1360 1257
3 1360 1254 1358
3 1261 1406 1405
3 1406 1261 1263
3 1259 1405 1404
3 1405 1259 1261
3 1268 1410 1409
3 1410 1268 1269
3 1267 1409 1408
3 1409 1267 1268
3 1245 1355 1248
3 1355 1245 1354
3 1308 1389 1390
3 1389 1308 1307
3 1311 1392 1393
3 1392 1311 1310
3 1309 1390 1391
3 1390 1309 1308
3 1437 1316 1398
3 1316 1437 1317
3 1291 1370 1372
3 1370 1291 1290
3 1430 1336 1431
3 1336 1430 1335
3 1253 1401 1400
3 1401 1253 1255
3 1294 1375 1376
3 1375 1294 1293
3 1243 1362 1241
3 1362 1243 1365
3 1244 1365 1243
3 1365 1244 1368
3 1258 1404 1403
3 1404 1258 1259
3 1445 1327 1444
3 1327 1445 1329
3 1270 1412 1411
3 1412 1270 1271
3 1398 1315 1397
3 1315 1398 1316
3 1281 1422 1421
3 1422 1281 1282
3 1441 1321 1440
3 1321 1441 1322
3 1264 1364 1266
3 1364 1264 1363
3 1276 1418 1417
3 1418 1276 1277
3 1260 1363 1264
3 1363 1260 1361
3 1305 1386 1387
3 1386 1305 1304
3 1266 1366 1287
3 1366 1266 1364
3 1435 1331 1436
3 1331 1435 1340
3 1247 1371 1246
3 1371 1247 1374
3 1397 1314 1396
3 1314 1397 1315
3 1237 1350 1236
3 1350 1237 1353
3 1248 1357 1251
3 1357 1248 1355
3 1287 1367 1288
3 1367 1287 1366
3 1301 1382 1383
3 1382 1301 1300
3 1312 1393 1394
3 1393 1312 1311
3 1272 1414 1413
3 1414 1272 1273
3 1252 1379 1250
3 1379 1252 1399
3 1257 1361 1260
3 1361 1257 1360
3 1434 1340 1435
3 1340 1434 1339
3 1433 1339 1434
3 1339 1433 1338
3 1256 1403 1402
3 1403 1256 1258
3 1250 1377 1249
3 1377 1250 1379
3 1253 1399 1252
3 1399 1253 1400
3 1300 1381 1382
3 1381 1300 1299
3 1263 1407 1406
3 1407 1263 1265
3 1306 1387 1388
3 1387 1306 1305
3 1273 1415 1414
3 1415 1273 1274
3 1431 1337 1432
3 1337 1431 1336
3 1426 1332 1427
3 1332 1426 1286
3 1442 1322 1441
3 1322 1442 1323
3 1269 1411 1410
3 1411 1269 1270
3 1289 1367 1369
3 1367 1289 1288
3 1240 1356 1238
3 1356 1240 1359
3 1271 1413 1412
3 1413 1271 1272
3 1241 1359 1240
3 1359 1241 1362
3 1278 1420 1419
3 1420 1278 1280
3 1238 1353 1237
3 1353 1238 1356
3 1302 1383 1384
3 1383 1302 1301
3 1304 1385 1386
3 1385 1304 1303
3 1290 1369 1370
3 1369 1290 1289
3 1280 1421 1420
3 1421 1280 1281
3 1444 1325 1443
3 1325 1444 1327
3 1242 1354 1245
3 1354 1242 1352
3 1439 1318 1438
3 1318 1439 1319
3 1440 1319 1439
3 1319 1440 1321
3 1293 1373 1375
3 1373 1293 1292
3 1429 1335 1430
3 1335 1429 1334
3 1277 1419 1418
3 1419 1277 1278
3 1314 1395 1396
3 1395 1314 1313
3 1275 1417 1416
3 1417 1275 1276
3 1310 1391 1392
3 1391 1310 1309
3 1438 1317 1437
3 1317 1438 1318
3 1295 1376 1378
3 1376 1295 1294
3 1303 1384 1385
3 1384 1303 1302
3 1424 1285 1425
3 1285 1424 1284
3 1265 1408 1407
3 1408 1265 1267
3 1425 1286 1426
3 1286 1425 1285
3 1274 1416 1415
3 1416 1274 1275
3 1251 1358 1254
3 1358 1251 1357
3 1282 1423 1422
3 1423 1282 1283
3 1249 1374 1247
3 1374 1249 1377
3 1432 1338 1433
3 1338 1432 1337
3 1443 1323 1442
3 1323 1443 1325
3 1283 1424 1423
3 1424 1283 1284
3 1297 1378 1380
3 1378 1297 1295
3 1428 1334 1429
3 1334 1428 1333
3 1246 1368 1244
3 1368 1246 1371
3 1255 1402 1401
3 1402 1255 1256
