OFF 1470 2940 0
9.06698 -7.85744 -5.13016 
11.5817 -9.35172 -6.00094 
11.5769 -7.00788 -4.13872 
9.03296 -7.89889 -5.16739 
9.97763 -6.66684 -4.08107 
10.1449 -6.39784 -3.84906 
9.52024 -7.30514 -4.63947 
10.7625 -5.30746 -2.9081 
11.5721 -4.66404 -2.29354 
10.9083 -4.9856 -2.6352 
10.3923 -6 -3.5028 
11.0866 -4.5922 -2.30356 
11.1086 -4.53359 -2.25476 
11.3632 -3.85727 -1.69708 
11.569 -3.17863 -1.14413 
11.5529 4.71134 4.70739 
11.3632 3.85727 4.07813 
11.5559 3.22178 3.6354 
11.1888 4.32042 4.3982 
11.0939 4.57267 4.59429 
10.7625 5.30746 5.10233 
11.5481 7.05518 6.36269 
11.0866 4.5922 4.60784 
10.508 5.7836 5.43022 
10.3923 6 5.60607 
10.1319 6.41875 5.9485 
9.76647 6.96153 6.33576 
11.5433 9.39902 8.00094 
9.97763 6.66684 6.12523 
9.52024 7.30514 6.63736 
9.03246 7.89949 7.16739 
14.1911 -8.02136 -4.58453 
14.2133 -10.7337 -6.73893 
14.1689 -5.30905 -2.46357 
14.1467 -2.59675 -0.404403 
11.5911 -3.10583 -1.0853 
11.7692 -2.34185 -0.473965 
11.8112 -2.08782 -0.283928 
14.1245 0.115558 1.57403 
11.7694 -2.34108 -0.473387 
11.9987 0.0392976 1.34055 
12 0 1.31093 
11.9743 -0.784837 0.715145 
11.8973 -1.56631 0.117663 
11.984 0.489035 1.65317 
14.1023 2.82786 3.46506 
11.9743 0.784837 1.87087 
11.8973 1.56631 2.44389 
11.7694 2.34108 3.00986 
11.7549 2.40318 3.05505 
11.7166 2.56743 3.16269 
14.0801 5.54017 5.27536 
11.5911 3.10583 3.55156 
14.058 8.25247 7.02387 
14.0358 10.9648 8.73893 
16.8536 -8.86996 -4.93063 
16.9099 -11.929 -7.33272 
16.7973 -5.81092 -2.57709 
16.741 -2.75188 -0.31326 
16.6847 0.307162 1.83335 
16.6284 3.3662 3.8531 
16.572 6.42525 5.75563 
16.5157 9.48429 7.56845 
16.4594 12.5433 9.33272 
19.5704 -9.47349 -5.1588 
19.6807 -12.8413 -7.75293 
19.4602 -6.10571 -2.62646 
19.3499 -2.73794 -0.20831 
19.2397 0.629842 2.06066 
19.1294 3.99762 4.16815 
19.0192 7.3654 6.12646 
18.9089 10.7332 7.9706 
18.7987 14.101 9.75293 
22.3402 -9.75418 -5.25748 
22.5257 -13.3772 -7.97968 
22.1548 -6.13117 -2.60793 
21.9694 -2.50816 -0.0926533 
21.784 1.11485 2.2472 
21.5986 4.73785 4.39719 
21.4132 8.36086 6.37175 
21.2277 11.9839 8.21204 
21.0423 15.6069 9.97968 
25.1522 -9.639 -5.22201 
25.4333 -13.4497 -8.00312 
24.8711 -5.82829 -2.52164 
24.59 -2.01758 0.0295496 
24.309 1.79314 2.38582 
24.0279 5.60385 4.53111 
23.7468 9.41456 6.48148 
23.4657 13.2253 8.28267 
23.1846 17.036 10.0031 
27.9846 -9.0621 -5.05459 
28.3787 -12.9812 -7.82345 
27.5905 -5.14301 -2.37144 
27.1964 -1.22392 0.153328 
26.8023 2.69516 2.47118 
26.4082 6.61425 4.56505 
26.0141 10.5333 6.452 
25.6201 14.4524 8.18058 
25.226 18.3715 9.82345 
30.8035 -7.96729 -4.76384 
31.3221 -11.9066 -7.45049 
30.2849 -4.02802 -2.16458 
29.7662 -0.0887489 0.273197 
29.2476 3.85052 2.5 
28.729 7.78979 4.49844 
28.2104 11.7291 6.2859 
27.6918 15.6683 7.91189 
27.1732 19.6076 9.45049 
33.5627 -6.31056 -4.36408 
34.2091 -10.1766 -6.90276 
32.9163 -2.44453 -1.9111 
32.2699 1.4215 0.3835 
31.6235 5.28753 2.47118 
30.9771 9.15356 4.33488 
30.3307 13.0196 5.99166 
29.6843 16.8856 7.49007 
29.0379 20.7516 8.90276 
36.2047 -4.06236 -3.87435 
36.9719 -7.76068 -6.20624 
35.4376 -0.364035 -1.6232 
34.6704 3.33428 0.47877 
33.9033 7.03261 2.38582 
33.1361 10.7309 4.08189 
32.369 14.4292 5.58304 
31.6018 18.1276 6.93501 
30.8347 21.8259 8.20624 
38.6617 -1.2096 -3.31725 
39.5308 -4.64933 -5.39271 
37.7927 2.23013 -1.31445 
36.9236 5.66986 0.554088 
36.0545 9.10959 2.2472 
35.1854 12.5493 3.75044 
34.3163 15.989 5.07826 
33.4472 19.4288 6.27182 
32.5781 22.8685 7.39271 
40.8583 2.24275 -2.71761 
41.7983 -0.85594 -4.498 
39.9183 5.34144 -0.999002 
38.9784 8.44013 0.605421 
38.0384 11.5388 2.06066 
37.0984 14.6375 3.35442 
36.1584 17.7362 4.499 
35.2184 20.8349 5.5294 
34.2785 23.9336 6.498 
42.7142 6.27089 -2.10107 
43.6824 3.58248 -3.55997 
41.7461 8.95929 -0.690713 
40.778 11.6477 0.629927 
39.8098 14.3361 1.83335 
38.8417 17.0245 2.90991 
37.8736 19.7129 3.86926 
36.9054 22.4013 4.73889 
35.9373 25.0897 5.55997 
44.1482 10.832 -1.49273 
45.0918 8.60555 -2.61653 
43.2045 13.0585 -0.402369 
42.2609 15.285 0.626196 
41.3172 17.5115 1.57403 
40.3736 19.738 2.43446 
39.4299 21.9645 3.21416 
38.4862 24.191 3.93207 
37.5426 26.4175 4.61653 
45.941 14.1311 -1.70376 
45.0813 15.8654 -0.915833 
44.2217 17.5996 -0.144956 
43.362 19.3338 0.594419 
42.5024 21.068 1.29263 
41.6428 22.8023 1.9463 
40.7831 24.5365 2.5588 
39.9235 26.2707 3.13981 
39.0638 28.005 3.70376 
46.1544 20.0582 -0.854101 
45.4411 21.2936 -0.390576 
44.7279 22.5291 0.0729485 
44.0146 23.7645 0.536474 
43.3013 25 1 
42.588 26.2355 1.46352 
41.8747 27.4709 1.92705 
41.1614 28.7064 2.39058 
40.4481 29.9418 2.8541 
11.5769 -7.00788 -6.13872 
9.97763 -6.66684 -6.08107 
10.1449 -6.39784 -5.84906 
9.52024 -7.30514 -6.63947 
9.06698 -7.85744 -7.13016 
11.5817 -9.35172 -8.00094 
9.03296 -7.89889 -7.16739 
11.5721 -4.66404 -4.29354 
11.0866 -4.5922 -4.30356 
11.1086 -4.53359 -4.25476 
10.9083 -4.9856 -4.6352 
10.7625 -5.30746 -4.9081 
10.3923 -6 -5.5028 
11.3632 -3.85727 -3.69708 
11.569 -3.17863 -3.14413 
11.1888 4.32042 2.3982 
11.0939 4.57267 2.59429 
11.5529 4.71134 2.70739 
11.3632 3.85727 2.07813 
11.5559 3.22178 1.6354 
10.3923 6 3.60607 
11.5481 7.05518 4.36269 
10.508 5.7836 3.43022 
10.1319 6.41875 3.9485 
11.0866 4.5922 2.60784 
10.7625 5.30746 3.10233 
9.52024 7.30514 4.63736 
11.5433 9.39902 6.00094 
9.76647 6.96153 4.33576 
9.03246 7.89949 5.16739 
9.97763 6.66684 4.12523 
14.1911 -8.02136 -6.58453 
14.2133 -10.7337 -8.73893 
14.1689 -5.30905 -4.46357 
14.1467 -2.59675 -2.4044 
11.5911 -3.10583 -3.0853 
11.7692 -2.34185 -2.47396 
14.1245 0.115558 -0.425975 
11.9743 -0.784837 -1.28485 
12 0 -0.689071 
11.8973 -1.56631 -1.88234 
11.8112 -2.08782 -2.28393 
11.9987 0.0392976 -0.659452 
11.7694 -2.34108 -2.47339 
11.9743 0.784837 -0.129129 
14.1023 2.82786 1.46506 
11.984 0.489035 -0.346829 
11.8973 1.56631 0.443891 
11.7694 2.34108 1.00986 
11.7549 2.40318 1.05505 
11.5911 3.10583 1.55156 
14.0801 5.54017 3.27536 
11.7166 2.56743 1.16269 
14.058 8.25247 5.02387 
14.0358 10.9648 6.73893 
16.8536 -8.86996 -6.93063 
16.9099 -11.929 -9.33272 
16.7973 -5.81092 -4.57709 
16.741 -2.75188 -2.31326 
16.6847 0.307162 -0.166644 
16.6284 3.3662 1.8531 
16.572 6.42525 3.75563 
16.5157 9.48429 5.56845 
16.4594 12.5433 7.33272 
19.5704 -9.47349 -7.1588 
19.6807 -12.8413 -9.75293 
19.4602 -6.10571 -4.62646 
19.3499 -2.73794 -2.20831 
19.2397 0.629842 0.0606594 
19.1294 3.99762 2.16815 
19.0192 7.3654 4.12646 
18.9089 10.7332 5.9706 
18.7987 14.101 7.75293 
22.3402 -9.75418 -7.25748 
22.5257 -13.3772 -9.97968 
22.1548 -6.13117 -4.60793 
21.9694 -2.50816 -2.09265 
21.784 1.11485 0.247204 
21.5986 4.73785 2.39719 
21.4132 8.36086 4.37175 
21.2277 11.9839 6.21204 
21.0423 15.6069 7.97968 
25.1522 -9.639 -7.22201 
25.4333 -13.4497 -10.0031 
24.8711 -5.82829 -4.52164 
24.59 -2.01758 -1.97045 
24.309 1.79314 0.385818 
24.0279 5.60385 2.53111 
23.7468 9.41456 4.48148 
23.4657 13.2253 6.28267 
23.1846 17.036 8.00312 
27.9846 -9.0621 -7.05459 
28.3787 -12.9812 -9.82345 
27.5905 -5.14301 -4.37144 
27.1964 -1.22392 -1.84667 
26.8023 2.69516 0.471177 
26.4082 6.61425 2.56505 
26.0141 10.5333 4.452 
25.6201 14.4524 6.18058 
25.226 18.3715 7.82345 
30.8035 -7.96729 -6.76384 
31.3221 -11.9066 -9.45049 
30.2849 -4.02802 -4.16458 
29.7662 -0.0887489 -1.7268 
29.2476 3.85052 0.5 
28.729 7.78979 2.49844 
28.2104 11.7291 4.2859 
27.6918 15.6683 5.91189 
27.1732 19.6076 7.45049 
33.5627 -6.31056 -6.36408 
34.2091 -10.1766 -8.90276 
32.9163 -2.44453 -3.9111 
32.2699 1.4215 -1.6165 
31.6235 5.28753 0.471177 
30.9771 9.15356 2.33488 
30.3307 13.0196 3.99166 
29.6843 16.8856 5.49007 
29.0379 20.7516 6.90276 
36.2047 -4.06236 -5.87435 
36.9719 -7.76068 -8.20624 
35.4376 -0.364035 -3.6232 
34.6704 3.33428 -1.52123 
33.9033 7.03261 0.385818 
33.1361 10.7309 2.08189 
32.369 14.4292 3.58304 
31.6018 18.1276 4.93501 
30.8347 21.8259 6.20624 
38.6617 -1.2096 -5.31725 
39.5308 -4.64933 -7.39271 
37.7927 2.23013 -3.31445 
36.9236 5.66986 -1.44591 
36.0545 9.10959 0.247204 
35.1854 12.5493 1.75044 
34.3163 15.989 3.07826 
33.4472 19.4288 4.27182 
32.5781 22.8685 5.39271 
40.8583 2.24275 -4.71761 
41.7983 -0.85594 -6.498 
39.9183 5.34144 -2.999 
38.9784 8.44013 -1.39458 
38.0384 11.5388 0.0606594 
37.0984 14.6375 1.35442 
36.1584 17.7362 2.499 
35.2184 20.8349 3.5294 
34.2785 23.9336 4.498 
42.7142 6.27089 -4.10107 
43.6824 3.58248 -5.55997 
41.7461 8.95929 -2.69071 
40.778 11.6477 -1.37007 
39.8098 14.3361 -0.166644 
38.8417 17.0245 0.909912 
37.8736 19.7129 1.86926 
36.9054 22.4013 2.73889 
35.9373 25.0897 3.55997 
44.1482 10.832 -3.49273 
45.0918 8.60555 -4.61653 
43.2045 13.0585 -2.40237 
42.2609 15.285 -1.3738 
41.3172 17.5115 -0.425975 
40.3736 19.738 0.434464 
39.4299 21.9645 1.21416 
38.4862 24.191 1.93207 
37.5426 26.4175 2.61653 
45.0813 15.8654 -2.91583 
45.941 14.1311 -3.70376 
44.2217 17.5996 -2.14496 
43.362 19.3338 -1.40558 
42.5024 21.068 -0.707364 
41.6428 22.8023 -0.0536995 
40.7831 24.5365 0.558805 
39.9235 26.2707 1.13981 
39.0638 28.005 1.70376 
45.4411 21.2936 -2.39058 
46.1544 20.0582 -2.8541 
44.7279 22.5291 -1.92705 
44.0146 23.7645 -1.46352 
43.3013 25 -1 
42.588 26.2355 -0.536474 
41.8747 27.4709 -0.0729485 
41.1614 28.7064 0.390576 
40.4481 29.9418 0.854101 
2.308 14.7059 -6.00094 
2.27125 11.781 -5.13016 
2.32416 11.7722 -5.16739 
0.280574 13.5298 -4.13872 
0.784837 11.9743 -4.08107 
0.468235 11.9847 -3.84906 
1.56631 11.8973 -4.63947 
0 12 -3.5028 
-0.784837 11.9743 -2.9081 
-1.74686 12.3537 -2.29354 
-1.1365 11.9397 -2.6352 
-1.56631 11.8973 -2.30356 
-1.62811 11.8871 -2.25476 
-2.34108 11.7694 -1.69708 
-3.03174 11.6084 -1.14413 
-9.02208 7.91215 4.07813 
-9.85658 7.64943 4.70739 
-9.33602 7.52961 4.3982 
-8.56812 8.39684 3.63541 
-9.507 7.32127 4.59429 
-9.52024 7.30514 4.60784 
-9.97763 6.66684 5.10233 
-11.884 6.47335 6.36269 
-10.2627 6.20837 5.43022 
-10.3923 6 5.60607 
-10.6248 5.56511 5.9485 
-10.7625 5.30746 6.12523 
-10.9121 4.97724 6.33576 
-13.9114 5.29728 8.00094 
-11.0866 4.5922 6.63736 
-11.3574 3.87259 7.16739 
2.18898 17.6759 -6.73893 
-0.148851 16.3005 -4.58453 
-2.48668 14.9252 -2.46357 
-4.82451 13.5498 -0.404403 
-3.10583 11.5911 -1.0853 
-3.85652 11.3634 -0.473965 
-3.85727 11.3632 -0.473387 
-4.09752 11.2727 -0.283928 
-7.16234 12.1744 1.57403 
-6 10.3923 1.31093 
-6.03339 10.3715 1.34055 
-5.30746 10.7625 0.715144 
-4.5922 11.0866 0.117662 
-6.41551 10.1339 1.65317 
-9.50017 10.799 3.46506 
-7.91215 9.02208 3.00986 
-7.95869 8.97849 3.05505 
-7.30514 9.52024 2.44389 
-6.66684 9.97763 1.87087 
-8.08179 8.8632 3.16269 
-11.838 9.42368 5.27536 
-8.48528 8.48528 3.55156 
-14.1758 8.04831 7.02387 
-16.5137 6.67294 8.73893 
1.87585 20.6089 -7.33272 
-0.745197 19.0306 -4.93063 
-3.36625 17.4524 -2.57709 
-5.9873 15.8741 -0.31326 
-8.60835 14.2958 1.83335 
-11.2294 12.7175 3.8531 
-13.8504 11.1392 5.75563 
-16.4715 9.56089 7.56845 
-19.0925 7.9826 9.33272 
1.28052 23.4646 -7.75293 
-1.58093 21.6852 -5.1588 
-4.44239 19.9059 -2.62646 
-7.30385 18.1265 -0.20831 
-10.1653 16.3471 2.06066 
-13.0268 14.5678 4.16815 
-15.8882 12.7884 6.12646 
-18.7497 11.009 7.9706 
-21.6111 9.22967 9.75293 
0.32216 26.1964 -7.97968 
-2.72275 24.2243 -5.25748 
-5.76766 22.2522 -2.60793 
-8.81257 20.2801 -0.0926533 
-11.8575 18.3081 2.2472 
-14.9024 16.336 4.39719 
-17.9473 14.3639 6.37175 
-20.9922 12.3918 8.21204 
-24.0371 10.4197 9.97968 
-1.06887 28.7508 -8.00312 
-4.2285 26.602 -5.22201 
-7.38813 24.4532 -2.52164 
-10.5478 22.3044 0.0295496 
-13.7074 20.1556 2.38582 
-16.867 18.0068 4.53111 
-20.0266 15.858 6.48148 
-23.1863 13.7092 8.28267 
-26.3459 11.5604 10.0031 
-2.94731 31.0673 -7.82345 
-6.14429 28.7664 -5.05459 
-9.34128 26.4656 -2.37144 
-12.5383 24.1648 0.153328 
-15.7352 21.8639 2.47118 
-18.9322 19.5631 4.56505 
-22.1292 17.2622 6.452 
-25.3262 14.9614 8.18058 
-28.5232 12.6606 9.82345 
-5.34965 33.079 -7.45049 
-8.50185 30.6602 -4.76384 
-11.6541 28.2415 -2.16458 
-14.8063 25.8227 0.273197 
-17.9585 23.4039 2.5 
-21.1107 20.9852 4.49844 
-24.2629 18.5664 6.2859 
-27.4151 16.1476 7.91189 
-30.5673 13.7288 9.45049 
-8.29138 34.7143 -6.90276 
-11.3163 32.2215 -4.36408 
-14.3411 29.7286 -1.9111 
-17.366 27.2358 0.3835 
-20.3909 24.743 2.47118 
-23.4158 22.2502 4.33488 
-26.4406 19.7573 5.99166 
-29.4655 17.2645 7.49007 
-32.4904 14.7717 8.90276 
-11.765 35.8989 -6.20624 
-14.5843 33.3854 -3.87435 
-17.4035 30.8719 -1.6232 
-20.2228 28.3583 0.47877 
-23.0421 25.8448 2.38582 
-25.8613 23.3313 4.08189 
-28.6806 20.8177 5.58304 
-31.4999 18.3042 6.93501 
-34.3191 15.7907 8.20624 
-15.739 36.5594 -5.39271 
-18.2833 34.0869 -3.31725 
-20.8277 31.6143 -1.31445 
-23.372 29.1418 0.554088 
-25.9164 26.6693 2.2472 
-28.4607 24.1968 3.75044 
-31.0051 21.7243 5.07826 
-33.5494 19.2517 6.27182 
-36.0938 16.7792 7.39271 
-20.1579 36.6263 -4.498 
-22.3714 34.263 -2.71761 
-24.585 31.8996 -0.999002 
-26.7985 29.5362 0.605421 
-29.0121 27.1728 2.06066 
-31.2257 24.8094 3.35442 
-33.4392 22.446 4.499 
-35.6528 20.0826 5.5294 
-37.8663 17.7192 6.498 
-24.9437 36.0388 -3.55997 
-26.7879 33.8562 -2.10107 
-28.632 31.6735 -0.690713 
-30.4762 29.4909 0.629927 
-32.3204 27.3083 1.83335 
-34.1645 25.1257 2.90991 
-36.0087 22.943 3.86926 
-37.8528 20.7604 4.73889 
-39.697 18.5778 5.55997 
-29.9985 34.7479 -2.61653 
-31.4549 32.8174 -1.49273 
-32.9113 30.8869 -0.402369 
-34.3677 28.9565 0.626196 
-35.824 27.026 1.57403 
-37.2804 25.0955 2.43446 
-38.7368 23.165 3.21416 
-40.1931 21.2346 3.93207 
-41.6495 19.3041 4.61653 
-35.2084 32.7205 -1.70376 
-36.2805 31.1089 -0.915833 
-37.3525 29.4973 -0.144956 
-38.4246 27.8857 0.594419 
-39.4967 26.2741 1.29263 
-40.5687 24.6625 1.9463 
-41.6408 23.051 2.5588 
-42.7129 21.4394 3.13981 
-43.7849 19.8278 3.70376 
-40.4481 29.9418 -0.854101 
-41.1614 28.7064 -0.390576 
-41.8747 27.4709 0.0729485 
-42.588 26.2355 0.536474 
-43.3013 25 1 
-44.0146 23.7645 1.46352 
-44.7279 22.5291 1.92705 
-45.4411 21.2936 2.39058 
-46.1544 20.0582 2.8541 
1.56631 11.8973 -6.63947 
0.280574 13.5298 -6.13872 
2.27125 11.781 -7.13016 
0.784837 11.9743 -6.08107 
0.468235 11.9847 -5.84906 
2.308 14.7059 -8.00094 
2.32416 11.7722 -7.16739 
-1.56631 11.8973 -4.30356 
-1.74686 12.3537 -4.29354 
-1.1365 11.9397 -4.6352 
-1.62811 11.8871 -4.25476 
0 12 -5.5028 
-0.784837 11.9743 -4.9081 
-2.34108 11.7694 -3.69708 
-3.03174 11.6084 -3.14413 
-9.507 7.32127 2.59429 
-9.85658 7.64943 2.70739 
-9.33602 7.52961 2.3982 
-9.02208 7.91215 2.07813 
-8.56812 8.39684 1.63541 
-10.3923 6 3.60607 
-11.884 6.47335 4.36269 
-10.2627 6.20837 3.43022 
-10.6248 5.56511 3.9485 
-9.52024 7.30514 2.60784 
-9.97763 6.66684 3.10233 
-11.0866 4.5922 4.63736 
-13.9114 5.29728 6.00094 
-10.9121 4.97724 4.33576 
-11.3574 3.87259 5.16739 
-10.7625 5.30746 4.12523 
-0.148851 16.3005 -6.58453 
2.18898 17.6759 -8.73893 
-2.48668 14.9252 -4.46357 
-4.82451 13.5498 -2.4044 
-3.10583 11.5911 -3.0853 
-3.85652 11.3634 -2.47396 
-4.5922 11.0866 -1.88234 
-7.16234 12.1744 -0.425975 
-4.09752 11.2727 -2.28393 
-5.30746 10.7625 -1.28486 
-6 10.3923 -0.689071 
-6.03339 10.3715 -0.659452 
-3.85727 11.3632 -2.47339 
-6.66684 9.97763 -0.129128 
-9.50017 10.799 1.46506 
-6.41551 10.1339 -0.346829 
-7.30514 9.52024 0.443891 
-7.91215 9.02208 1.00986 
-7.95869 8.97849 1.05505 
-11.838 9.42368 3.27536 
-8.48528 8.48528 1.55156 
-8.08179 8.8632 1.16269 
-14.1758 8.04831 5.02387 
-16.5137 6.67294 6.73893 
-0.745197 19.0306 -6.93063 
1.87585 20.6089 -9.33272 
-3.36625 17.4524 -4.57709 
-5.9873 15.8741 -2.31326 
-8.60835 14.2958 -0.166644 
-11.2294 12.7175 1.8531 
-13.8504 11.1392 3.75563 
-16.4715 9.56089 5.56845 
-19.0925 7.9826 7.33272 
-1.58093 21.6852 -7.1588 
1.28052 23.4646 -9.75293 
-4.44239 19.9059 -4.62646 
-7.30385 18.1265 -2.20831 
-10.1653 16.3471 0.0606594 
-13.0268 14.5678 2.16815 
-15.8882 12.7884 4.12646 
-18.7497 11.009 5.9706 
-21.6111 9.22967 7.75293 
-2.72275 24.2243 -7.25748 
0.32216 26.1964 -9.97968 
-5.76766 22.2522 -4.60793 
-8.81257 20.2801 -2.09265 
-11.8575 18.3081 0.247204 
-14.9024 16.336 2.39719 
-17.9473 14.3639 4.37175 
-20.9922 12.3918 6.21204 
-24.0371 10.4197 7.97968 
-4.2285 26.602 -7.22201 
-1.06887 28.7508 -10.0031 
-7.38813 24.4532 -4.52164 
-10.5478 22.3044 -1.97045 
-13.7074 20.1556 0.385818 
-16.867 18.0068 2.53111 
-20.0266 15.858 4.48148 
-23.1863 13.7092 6.28267 
-26.3459 11.5604 8.00312 
-6.14429 28.7664 -7.05459 
-2.94731 31.0673 -9.82345 
-9.34128 26.4656 -4.37144 
-12.5383 24.1648 -1.84667 
-15.7352 21.8639 0.471177 
-18.9322 19.5631 2.56505 
-22.1292 17.2622 4.452 
-25.3262 14.9614 6.18058 
-28.5232 12.6606 7.82345 
-8.50185 30.6602 -6.76384 
-5.34965 33.079 -9.45049 
-11.6541 28.2415 -4.16458 
-14.8063 25.8227 -1.7268 
-17.9585 23.4039 0.5 
-21.1107 20.9852 2.49844 
-24.2629 18.5664 4.2859 
-27.4151 16.1476 5.91189 
-30.5673 13.7288 7.45049 
-11.3163 32.2215 -6.36408 
-8.29138 34.7143 -8.90276 
-14.3411 29.7286 -3.9111 
-17.366 27.2358 -1.6165 
-20.3909 24.743 0.471177 
-23.4158 22.2502 2.33488 
-26.4406 19.7573 3.99166 
-29.4655 17.2645 5.49007 
-32.4904 14.7717 6.90276 
-14.5843 33.3854 -5.87435 
-11.765 35.8989 -8.20624 
-17.4035 30.8719 -3.6232 
-20.2228 28.3583 -1.52123 
-23.0421 25.8448 0.385818 
-25.8613 23.3313 2.08189 
-28.6806 20.8177 3.58304 
-31.4999 18.3042 4.93501 
-34.3191 15.7907 6.20624 
-18.2833 34.0869 -5.31725 
-15.739 36.5594 -7.39271 
-20.8277 31.6143 -3.31445 
-23.372 29.1418 -1.44591 
-25.9164 26.6693 0.247204 
-28.4607 24.1968 1.75044 
-31.0051 21.7243 3.07826 
-33.5494 19.2517 4.27182 
-36.0938 16.7792 5.39271 
-22.3714 34.263 -4.71761 
-20.1579 36.6263 -6.498 
-24.585 31.8996 -2.999 
-26.7985 29.5362 -1.39458 
-29.0121 27.1728 0.0606594 
-31.2257 24.8094 1.35442 
-33.4392 22.446 2.499 
-35.6528 20.0826 3.5294 
-37.8663 17.7192 4.498 
-26.7879 33.8562 -4.10107 
-24.9437 36.0388 -5.55997 
-28.632 31.6735 -2.69071 
-30.4762 29.4909 -1.37007 
-32.3204 27.3083 -0.166644 
-34.1645 25.1257 0.909912 
-36.0087 22.943 1.86926 
-37.8528 20.7604 2.73889 
-39.697 18.5778 3.55997 
-31.4549 32.8174 -3.49273 
-29.9985 34.7479 -4.61653 
-32.9113 30.8869 -2.40237 
-34.3677 28.9565 -1.3738 
-35.824 27.026 -0.425975 
-37.2804 25.0955 0.434464 
-38.7368 23.165 1.21416 
-40.1931 21.2346 1.93207 
-41.6495 19.3041 2.61653 
-36.2805 31.1089 -2.91583 
-35.2084 32.7205 -3.70376 
-37.3525 29.4973 -2.14496 
-38.4246 27.8857 -1.40558 
-39.4967 26.2741 -0.707364 
-40.5687 24.6625 -0.0536995 
-41.6408 23.051 0.558805 
-42.7129 21.4394 1.13981 
-43.7849 19.8278 1.70376 
-41.1614 28.7064 -2.39058 
-40.4481 29.9418 -2.8541 
-41.8747 27.4709 -1.92705 
-42.588 26.2355 -1.46352 
-43.3013 25 -1 
-44.0146 23.7645 -0.536474 
-44.7279 22.5291 -0.0729485 
-45.4411 21.2936 0.390576 
-46.1544 20.0582 0.854101 
-13.8897 -5.35414 -6.00094 
-11.3382 -3.92352 -5.13016 
-11.3571 -3.87332 -5.16739 
-11.8574 -6.52191 -4.13872 
-10.7625 -5.30746 -4.08107 
-10.6131 -5.58683 -3.84906 
-11.0866 -4.5922 -4.63947 
-9.97763 -6.66684 -2.9081 
-9.82521 -7.68968 -2.29354 
-9.77181 -6.95408 -2.6352 
-10.3923 -6 -3.5028 
-9.52024 -7.30514 -2.30356 
-9.48051 -7.35355 -2.25476 
-9.02208 -7.91215 -1.69708 
-8.53729 -8.42975 -1.14414 
-2.34108 -11.7694 4.07813 
-1.69631 -12.3608 4.70739 
-1.85283 -11.85 4.3982 
-2.98782 -11.6186 3.63541 
-1.58691 -11.8939 4.59429 
-0.784837 -11.9743 5.10233 
0.335917 -13.5285 6.36269 
-0.245243 -11.992 5.43022 
-1.56631 -11.8973 4.60784 
0 -12 5.60607 
0.492849 -11.9839 5.9485 
1.14563 -11.9388 6.33576 
0.784837 -11.9743 6.12523 
2.36814 -14.6963 8.00094 
1.56631 -11.8973 6.63736 
2.32493 -11.7721 7.16739 
-16.4023 -6.94224 -6.73893 
-14.0422 -8.27917 -4.58453 
-11.6822 -9.61611 -2.46357 
-9.32221 -10.953 -0.404403 
-8.48528 -8.48528 -1.0853 
-7.91272 -9.02154 -0.473965 
-7.71372 -9.18492 -0.283927 
-7.91215 -9.02208 -0.473387 
-6.96219 -12.29 1.57403 
-6 -10.3923 1.31093 
-5.96532 -10.4108 1.34055 
-6.66684 -9.97763 0.715144 
-7.30514 -9.52024 0.117663 
-5.56848 -10.623 1.65317 
-4.60217 -13.6269 3.46506 
-3.85727 -11.3632 3.00986 
-3.79626 -11.3817 3.05505 
-4.5922 -11.0866 2.44389 
-5.30746 -10.7625 1.87087 
-3.63486 -11.4306 3.16269 
-2.24215 -14.9638 5.27536 
-3.10583 -11.5911 3.55156 
0.117873 -16.3008 7.02387 
2.47789 -17.6377 8.73893 
-18.7858 -8.67993 -7.33272 
-16.1084 -10.1607 -4.93063 
-13.4311 -11.6414 -2.57709 
-10.7537 -13.1222 -0.31326 
-8.07633 -14.6029 1.83335 
-5.39896 -16.0837 3.8531 
-2.72159 -17.5644 5.75563 
-0.0442266 -19.0452 7.56845 
2.63314 -20.5259 9.33272 
-20.9612 -10.6233 -7.75293 
-17.9895 -12.2118 -5.1588 
-15.0178 -13.8002 -2.62646 
-12.0461 -15.3886 -0.20831 
-9.07439 -16.977 2.06066 
-6.10268 -18.5654 4.16815 
-3.13097 -20.1538 6.12646 
-0.159266 -21.7422 7.9706 
2.81244 -23.3306 9.75293 
-22.8478 -12.8192 -7.97968 
-19.6175 -14.4701 -5.25748 
-16.3872 -16.1211 -2.60793 
-13.1568 -17.772 -0.0926533 
-9.92651 -19.4229 2.2472 
-6.69618 -21.0738 4.39719 
-3.46586 -22.7248 6.37175 
-0.235533 -24.3757 8.21204 
2.99479 -26.0266 9.97968 
-24.3645 -15.3011 -8.00312 
-20.9237 -16.963 -5.22201 
-17.483 -18.6249 -2.52164 
-14.0423 -20.2868 0.0295496 
-10.6016 -21.9487 2.38582 
-7.16085 -23.6107 4.53111 
-3.72013 -25.2726 6.48148 
-0.279411 -26.9345 8.28267 
3.16131 -28.5964 10.0031 
-25.4314 -18.0861 -7.82345 
-21.8403 -19.7043 -5.05459 
-18.2492 -21.3226 -2.37144 
-14.6582 -22.9408 0.153328 
-11.0671 -24.5591 2.47118 
-7.47601 -26.1773 4.56505 
-3.88494 -27.7956 6.452 
-0.293864 -29.4138 8.18058 
3.29721 -31.0321 9.82345 
-25.9724 -21.1724 -7.45049 
-22.3016 -22.6929 -4.76384 
-18.6308 -24.2134 -2.16458 
-14.96 -25.7339 0.273197 
-11.2892 -27.2544 2.5 
-7.61834 -28.7749 4.49844 
-3.94753 -30.2955 6.2859 
-0.276709 -31.816 7.91189 
3.39411 -33.3365 9.45049 
-22.2465 -25.9109 -4.36408 
-25.9178 -24.5377 -6.90276 
-18.5752 -27.2841 -1.9111 
-14.9039 -28.6573 0.3835 
-11.2326 -30.0305 2.47118 
-7.56133 -31.4037 4.33488 
-3.89005 -32.7769 5.99166 
-0.218764 -34.1501 7.49007 
3.45252 -35.5234 8.90276 
-21.6205 -29.323 -3.87435 
-25.2069 -28.1383 -6.20624 
-18.0341 -30.5078 -1.6232 
-14.4476 -31.6926 0.47877 
-10.8612 -32.8774 2.38582 
-7.27482 -34.0622 4.08189 
-3.6884 -35.247 5.58304 
-0.101991 -36.4318 6.93501 
3.48442 -37.6166 8.20624 
-20.3784 -32.8773 -3.31725 
-23.7919 -31.91 -5.39271 
-16.965 -33.8445 -1.31445 
-13.5515 -34.8117 0.554088 
-10.1381 -35.7789 2.2472 
-6.72467 -36.7461 3.75044 
-3.31123 -37.7133 5.07826 
0.102208 -38.6805 6.27182 
3.51565 -39.6477 7.39271 
-18.4869 -36.5057 -2.71761 
-21.6404 -35.7704 -4.498 
-15.3333 -37.241 -0.999002 
-12.1798 -37.9763 0.605421 
-9.02628 -38.7116 2.06066 
-5.87275 -39.4469 3.35442 
-2.71922 -40.1822 4.499 
0.434313 -40.9175 5.5294 
3.58785 -41.6528 6.498 
-15.9264 -40.1271 -2.10107 
-18.7387 -39.6213 -3.55997 
-13.1141 -40.6328 -0.690713 
-10.3018 -41.1386 0.629927 
-7.48949 -41.6444 1.83335 
-4.67719 -42.1502 2.90991 
-1.8649 -42.6559 3.86926 
0.947394 -43.1617 4.73889 
3.75969 -43.6675 5.55997 
-12.6933 -43.6495 -1.49273 
-15.0933 -43.3535 -2.61653 
-10.2932 -43.9455 -0.402369 
-7.89321 -44.2415 0.626196 
-5.49318 -44.5375 1.57403 
-3.09315 -44.8335 2.43446 
-0.693121 -45.1295 3.21416 
1.70691 -45.4256 3.93207 
4.10693 -45.7216 4.61653 
-8.80086 -46.9743 -0.915833 
-10.7326 -46.8516 -1.70376 
-6.86915 -47.0969 -0.144956 
-4.93744 -47.2195 0.594419 
-3.00574 -47.3422 1.29263 
-1.07403 -47.4648 1.9463 
0.857675 -47.5875 2.5588 
2.78938 -47.7101 3.13981 
4.72109 -47.8328 3.70376 
-4.27975 -50 -0.390576 
-5.70634 -50 -0.854101 
-2.85317 -50 0.0729485 
-1.42658 -50 0.536474 
0 -50 1 
1.42658 -50 1.46352 
2.85317 -50 1.92705 
4.27975 -50 2.39058 
5.70634 -50 2.8541 
-11.0866 -4.5922 -6.63947 
-11.8574 -6.52191 -6.13872 
-11.3382 -3.92352 -7.13016 
-10.7625 -5.30746 -6.08107 
-10.6131 -5.58683 -5.84906 
-13.8897 -5.35414 -8.00094 
-11.3571 -3.87332 -7.16739 
-9.52024 -7.30514 -4.30356 
-9.82521 -7.68968 -4.29354 
-9.77181 -6.95408 -4.6352 
-9.48051 -7.35355 -4.25476 
-9.97763 -6.66684 -4.9081 
-10.3923 -6 -5.5028 
-9.02208 -7.91215 -3.69708 
-8.53729 -8.42975 -3.14414 
-1.69631 -12.3608 2.70739 
-1.85283 -11.85 2.3982 
-1.58691 -11.8939 2.59429 
-2.34108 -11.7694 2.07813 
-2.98782 -11.6186 1.6354 
0.335917 -13.5285 4.36269 
0 -12 3.60607 
0.492849 -11.9839 3.9485 
-0.245243 -11.992 3.43022 
-0.784837 -11.9743 3.10233 
-1.56631 -11.8973 2.60784 
2.36814 -14.6963 6.00094 
1.56631 -11.8973 4.63736 
2.32493 -11.7721 5.16739 
1.14563 -11.9388 4.33576 
0.784837 -11.9743 4.12523 
-14.0422 -8.27917 -6.58453 
-16.4023 -6.94224 -8.73893 
-11.6822 -9.61611 -4.46357 
-9.32221 -10.953 -2.4044 
-8.48528 -8.48528 -3.0853 
-7.91272 -9.02154 -2.47396 
-6.96219 -12.29 -0.425975 
-6 -10.3923 -0.689072 
-5.96532 -10.4108 -0.659452 
-6.66684 -9.97763 -1.28486 
-7.30514 -9.52024 -1.88234 
-7.71372 -9.18492 -2.28393 
-7.91215 -9.02208 -2.47339 
-4.60217 -13.6269 1.46506 
-3.85727 -11.3632 1.00986 
-3.79626 -11.3817 1.05505 
-4.5922 -11.0866 0.443891 
-5.30746 -10.7625 -0.129128 
-5.56848 -10.623 -0.346829 
-2.24215 -14.9638 3.27536 
-3.10583 -11.5911 1.55156 
-3.63486 -11.4306 1.16269 
0.117873 -16.3008 5.02387 
2.47789 -17.6377 6.73893 
-16.1084 -10.1607 -6.93063 
-18.7858 -8.67993 -9.33272 
-13.4311 -11.6414 -4.57709 
-10.7537 -13.1222 -2.31326 
-8.07633 -14.6029 -0.166644 
-5.39896 -16.0837 1.8531 
-2.72159 -17.5644 3.75563 
-0.0442266 -19.0452 5.56845 
2.63314 -20.5259 7.33272 
-17.9895 -12.2118 -7.1588 
-20.9612 -10.6233 -9.75293 
-15.0178 -13.8002 -4.62646 
-12.0461 -15.3886 -2.20831 
-9.07439 -16.977 0.0606594 
-6.10268 -18.5654 2.16815 
-3.13097 -20.1538 4.12646 
-0.159266 -21.7422 5.9706 
2.81244 -23.3306 7.75293 
-19.6175 -14.4701 -7.25748 
-22.8478 -12.8192 -9.97968 
-16.3872 -16.1211 -4.60793 
-13.1568 -17.772 -2.09265 
-9.92651 -19.4229 0.247204 
-6.69618 -21.0738 2.39719 
-3.46586 -22.7248 4.37175 
-0.235533 -24.3757 6.21204 
2.99479 -26.0266 7.97968 
-20.9237 -16.963 -7.22201 
-24.3645 -15.3011 -10.0031 
-17.483 -18.6249 -4.52164 
-14.0423 -20.2868 -1.97045 
-10.6016 -21.9487 0.385818 
-7.16085 -23.6107 2.53111 
-3.72013 -25.2726 4.48148 
-0.279411 -26.9345 6.28267 
3.16131 -28.5964 8.00312 
-21.8403 -19.7043 -7.05459 
-25.4314 -18.0861 -9.82345 
-18.2492 -21.3226 -4.37144 
-14.6582 -22.9408 -1.84667 
-11.0671 -24.5591 0.471177 
-7.47601 -26.1773 2.56505 
-3.88494 -27.7956 4.452 
-0.293864 -29.4138 6.18058 
3.29721 -31.0321 7.82345 
-22.3016 -22.6929 -6.76384 
-25.9724 -21.1724 -9.45049 
-18.6308 -24.2134 -4.16458 
-14.96 -25.7339 -1.7268 
-11.2892 -27.2544 0.5 
-7.61834 -28.7749 2.49844 
-3.94753 -30.2955 4.2859 
-0.276709 -31.816 5.91189 
3.39411 -33.3365 7.45049 
-22.2465 -25.9109 -6.36408 
-25.9178 -24.5377 -8.90276 
-18.5752 -27.2841 -3.9111 
-14.9039 -28.6573 -1.6165 
-11.2326 -30.0305 0.471177 
-7.56133 -31.4037 2.33488 
-3.89005 -32.7769 3.99166 
-0.218764 -34.1501 5.49007 
3.45252 -35.5234 6.90276 
-21.6205 -29.323 -5.87435 
-25.2069 -28.1383 -8.20624 
-18.0341 -30.5078 -3.6232 
-14.4476 -31.6926 -1.52123 
-10.8612 -32.8774 0.385818 
-7.27482 -34.0622 2.08189 
-3.6884 -35.247 3.58304 
-0.101991 -36.4318 4.93501 
3.48442 -37.6166 6.20624 
-20.3784 -32.8773 -5.31725 
-23.7919 -31.91 -7.39271 
-16.965 -33.8445 -3.31445 
-13.5515 -34.8117 -1.44591 
-10.1381 -35.7789 0.247204 
-6.72467 -36.7461 1.75044 
-3.31123 -37.7133 3.07826 
0.102208 -38.6805 4.27182 
3.51565 -39.6477 5.39271 
-18.4869 -36.5057 -4.71761 
-21.6404 -35.7704 -6.498 
-15.3333 -37.241 -2.999 
-12.1798 -37.9763 -1.39458 
-9.02628 -38.7116 0.0606594 
-5.87275 -39.4469 1.35442 
-2.71922 -40.1822 2.499 
0.434313 -40.9175 3.5294 
3.58785 -41.6528 4.498 
-15.9264 -40.1271 -4.10107 
-18.7387 -39.6213 -5.55997 
-13.1141 -40.6328 -2.69071 
-10.3018 -41.1386 -1.37007 
-7.48949 -41.6444 -0.166644 
-4.67719 -42.1502 0.909912 
-1.8649 -42.6559 1.86926 
0.947394 -43.1617 2.73889 
3.75969 -43.6675 3.55997 
-12.6933 -43.6495 -3.49273 
-15.0933 -43.3535 -4.61653 
-10.2932 -43.9455 -2.40237 
-7.89321 -44.2415 -1.3738 
-5.49318 -44.5375 -0.425975 
-3.09315 -44.8335 0.434464 
-0.693121 -45.1295 1.21416 
1.70691 -45.4256 1.93207 
4.10693 -45.7216 2.61653 
-8.80086 -46.9743 -2.91583 
-10.7326 -46.8516 -3.70376 
-6.86915 -47.0969 -2.14496 
-4.93744 -47.2195 -1.40558 
-3.00574 -47.3422 -0.707364 
-1.07403 -47.4648 -0.0536995 
0.857675 -47.5875 0.558805 
2.78938 -47.7101 1.13981 
4.72109 -47.8328 1.70376 
-4.27975 -50 -2.39058 
-5.70634 -50 -2.8541 
-2.85317 -50 -1.92705 
-1.42658 -50 -1.46352 
0 -50 -1 
1.42658 -50 -0.536474 
2.85317 -50 -0.0729485 
4.27975 -50 0.390576 
5.70634 -50 0.854101 
1.56631 -11.8973 -10 
0.784837 -11.9743 -10 
0.784837 -11.9743 10 
1.56631 -11.8973 10 
-10.3923 -6 -10 
-10.7625 -5.30746 -10 
-10.7625 -5.30746 10 
-10.3923 -6 10 
11.9743 0.784837 -10 
12 0 -10 
12 0 10 
11.9743 0.784837 10 
11.8973 1.56631 -10 
11.8973 1.56631 10 
3.10583 -11.5911 -10 
3.85727 -11.3632 10 
3.10583 -11.5911 10 
3.85727 -11.3632 -10 
0 -12 10 
0 -12 -10 
-9.97763 -6.66684 -10 
-9.97763 -6.66684 10 
11.0866 4.5922 -10 
11.3632 3.85727 -10 
11.3632 3.85727 10 
11.0866 4.5922 10 
6 -10.3923 -10 
6.66684 -9.97763 10 
6 -10.3923 10 
6.66684 -9.97763 -10 
-6.66684 9.97763 -10 
-6 10.3923 -10 
-6 10.3923 10 
-6.66684 9.97763 10 
-9.02208 7.91215 10 
-9.52024 7.30514 10 
-9.52024 7.30514 -10 
-9.02208 7.91215 -10 
11.7694 2.34108 10 
11.5911 3.10583 10 
11.5911 3.10583 -10 
11.7694 2.34108 -10 
-4.5922 11.0866 10 
-5.30746 10.7625 10 
-5.30746 10.7625 -10 
-4.5922 11.0866 -10 
7.30514 -9.52024 -10 
7.91215 -9.02208 10 
7.30514 -9.52024 10 
7.91215 -9.02208 -10 
11.7694 -2.34108 10 
11.8973 -1.56631 10 
11.8973 -1.56631 -10 
11.7694 -2.34108 -10 
-0.784837 -11.9743 10 
-0.784837 -11.9743 -10 
10.3923 6 -10 
10.7625 5.30746 -10 
10.7625 5.30746 10 
10.3923 6 10 
11.0866 -4.5922 -10 
10.7625 -5.30746 -10 
10.7625 -5.30746 10 
11.0866 -4.5922 10 
1.56631 11.8973 10 
0.784837 11.9743 10 
0.784837 11.9743 -10 
1.56631 11.8973 -10 
-2.34108 11.7694 -10 
-1.56631 11.8973 -10 
-1.56631 11.8973 10 
-2.34108 11.7694 10 
7.30514 9.52024 -10 
6.66684 9.97763 10 
7.30514 9.52024 10 
6.66684 9.97763 -10 
3.85727 11.3632 -10 
3.10583 11.5911 10 
3.85727 11.3632 10 
3.10583 11.5911 -10 
-11.3632 -3.85727 -10 
-11.3632 -3.85727 10 
-11.0866 -4.5922 -10 
-11.0866 -4.5922 10 
-0.784837 11.9743 -10 
0 12 -10 
0 12 10 
-0.784837 11.9743 10 
-9.02208 -7.91215 -10 
-9.52024 -7.30514 -10 
-9.52024 -7.30514 10 
-9.02208 -7.91215 10 
-11.0866 4.5922 -10 
-10.7625 5.30746 -10 
-10.7625 5.30746 10 
-11.0866 4.5922 10 
9.97763 -6.66684 10 
10.3923 -6 10 
10.3923 -6 -10 
9.97763 -6.66684 -10 
9.02208 7.91215 10 
9.02208 7.91215 -10 
9.52024 7.30514 10 
9.52024 7.30514 -10 
11.9743 -0.784837 10 
11.9743 -0.784837 -10 
-11.8973 -1.56631 -10 
-11.9743 -0.784837 10 
-11.9743 -0.784837 -10 
-11.8973 -1.56631 10 
-12 0 10 
-12 0 -10 
2.34108 11.7694 10 
2.34108 11.7694 -10 
-11.9743 0.784837 -10 
-11.8973 1.56631 10 
-11.8973 1.56631 -10 
-11.9743 0.784837 10 
8.48528 -8.48528 10 
9.02208 -7.91215 -10 
9.02208 -7.91215 10 
8.48528 -8.48528 -10 
-3.10583 11.5911 10 
-3.85727 11.3632 10 
-3.85727 11.3632 -10 
-3.10583 11.5911 -10 
-8.48528 8.48528 10 
-8.48528 8.48528 -10 
-8.48528 -8.48528 -10 
-8.48528 -8.48528 10 
-9.97763 6.66684 -10 
-9.97763 6.66684 10 
-7.91215 9.02208 10 
-7.91215 9.02208 -10 
9.97763 6.66684 10 
9.97763 6.66684 -10 
-11.7694 2.34108 -10 
-11.5911 3.10583 10 
-11.5911 3.10583 -10 
-11.7694 2.34108 10 
6 10.3923 10 
6 10.3923 -10 
5.30746 10.7625 10 
5.30746 10.7625 -10 
7.91215 9.02208 -10 
7.91215 9.02208 10 
11.3632 -3.85727 10 
11.5911 -3.10583 10 
11.5911 -3.10583 -10 
11.3632 -3.85727 -10 
9.52024 -7.30514 10 
9.52024 -7.30514 -10 
4.5922 -11.0866 10 
4.5922 -11.0866 -10 
-10.3923 6 -10 
-10.3923 6 10 
4.5922 11.0866 -10 
4.5922 11.0866 10 
-3.85727 -11.3632 -10 
-4.5922 -11.0866 -10 
-4.5922 -11.0866 10 
-3.85727 -11.3632 10 
-11.5911 -3.10583 -10 
-11.7694 -2.34108 10 
-11.7694 -2.34108 -10 
-11.5911 -3.10583 10 
2.34108 -11.7694 10 
2.34108 -11.7694 -10 
-11.3632 3.85727 10 
-11.3632 3.85727 -10 
5.30746 -10.7625 -10 
5.30746 -10.7625 10 
-1.56631 -11.8973 10 
-1.56631 -11.8973 -10 
-7.91215 -9.02208 -10 
-7.91215 -9.02208 10 
-2.34108 -11.7694 -10 
-3.10583 -11.5911 -10 
-3.10583 -11.5911 10 
-2.34108 -11.7694 10 
2.5 0 10 
2.49465 0.163507 10 
2.47861 0.326315 10 
2.49465 -0.163507 10 
2.45196 0.487725 10 
2.41481 0.647047 10 
2.47861 -0.326315 10 
2.36732 0.803598 10 
2.3097 0.956708 10 
2.45196 -0.487725 10 
2.24218 1.10572 10 
2.16506 1.25 10 
2.41481 -0.647047 10 
2.07867 1.38893 10 
1.98338 1.5219 10 
2.36732 -0.803598 10 
1.8796 1.64836 10 
8.48528 8.48528 10 
1.76777 1.76777 10 
2.3097 -0.956708 10 
1.64836 1.8796 10 
1.5219 1.98338 10 
2.24218 -1.10572 10 
1.38893 2.07867 10 
1.25 2.16506 10 
2.16506 -1.25 10 
1.10572 2.24218 10 
0.956708 2.3097 10 
2.07867 -1.38893 10 
0.803598 2.36732 10 
1.98338 -1.5219 10 
0.647047 2.41481 10 
0.487725 2.45196 10 
0.326315 2.47861 10 
0.163507 2.49465 10 
0 2.5 10 
-0.163507 2.49465 10 
-0.326315 2.47861 10 
-0.487725 2.45196 10 
-0.647047 2.41481 10 
-0.803598 2.36732 10 
-0.956708 2.3097 10 
-1.10572 2.24218 10 
-1.25 2.16506 10 
-1.38893 2.07867 10 
-1.5219 1.98338 10 
-7.30514 9.52024 10 
-1.64836 1.8796 10 
-1.76777 1.76777 10 
-1.8796 1.64836 10 
-1.98338 1.5219 10 
1.8796 -1.64836 10 
1.76777 -1.76777 10 
1.64836 -1.8796 10 
1.5219 -1.98338 10 
1.38893 -2.07867 10 
1.25 -2.16506 10 
1.10572 -2.24218 10 
0.956708 -2.3097 10 
0.803598 -2.36732 10 
0.647047 -2.41481 10 
0.487725 -2.45196 10 
0.326315 -2.47861 10 
0.163507 -2.49465 10 
0 -2.5 10 
-0.163507 -2.49465 10 
-0.326315 -2.47861 10 
-0.487725 -2.45196 10 
-0.647047 -2.41481 10 
-0.803598 -2.36732 10 
-0.956708 -2.3097 10 
-1.10572 -2.24218 10 
-5.30746 -10.7625 10 
-1.25 -2.16506 10 
-6 -10.3923 10 
-1.38893 -2.07867 10 
-6.66684 -9.97763 10 
-1.5219 -1.98338 10 
-7.30514 -9.52024 10 
-1.64836 -1.8796 10 
-1.76777 -1.76777 10 
-1.8796 -1.64836 10 
-1.98338 -1.5219 10 
-2.07867 -1.38893 10 
-2.16506 -1.25 10 
-2.24218 -1.10572 10 
-2.3097 -0.956708 10 
-2.36732 -0.803598 10 
-2.41481 -0.647047 10 
-2.45196 -0.487725 10 
-2.47861 -0.326315 10 
-2.49465 -0.163507 10 
-2.5 0 10 
-2.07867 1.38893 10 
-2.16506 1.25 10 
-2.24218 1.10572 10 
-2.3097 0.956708 10 
-2.36732 0.803598 10 
-2.41481 0.647047 10 
-2.45196 0.487725 10 
-2.47861 0.326315 10 
-2.49465 0.163507 10 
2.5 0 -10 
2.49465 -0.163507 -10 
2.47861 -0.326315 -10 
2.49465 0.163507 -10 
2.45196 -0.487725 -10 
2.41481 -0.647047 -10 
2.47861 0.326315 -10 
2.36732 -0.803598 -10 
2.3097 -0.956708 -10 
2.45196 0.487725 -10 
2.24218 -1.10572 -10 
2.16506 -1.25 -10 
2.41481 0.647047 -10 
2.07867 -1.38893 -10 
1.98338 -1.5219 -10 
2.36732 0.803598 -10 
1.8796 -1.64836 -10 
1.76777 -1.76777 -10 
2.3097 0.956708 -10 
1.64836 -1.8796 -10 
1.5219 -1.98338 -10 
2.24218 1.10572 -10 
1.38893 -2.07867 -10 
1.25 -2.16506 -10 
2.16506 1.25 -10 
1.10572 -2.24218 -10 
0.956708 -2.3097 -10 
2.07867 1.38893 -10 
0.803598 -2.36732 -10 
1.98338 1.5219 -10 
0.647047 -2.41481 -10 
0.487725 -2.45196 -10 
0.326315 -2.47861 -10 
0.163507 -2.49465 -10 
0 -2.5 -10 
-0.163507 -2.49465 -10 
-0.326315 -2.47861 -10 
-0.487725 -2.45196 -10 
-0.647047 -2.41481 -10 
-0.803598 -2.36732 -10 
-0.956708 -2.3097 -10 
-1.10572 -2.24218 -10 
-5.30746 -10.7625 -10 
-1.25 -2.16506 -10 
-6 -10.3923 -10 
-1.38893 -2.07867 -10 
-6.66684 -9.97763 -10 
-1.5219 -1.98338 -10 
-7.30514 -9.52024 -10 
-1.64836 -1.8796 -10 
-1.76777 -1.76777 -10 
-1.8796 -1.64836 -10 
-1.98338 -1.5219 -10 
1.8796 1.64836 -10 
8.48528 8.48528 -10 
1.76777 1.76777 -10 
1.64836 1.8796 -10 
1.5219 1.98338 -10 
1.38893 2.07867 -10 
1.25 2.16506 -10 
1.10572 2.24218 -10 
0.956708 2.3097 -10 
0.803598 2.36732 -10 
0.647047 2.41481 -10 
0.487725 2.45196 -10 
0.326315 2.47861 -10 
0.163507 2.49465 -10 
0 2.5 -10 
-0.163507 2.49465 -10 
-0.326315 2.47861 -10 
-0.487725 2.45196 -10 
-0.647047 2.41481 -10 
-0.803598 2.36732 -10 
-0.956708 2.3097 -10 
-1.10572 2.24218 -10 
-1.25 2.16506 -10 
-1.38893 2.07867 -10 
-1.5219 1.98338 -10 
-7.30514 9.52024 -10 
-1.64836 1.8796 -10 
-1.76777 1.76777 -10 
-1.8796 1.64836 -10 
-1.98338 1.5219 -10 
-2.07867 1.38893 -10 
-2.16506 1.25 -10 
-2.24218 1.10572 -10 
-2.3097 0.956708 -10 
-2.36732 0.803598 -10 
-2.41481 0.647047 -10 
-2.45196 0.487725 -10 
-2.47861 0.326315 -10 
-2.49465 0.163507 -10 
-2.5 0 -10 
-2.07867 -1.38893 -10 
-2.16506 -1.25 -10 
-2.24218 -1.10572 -10 
-2.3097 -0.956708 -10 
-2.36732 -0.803598 -10 
-2.41481 -0.647047 -10 
-2.45196 -0.487725 -10 
-2.47861 -0.326315 -10 
-2.49465 -0.163507 -10 
3 0 1 2
3 1 0 3
3 4 2 5
3 6 2 4
3 2 6 0
3 7 8 9
3 8 7 2
3 10 2 7
3 2 10 5
3 11 8 12
3 8 11 9
3 13 8 14
3 8 13 12
3 15 16 17
3 16 15 18
3 15 19 18
3 20 15 21
3 15 22 19
3 15 20 22
3 20 21 23
3 21 24 23
3 24 21 25
3 26 21 27
3 21 28 25
3 21 26 28
3 27 29 26
3 29 27 30
3 31 1 32
3 31 2 1
3 33 2 31
3 33 8 2
3 34 8 33
3 35 34 36
3 14 34 35
3 34 14 8
3 37 34 38
3 39 34 37
3 34 39 36
3 38 40 41
3 42 38 41
3 43 38 42
3 38 43 37
3 44 38 45
3 38 44 40
3 45 46 44
3 45 47 46
3 45 48 47
3 48 45 49
3 50 45 51
3 45 50 49
3 51 52 50
3 51 17 52
3 17 51 15
3 53 15 51
3 53 21 15
3 54 21 53
3 54 27 21
3 55 32 56
3 55 31 32
3 57 31 55
3 57 33 31
3 58 33 57
3 58 34 33
3 59 34 58
3 59 38 34
3 60 38 59
3 60 45 38
3 61 45 60
3 61 51 45
3 62 51 61
3 62 53 51
3 63 53 62
3 63 54 53
3 64 56 65
3 64 55 56
3 66 55 64
3 66 57 55
3 67 57 66
3 67 58 57
3 68 58 67
3 68 59 58
3 69 59 68
3 69 60 59
3 70 60 69
3 70 61 60
3 71 61 70
3 71 62 61
3 72 62 71
3 72 63 62
3 73 65 74
3 73 64 65
3 75 64 73
3 75 66 64
3 76 66 75
3 76 67 66
3 77 67 76
3 77 68 67
3 78 68 77
3 78 69 68
3 79 69 78
3 79 70 69
3 80 70 79
3 80 71 70
3 81 71 80
3 81 72 71
3 82 74 83
3 82 73 74
3 84 73 82
3 84 75 73
3 85 75 84
3 85 76 75
3 86 76 85
3 86 77 76
3 87 77 86
3 87 78 77
3 88 78 87
3 88 79 78
3 89 79 88
3 89 80 79
3 90 80 89
3 90 81 80
3 91 83 92
3 91 82 83
3 93 82 91
3 93 84 82
3 94 84 93
3 94 85 84
3 95 85 94
3 95 86 85
3 96 86 95
3 96 87 86
3 97 87 96
3 97 88 87
3 98 88 97
3 98 89 88
3 99 89 98
3 99 90 89
3 100 92 101
3 100 91 92
3 102 91 100
3 102 93 91
3 103 93 102
3 103 94 93
3 104 94 103
3 104 95 94
3 105 95 104
3 105 96 95
3 106 96 105
3 106 97 96
3 107 97 106
3 107 98 97
3 108 98 107
3 108 99 98
3 109 101 110
3 109 100 101
3 111 100 109
3 111 102 100
3 112 102 111
3 112 103 102
3 113 103 112
3 113 104 103
3 114 104 113
3 114 105 104
3 115 105 114
3 115 106 105
3 116 106 115
3 116 107 106
3 117 107 116
3 117 108 107
3 118 110 119
3 118 109 110
3 120 109 118
3 120 111 109
3 121 111 120
3 121 112 111
3 122 112 121
3 122 113 112
3 123 113 122
3 123 114 113
3 124 114 123
3 124 115 114
3 125 115 124
3 125 116 115
3 126 116 125
3 126 117 116
3 127 119 128
3 127 118 119
3 129 118 127
3 129 120 118
3 130 120 129
3 130 121 120
3 131 121 130
3 131 122 121
3 132 122 131
3 132 123 122
3 133 123 132
3 133 124 123
3 134 124 133
3 134 125 124
3 135 125 134
3 135 126 125
3 136 128 137
3 136 127 128
3 138 127 136
3 138 129 127
3 139 129 138
3 139 130 129
3 140 130 139
3 140 131 130
3 141 131 140
3 141 132 131
3 142 132 141
3 142 133 132
3 143 133 142
3 143 134 133
3 144 134 143
3 144 135 134
3 145 137 146
3 145 136 137
3 147 136 145
3 147 138 136
3 148 138 147
3 148 139 138
3 149 139 148
3 149 140 139
3 150 140 149
3 150 141 140
3 151 141 150
3 151 142 141
3 152 142 151
3 152 143 142
3 153 143 152
3 153 144 143
3 154 146 155
3 154 145 146
3 156 145 154
3 156 147 145
3 157 147 156
3 157 148 147
3 158 148 157
3 158 149 148
3 159 149 158
3 159 150 149
3 160 150 159
3 160 151 150
3 161 151 160
3 161 152 151
3 162 152 161
3 162 153 152
3 163 164 155
3 164 154 155
3 165 154 164
3 165 156 154
3 166 156 165
3 166 157 156
3 167 157 166
3 167 158 157
3 168 158 167
3 168 159 158
3 169 159 168
3 169 160 159
3 170 160 169
3 170 161 160
3 171 161 170
3 171 162 161
3 172 173 163
3 173 164 163
3 173 174 164
3 174 165 164
3 174 175 165
3 175 166 165
3 175 176 166
3 176 167 166
3 177 167 176
3 177 168 167
3 178 168 177
3 178 169 168
3 179 169 178
3 179 170 169
3 180 170 179
3 180 171 170
3 181 182 183
3 181 184 182
3 184 181 185
3 186 185 181
3 185 186 187
3 188 189 190
3 189 188 191
3 192 188 181
3 188 192 191
3 181 193 192
3 193 181 183
3 188 194 195
3 194 188 190
3 196 197 198
3 199 198 200
3 198 199 196
3 201 202 203
3 202 201 204
3 205 198 197
3 206 198 205
3 198 206 202
3 202 206 203
3 207 208 209
3 208 207 210
3 211 202 204
3 209 202 211
3 202 209 208
3 186 181 212
3 213 186 212
3 181 188 214
3 212 181 214
3 215 216 217
3 195 215 188
3 215 195 216
3 214 188 215
3 218 219 220
3 218 221 219
3 221 218 222
3 218 220 223
3 215 222 218
3 215 224 222
3 224 215 217
3 225 226 227
3 228 226 225
3 229 226 228
3 226 229 230
3 227 218 223
3 218 227 226
3 231 232 233
3 200 232 231
3 232 200 198
3 233 226 230
3 226 233 232
3 198 202 234
3 232 198 234
3 202 208 235
3 234 202 235
3 213 212 236
3 237 213 236
3 212 214 238
3 236 212 238
3 214 215 239
3 238 214 239
3 215 218 240
3 239 215 240
3 218 226 241
3 240 218 241
3 226 232 242
3 241 226 242
3 232 234 243
3 242 232 243
3 234 235 244
3 243 234 244
3 237 236 245
3 246 237 245
3 236 238 247
3 245 236 247
3 238 239 248
3 247 238 248
3 239 240 249
3 248 239 249
3 240 241 250
3 249 240 250
3 241 242 251
3 250 241 251
3 242 243 252
3 251 242 252
3 243 244 253
3 252 243 253
3 246 245 254
3 255 246 254
3 245 247 256
3 254 245 256
3 247 248 257
3 256 247 257
3 248 249 258
3 257 248 258
3 249 250 259
3 258 249 259
3 250 251 260
3 259 250 260
3 251 252 261
3 260 251 261
3 252 253 262
3 261 252 262
3 255 254 263
3 264 255 263
3 254 256 265
3 263 254 265
3 256 257 266
3 265 256 266
3 257 258 267
3 266 257 267
3 258 259 268
3 267 258 268
3 259 260 269
3 268 259 269
3 260 261 270
3 269 260 270
3 261 262 271
3 270 261 271
3 264 263 272
3 273 264 272
3 263 265 274
3 272 263 274
3 265 266 275
3 274 265 275
3 266 267 276
3 275 266 276
3 267 268 277
3 276 267 277
3 268 269 278
3 277 268 278
3 269 270 279
3 278 269 279
3 270 271 280
3 279 270 280
3 273 272 281
3 282 273 281
3 272 274 283
3 281 272 283
3 274 275 284
3 283 274 284
3 275 276 285
3 284 275 285
3 276 277 286
3 285 276 286
3 277 278 287
3 286 277 287
3 278 279 288
3 287 278 288
3 279 280 289
3 288 279 289
3 282 281 290
3 291 282 290
3 281 283 292
3 290 281 292
3 283 284 293
3 292 283 293
3 284 285 294
3 293 284 294
3 285 286 295
3 294 285 295
3 286 287 296
3 295 286 296
3 287 288 297
3 296 287 297
3 288 289 298
3 297 288 298
3 291 290 299
3 300 291 299
3 290 292 301
3 299 290 301
3 292 293 302
3 301 292 302
3 293 294 303
3 302 293 303
3 294 295 304
3 303 294 304
3 295 296 305
3 304 295 305
3 296 297 306
3 305 296 306
3 297 298 307
3 306 297 307
3 300 299 308
3 309 300 308
3 299 301 310
3 308 299 310
3 301 302 311
3 310 301 311
3 302 303 312
3 311 302 312
3 303 304 313
3 312 303 313
3 304 305 314
3 313 304 314
3 305 306 315
3 314 305 315
3 306 307 316
3 315 306 316
3 309 308 317
3 318 309 317
3 308 310 319
3 317 308 319
3 310 311 320
3 319 310 320
3 311 312 321
3 320 311 321
3 312 313 322
3 321 312 322
3 313 314 323
3 322 313 323
3 314 315 324
3 323 314 324
3 315 316 325
3 324 315 325
3 318 317 326
3 327 318 326
3 317 319 328
3 326 317 328
3 319 320 329
3 328 319 329
3 320 321 330
3 329 320 330
3 321 322 331
3 330 321 331
3 322 323 332
3 331 322 332
3 323 324 333
3 332 323 333
3 324 325 334
3 333 324 334
3 327 326 335
3 336 327 335
3 326 328 337
3 335 326 337
3 328 329 338
3 337 328 338
3 329 330 339
3 338 329 339
3 330 331 340
3 339 330 340
3 331 332 341
3 340 331 341
3 332 333 342
3 341 332 342
3 333 334 343
3 342 333 343
3 336 335 344
3 336 344 345
3 335 337 346
3 344 335 346
3 337 338 347
3 346 337 347
3 338 339 348
3 347 338 348
3 339 340 349
3 348 339 349
3 340 341 350
3 349 340 350
3 341 342 351
3 350 341 351
3 342 343 352
3 351 342 352
3 345 344 353
3 345 353 354
3 344 346 355
3 344 355 353
3 346 347 356
3 346 356 355
3 347 348 357
3 347 357 356
3 348 349 358
3 357 348 358
3 349 350 359
3 358 349 359
3 350 351 360
3 359 350 360
3 351 352 361
3 360 351 361
3 187 1 3
3 1 187 186
3 208 30 27
3 30 208 210
3 186 32 1
3 32 186 213
3 235 27 54
3 27 235 208
3 213 56 32
3 56 213 237
3 244 54 63
3 54 244 235
3 237 65 56
3 65 237 246
3 253 63 72
3 63 253 244
3 246 74 65
3 74 246 255
3 262 72 81
3 72 262 253
3 255 83 74
3 83 255 264
3 271 81 90
3 81 271 262
3 83 273 92
3 273 83 264
3 99 271 90
3 271 99 280
3 92 282 101
3 282 92 273
3 108 280 99
3 280 108 289
3 101 291 110
3 291 101 282
3 117 289 108
3 289 117 298
3 110 300 119
3 300 110 291
3 126 298 117
3 298 126 307
3 119 309 128
3 309 119 300
3 135 307 126
3 307 135 316
3 128 318 137
3 318 128 309
3 144 316 135
3 316 144 325
3 137 327 146
3 327 137 318
3 153 325 144
3 325 153 334
3 146 336 155
3 336 146 327
3 162 334 153
3 334 162 343
3 155 345 163
3 345 155 336
3 343 171 352
3 171 343 162
3 163 354 172
3 354 163 345
3 352 180 361
3 180 352 171
3 172 353 173
3 353 172 354
3 173 355 174
3 355 173 353
3 174 356 175
3 356 174 355
3 177 359 178
3 177 358 359
3 176 358 177
3 176 357 358
3 175 357 176
3 357 175 356
3 178 360 179
3 360 178 359
3 179 361 180
3 361 179 360
3 362 363 364
3 363 362 365
3 366 365 367
3 368 365 366
3 365 368 363
3 365 369 367
3 365 370 369
3 371 370 365
3 370 371 372
3 373 371 374
3 371 373 372
3 371 375 374
3 375 371 376
3 377 378 379
3 378 377 380
3 379 378 381
3 378 382 381
3 378 383 382
3 384 383 378
3 383 384 385
3 386 384 387
3 384 386 385
3 384 388 387
3 384 389 388
3 389 384 390
3 391 390 392
3 390 391 389
3 393 394 362
3 362 394 365
3 394 395 365
3 365 395 371
3 395 396 371
3 396 376 371
3 376 396 397
3 397 396 398
3 396 399 398
3 396 400 399
3 400 396 401
3 402 401 403
3 404 401 402
3 405 401 404
3 401 405 400
3 401 406 403
3 406 401 407
3 408 407 409
3 410 407 408
3 411 407 410
3 407 411 406
3 407 412 409
3 412 407 413
3 413 380 414
3 413 414 412
3 380 413 378
3 413 415 378
3 378 415 384
3 415 416 384
3 384 416 390
3 417 418 393
3 393 418 394
3 418 419 394
3 394 419 395
3 419 420 395
3 395 420 396
3 420 421 396
3 396 421 401
3 421 422 401
3 401 422 407
3 422 423 407
3 407 423 413
3 423 424 413
3 413 424 415
3 424 425 415
3 415 425 416
3 426 427 417
3 417 427 418
3 427 428 418
3 418 428 419
3 428 429 419
3 419 429 420
3 429 430 420
3 420 430 421
3 430 431 421
3 421 431 422
3 431 432 422
3 422 432 423
3 432 433 423
3 423 433 424
3 433 434 424
3 424 434 425
3 435 436 426
3 426 436 427
3 436 437 427
3 427 437 428
3 437 438 428
3 428 438 429
3 438 439 429
3 429 439 430
3 439 440 430
3 430 440 431
3 440 441 431
3 431 441 432
3 441 442 432
3 432 442 433
3 442 443 433
3 433 443 434
3 444 445 435
3 435 445 436
3 445 446 436
3 436 446 437
3 446 447 437
3 437 447 438
3 447 448 438
3 438 448 439
3 448 449 439
3 439 449 440
3 449 450 440
3 440 450 441
3 450 451 441
3 441 451 442
3 451 452 442
3 442 452 443
3 453 454 444
3 444 454 445
3 454 455 445
3 445 455 446
3 455 456 446
3 446 456 447
3 456 457 447
3 447 457 448
3 457 458 448
3 448 458 449
3 458 459 449
3 449 459 450
3 459 460 450
3 450 460 451
3 460 461 451
3 451 461 452
3 462 463 453
3 453 463 454
3 463 464 454
3 454 464 455
3 464 465 455
3 455 465 456
3 465 466 456
3 456 466 457
3 466 467 457
3 457 467 458
3 467 468 458
3 458 468 459
3 468 469 459
3 459 469 460
3 469 470 460
3 460 470 461
3 471 472 462
3 462 472 463
3 472 473 463
3 463 473 464
3 473 474 464
3 464 474 465
3 474 475 465
3 465 475 466
3 475 476 466
3 466 476 467
3 476 477 467
3 467 477 468
3 477 478 468
3 468 478 469
3 478 479 469
3 469 479 470
3 480 481 471
3 471 481 472
3 481 482 472
3 472 482 473
3 482 483 473
3 473 483 474
3 483 484 474
3 474 484 475
3 484 485 475
3 475 485 476
3 485 486 476
3 476 486 477
3 486 487 477
3 477 487 478
3 487 488 478
3 478 488 479
3 489 490 480
3 480 490 481
3 490 491 481
3 481 491 482
3 491 492 482
3 482 492 483
3 492 493 483
3 483 493 484
3 493 494 484
3 484 494 485
3 494 495 485
3 485 495 486
3 495 496 486
3 486 496 487
3 496 497 487
3 487 497 488
3 498 499 489
3 489 499 490
3 499 500 490
3 490 500 491
3 500 501 491
3 491 501 492
3 501 502 492
3 492 502 493
3 502 503 493
3 493 503 494
3 503 504 494
3 494 504 495
3 504 505 495
3 495 505 496
3 505 506 496
3 496 506 497
3 507 508 498
3 498 508 499
3 508 509 499
3 499 509 500
3 509 510 500
3 500 510 501
3 510 511 501
3 501 511 502
3 511 512 502
3 502 512 503
3 512 513 503
3 503 513 504
3 513 514 504
3 504 514 505
3 514 515 505
3 505 515 506
3 516 517 507
3 507 517 508
3 517 518 508
3 508 518 509
3 518 519 509
3 509 519 510
3 519 520 510
3 510 520 511
3 520 521 511
3 511 521 512
3 521 522 512
3 512 522 513
3 522 523 513
3 513 523 514
3 523 524 514
3 514 524 515
3 525 526 516
3 516 526 517
3 526 527 517
3 517 527 518
3 527 528 518
3 518 528 519
3 528 529 519
3 519 529 520
3 529 530 520
3 520 530 521
3 530 531 521
3 521 531 522
3 531 532 522
3 522 532 523
3 532 533 523
3 523 533 524
3 534 535 525
3 525 535 526
3 535 536 526
3 526 536 527
3 536 537 527
3 527 537 528
3 537 538 528
3 528 538 529
3 538 539 529
3 529 539 530
3 539 540 530
3 530 540 531
3 540 541 531
3 531 541 532
3 541 542 532
3 532 542 533
3 543 544 545
3 546 544 543
3 544 546 547
3 545 548 549
3 548 545 544
3 550 551 552
3 551 550 553
3 554 544 547
3 555 544 554
3 551 555 552
3 555 551 544
3 556 551 553
3 551 556 557
3 558 559 560
3 561 559 562
3 559 561 560
3 563 564 565
3 564 563 566
3 567 559 558
3 568 559 567
3 564 568 565
3 568 564 559
3 569 570 571
3 570 569 572
3 573 564 566
3 571 564 573
3 564 571 570
3 544 574 548
3 548 574 575
3 551 576 544
3 544 576 574
3 577 557 578
3 577 578 579
3 557 577 551
3 551 577 576
3 580 581 582
3 583 581 580
3 584 581 583
3 581 584 585
3 586 577 579
3 582 577 586
3 577 582 581
3 587 588 589
3 590 588 587
3 591 588 590
3 588 591 592
3 589 581 585
3 581 589 588
3 593 562 559
3 562 593 594
3 594 593 595
3 595 588 592
3 588 595 593
3 564 596 559
3 559 596 593
3 570 597 564
3 564 597 596
3 574 598 575
3 575 598 599
3 576 600 574
3 574 600 598
3 577 601 576
3 576 601 600
3 581 602 577
3 577 602 601
3 588 603 581
3 581 603 602
3 593 604 588
3 588 604 603
3 596 605 593
3 593 605 604
3 597 606 596
3 596 606 605
3 598 607 599
3 599 607 608
3 600 609 598
3 598 609 607
3 601 610 600
3 600 610 609
3 602 611 601
3 601 611 610
3 603 612 602
3 602 612 611
3 604 613 603
3 603 613 612
3 605 614 604
3 604 614 613
3 606 615 605
3 605 615 614
3 607 616 608
3 608 616 617
3 609 618 607
3 607 618 616
3 610 619 609
3 609 619 618
3 611 620 610
3 610 620 619
3 612 621 611
3 611 621 620
3 613 622 612
3 612 622 621
3 614 623 613
3 613 623 622
3 615 624 614
3 614 624 623
3 616 625 617
3 617 625 626
3 618 627 616
3 616 627 625
3 619 628 618
3 618 628 627
3 620 629 619
3 619 629 628
3 621 630 620
3 620 630 629
3 622 631 621
3 621 631 630
3 623 632 622
3 622 632 631
3 624 633 623
3 623 633 632
3 625 634 626
3 626 634 635
3 627 636 625
3 625 636 634
3 628 637 627
3 627 637 636
3 629 638 628
3 628 638 637
3 630 639 629
3 629 639 638
3 631 640 630
3 630 640 639
3 632 641 631
3 631 641 640
3 633 642 632
3 632 642 641
3 634 643 635
3 635 643 644
3 636 645 634
3 634 645 643
3 637 646 636
3 636 646 645
3 638 647 637
3 637 647 646
3 639 648 638
3 638 648 647
3 640 649 639
3 639 649 648
3 641 650 640
3 640 650 649
3 642 651 641
3 641 651 650
3 643 652 644
3 644 652 653
3 645 654 643
3 643 654 652
3 646 655 645
3 645 655 654
3 647 656 646
3 646 656 655
3 648 657 647
3 647 657 656
3 649 658 648
3 648 658 657
3 650 659 649
3 649 659 658
3 651 660 650
3 650 660 659
3 652 661 653
3 653 661 662
3 654 663 652
3 652 663 661
3 655 664 654
3 654 664 663
3 656 665 655
3 655 665 664
3 657 666 656
3 656 666 665
3 658 667 657
3 657 667 666
3 659 668 658
3 658 668 667
3 660 669 659
3 659 669 668
3 661 670 662
3 662 670 671
3 663 672 661
3 661 672 670
3 664 673 663
3 663 673 672
3 665 674 664
3 664 674 673
3 666 675 665
3 665 675 674
3 667 676 666
3 666 676 675
3 668 677 667
3 667 677 676
3 669 678 668
3 668 678 677
3 670 679 671
3 671 679 680
3 672 681 670
3 670 681 679
3 673 682 672
3 672 682 681
3 674 683 673
3 673 683 682
3 675 684 674
3 674 684 683
3 676 685 675
3 675 685 684
3 677 686 676
3 676 686 685
3 678 687 677
3 677 687 686
3 679 688 680
3 680 688 689
3 681 690 679
3 679 690 688
3 682 691 681
3 681 691 690
3 683 692 682
3 682 692 691
3 684 693 683
3 683 693 692
3 685 694 684
3 684 694 693
3 686 695 685
3 685 695 694
3 687 696 686
3 686 696 695
3 688 697 689
3 689 697 698
3 690 699 688
3 688 699 697
3 691 700 690
3 690 700 699
3 692 701 691
3 691 701 700
3 693 702 692
3 692 702 701
3 694 703 693
3 693 703 702
3 695 704 694
3 694 704 703
3 696 705 695
3 695 705 704
3 697 706 698
3 698 706 707
3 699 708 697
3 697 708 706
3 700 709 699
3 699 709 708
3 701 710 700
3 700 710 709
3 702 711 701
3 701 711 710
3 703 712 702
3 702 712 711
3 704 713 703
3 703 713 712
3 705 714 704
3 704 714 713
3 706 715 707
3 707 715 716
3 708 717 706
3 706 717 715
3 709 718 708
3 708 718 717
3 710 719 709
3 709 719 718
3 711 720 710
3 710 720 719
3 712 721 711
3 711 721 720
3 713 722 712
3 712 722 721
3 714 723 713
3 713 723 722
3 549 362 364
3 362 549 548
3 570 392 390
3 392 570 572
3 548 393 362
3 393 548 575
3 597 390 416
3 390 597 570
3 575 417 393
3 417 575 599
3 606 416 425
3 416 606 597
3 599 426 417
3 426 599 608
3 615 425 434
3 425 615 606
3 608 435 426
3 435 608 617
3 624 434 443
3 434 624 615
3 617 444 435
3 444 617 626
3 633 443 452
3 443 633 624
3 444 635 453
3 635 444 626
3 461 633 452
3 633 461 642
3 453 644 462
3 644 453 635
3 470 642 461
3 642 470 651
3 462 653 471
3 653 462 644
3 479 651 470
3 651 479 660
3 471 662 480
3 662 471 653
3 488 660 479
3 660 488 669
3 480 671 489
3 671 480 662
3 497 669 488
3 669 497 678
3 489 680 498
3 680 489 671
3 506 678 497
3 678 506 687
3 498 689 507
3 689 498 680
3 515 687 506
3 687 515 696
3 507 698 516
3 698 507 689
3 524 696 515
3 696 524 705
3 516 707 525
3 707 516 698
3 533 705 524
3 705 533 714
3 525 716 534
3 716 525 707
3 542 714 533
3 714 542 723
3 715 534 716
3 534 715 535
3 717 535 715
3 535 717 536
3 718 536 717
3 536 718 537
3 719 537 718
3 719 538 537
3 720 538 719
3 538 720 539
3 721 539 720
3 539 721 540
3 722 540 721
3 540 722 541
3 723 541 722
3 541 723 542
3 724 725 726
3 725 724 727
3 728 727 729
3 730 727 728
3 727 730 725
3 731 732 733
3 727 731 734
3 727 734 729
3 731 727 732
3 735 732 736
3 732 735 733
3 737 732 738
3 732 737 736
3 739 740 741
3 740 739 742
3 743 741 740
3 744 745 746
3 740 744 747
3 740 747 743
3 744 740 745
3 748 745 749
3 745 748 746
3 745 750 751
3 745 751 749
3 750 745 752
3 753 752 754
3 752 753 750
3 724 755 756
3 724 756 727
3 727 756 757
3 732 727 757
3 732 757 758
3 759 758 760
3 738 758 759
3 758 738 732
3 758 761 762
3 758 762 760
3 761 758 763
3 764 763 765
3 766 763 764
3 767 763 766
3 763 767 761
3 763 768 765
3 768 763 769
3 770 769 771
3 772 769 770
3 773 769 772
3 769 773 768
3 769 774 771
3 774 769 775
3 742 775 740
3 776 775 742
3 775 776 774
3 740 775 777
3 745 740 777
3 745 777 778
3 752 745 778
3 755 779 780
3 756 755 780
3 756 780 781
3 757 756 781
3 757 781 782
3 758 757 782
3 758 782 783
3 763 758 783
3 763 783 784
3 769 763 784
3 769 784 785
3 775 769 785
3 775 785 786
3 777 775 786
3 777 786 787
3 778 777 787
3 779 788 789
3 780 779 789
3 780 789 790
3 781 780 790
3 781 790 791
3 782 781 791
3 782 791 792
3 783 782 792
3 783 792 793
3 784 783 793
3 784 793 794
3 785 784 794
3 785 794 795
3 786 785 795
3 786 795 796
3 787 786 796
3 788 797 798
3 789 788 798
3 789 798 799
3 790 789 799
3 790 799 800
3 791 790 800
3 791 800 801
3 792 791 801
3 792 801 802
3 793 792 802
3 793 802 803
3 794 793 803
3 794 803 804
3 795 794 804
3 795 804 805
3 796 795 805
3 797 806 807
3 798 797 807
3 798 807 808
3 799 798 808
3 799 808 809
3 800 799 809
3 800 809 810
3 801 800 810
3 801 810 811
3 802 801 811
3 802 811 812
3 803 802 812
3 803 812 813
3 804 803 813
3 804 813 814
3 805 804 814
3 806 815 816
3 807 806 816
3 807 816 817
3 808 807 817
3 808 817 818
3 809 808 818
3 809 818 819
3 810 809 819
3 810 819 820
3 811 810 820
3 811 820 821
3 812 811 821
3 812 821 822
3 813 812 822
3 813 822 823
3 814 813 823
3 815 824 825
3 816 815 825
3 816 825 826
3 817 816 826
3 817 826 827
3 818 817 827
3 818 827 828
3 819 818 828
3 819 828 829
3 820 819 829
3 820 829 830
3 821 820 830
3 821 830 831
3 822 821 831
3 832 822 831
3 823 822 832
3 833 824 834
3 825 824 833
3 835 825 833
3 826 825 835
3 836 826 835
3 827 826 836
3 837 827 836
3 828 827 837
3 838 828 837
3 829 828 838
3 839 829 838
3 830 829 839
3 840 830 839
3 831 830 840
3 841 831 840
3 832 831 841
3 842 834 843
3 833 834 842
3 844 833 842
3 835 833 844
3 845 835 844
3 836 835 845
3 846 836 845
3 837 836 846
3 847 837 846
3 838 837 847
3 848 838 847
3 839 838 848
3 849 839 848
3 840 839 849
3 850 840 849
3 841 840 850
3 851 843 852
3 842 843 851
3 853 842 851
3 844 842 853
3 854 844 853
3 845 844 854
3 855 845 854
3 846 845 855
3 856 846 855
3 847 846 856
3 857 847 856
3 848 847 857
3 858 848 857
3 849 848 858
3 859 849 858
3 850 849 859
3 860 852 861
3 851 852 860
3 862 851 860
3 853 851 862
3 863 853 862
3 854 853 863
3 864 854 863
3 855 854 864
3 865 855 864
3 856 855 865
3 866 856 865
3 857 856 866
3 867 857 866
3 858 857 867
3 868 858 867
3 859 858 868
3 869 861 870
3 860 861 869
3 871 860 869
3 862 860 871
3 872 862 871
3 863 862 872
3 873 863 872
3 864 863 873
3 874 864 873
3 865 864 874
3 875 865 874
3 866 865 875
3 876 866 875
3 867 866 876
3 877 867 876
3 868 867 877
3 878 870 879
3 869 870 878
3 880 869 878
3 871 869 880
3 881 871 880
3 872 871 881
3 882 872 881
3 873 872 882
3 883 873 882
3 874 873 883
3 884 874 883
3 875 874 884
3 885 875 884
3 876 875 885
3 886 876 885
3 877 876 886
3 887 879 888
3 878 879 887
3 889 878 887
3 880 878 889
3 890 880 889
3 881 880 890
3 891 881 890
3 882 881 891
3 892 882 891
3 883 882 892
3 893 883 892
3 884 883 893
3 894 884 893
3 885 884 894
3 895 885 894
3 886 885 895
3 896 888 897
3 887 888 896
3 898 887 896
3 889 887 898
3 899 889 898
3 890 889 899
3 900 890 899
3 891 890 900
3 901 891 900
3 892 891 901
3 902 892 901
3 893 892 902
3 903 893 902
3 894 893 903
3 904 894 903
3 895 894 904
3 905 906 907
3 908 906 905
3 906 908 909
3 910 907 906
3 907 910 911
3 912 913 914
3 913 912 915
3 913 916 914
3 906 916 913
3 916 906 917
3 917 906 909
3 918 913 915
3 913 918 919
3 920 921 922
3 920 923 921
3 923 920 924
3 925 926 927
3 926 925 928
3 925 929 928
3 920 929 925
3 929 920 930
3 930 920 922
3 931 932 933
3 932 931 934
3 925 934 931
3 934 925 935
3 935 925 927
3 906 936 910
3 936 937 910
3 938 906 913
3 938 936 906
3 939 940 941
3 939 919 940
3 919 939 913
3 939 938 913
3 942 943 944
3 942 945 943
3 942 946 945
3 946 942 947
3 939 947 942
3 947 939 948
3 948 939 941
3 949 950 951
3 949 952 950
3 949 953 952
3 953 949 954
3 942 954 949
3 954 942 944
3 955 924 920
3 955 956 924
3 956 955 957
3 949 957 955
3 957 949 951
3 958 920 925
3 958 955 920
3 959 925 931
3 959 958 925
3 960 937 936
3 960 961 937
3 962 936 938
3 962 960 936
3 963 938 939
3 963 962 938
3 964 939 942
3 964 963 939
3 965 942 949
3 965 964 942
3 966 949 955
3 966 965 949
3 967 955 958
3 967 966 955
3 968 958 959
3 968 967 958
3 969 961 960
3 969 970 961
3 971 960 962
3 971 969 960
3 972 962 963
3 972 971 962
3 973 963 964
3 973 972 963
3 974 964 965
3 974 973 964
3 975 965 966
3 975 974 965
3 976 966 967
3 976 975 966
3 977 967 968
3 977 976 967
3 978 970 969
3 978 979 970
3 980 969 971
3 980 978 969
3 981 971 972
3 981 980 971
3 982 972 973
3 982 981 972
3 983 973 974
3 983 982 973
3 984 974 975
3 984 983 974
3 985 975 976
3 985 984 975
3 986 976 977
3 986 985 976
3 987 979 978
3 987 988 979
3 989 978 980
3 989 987 978
3 990 980 981
3 990 989 980
3 991 981 982
3 991 990 981
3 992 982 983
3 992 991 982
3 993 983 984
3 993 992 983
3 994 984 985
3 994 993 984
3 995 985 986
3 995 994 985
3 996 988 987
3 996 997 988
3 998 987 989
3 998 996 987
3 999 989 990
3 999 998 989
3 1000 990 991
3 1000 999 990
3 1001 991 992
3 1001 1000 991
3 1002 992 993
3 1002 1001 992
3 1003 993 994
3 1003 1002 993
3 1004 994 995
3 1004 1003 994
3 1005 997 996
3 1005 1006 997
3 1007 996 998
3 1007 1005 996
3 1008 998 999
3 1008 1007 998
3 1009 999 1000
3 1009 1008 999
3 1010 1000 1001
3 1010 1009 1000
3 1011 1001 1002
3 1011 1010 1001
3 1012 1002 1003
3 1012 1011 1002
3 1013 1003 1004
3 1012 1003 1013
3 1014 1006 1005
3 1015 1006 1014
3 1016 1005 1007
3 1014 1005 1016
3 1017 1007 1008
3 1016 1007 1017
3 1018 1008 1009
3 1017 1008 1018
3 1019 1009 1010
3 1018 1009 1019
3 1020 1010 1011
3 1019 1010 1020
3 1021 1011 1012
3 1020 1011 1021
3 1022 1012 1013
3 1021 1012 1022
3 1023 1015 1014
3 1024 1015 1023
3 1025 1014 1016
3 1023 1014 1025
3 1026 1016 1017
3 1025 1016 1026
3 1027 1017 1018
3 1026 1017 1027
3 1028 1018 1019
3 1027 1018 1028
3 1029 1019 1020
3 1028 1019 1029
3 1030 1020 1021
3 1029 1020 1030
3 1031 1021 1022
3 1030 1021 1031
3 1032 1024 1023
3 1033 1024 1032
3 1034 1023 1025
3 1032 1023 1034
3 1035 1025 1026
3 1034 1025 1035
3 1036 1026 1027
3 1035 1026 1036
3 1037 1027 1028
3 1036 1027 1037
3 1038 1028 1029
3 1037 1028 1038
3 1039 1029 1030
3 1038 1029 1039
3 1040 1030 1031
3 1039 1030 1040
3 1041 1033 1032
3 1042 1033 1041
3 1043 1032 1034
3 1041 1032 1043
3 1044 1034 1035
3 1043 1034 1044
3 1045 1035 1036
3 1044 1035 1045
3 1046 1036 1037
3 1045 1036 1046
3 1047 1037 1038
3 1046 1037 1047
3 1048 1038 1039
3 1047 1038 1048
3 1049 1039 1040
3 1048 1039 1049
3 1050 1042 1041
3 1051 1042 1050
3 1052 1041 1043
3 1050 1041 1052
3 1053 1043 1044
3 1052 1043 1053
3 1054 1044 1045
3 1053 1044 1054
3 1055 1045 1046
3 1054 1045 1055
3 1056 1046 1047
3 1055 1046 1056
3 1057 1047 1048
3 1056 1047 1057
3 1058 1048 1049
3 1057 1048 1058
3 1059 1051 1050
3 1060 1051 1059
3 1061 1050 1052
3 1059 1050 1061
3 1062 1052 1053
3 1061 1052 1062
3 1063 1053 1054
3 1062 1053 1063
3 1064 1054 1055
3 1063 1054 1064
3 1065 1055 1056
3 1064 1055 1065
3 1066 1056 1057
3 1065 1056 1066
3 1067 1057 1058
3 1066 1057 1067
3 1068 1060 1059
3 1069 1060 1068
3 1070 1059 1061
3 1068 1059 1070
3 1071 1061 1062
3 1070 1061 1071
3 1072 1062 1063
3 1071 1062 1072
3 1073 1063 1064
3 1072 1063 1073
3 1074 1064 1065
3 1073 1064 1074
3 1075 1065 1066
3 1074 1065 1075
3 1076 1066 1067
3 1075 1066 1076
3 1077 1069 1068
3 1078 1069 1077
3 1079 1068 1070
3 1077 1068 1079
3 1080 1070 1071
3 1079 1070 1080
3 1081 1071 1072
3 1080 1071 1081
3 1082 1072 1073
3 1081 1072 1082
3 1083 1073 1074
3 1082 1073 1083
3 1084 1074 1075
3 1083 1074 1084
3 1085 1075 1076
3 1084 1075 1085
3 911 724 726
3 724 911 910
3 931 754 752
3 754 931 933
3 910 755 724
3 755 910 937
3 959 752 778
3 752 959 931
3 937 779 755
3 779 937 961
3 968 778 787
3 778 968 959
3 961 788 779
3 788 961 970
3 977 787 796
3 787 977 968
3 797 970 979
3 970 797 788
3 986 796 805
3 796 986 977
3 806 979 988
3 979 806 797
3 995 805 814
3 805 995 986
3 997 806 988
3 806 997 815
3 823 995 814
3 995 823 1004
3 1006 815 997
3 815 1006 824
3 832 1004 823
3 1004 832 1013
3 1015 824 1006
3 824 1015 834
3 841 1013 832
3 1013 841 1022
3 1024 834 1015
3 834 1024 843
3 850 1022 841
3 1022 850 1031
3 1033 843 1024
3 843 1033 852
3 859 1031 850
3 1031 859 1040
3 1042 852 1033
3 852 1042 861
3 868 1040 859
3 1040 868 1049
3 1051 861 1042
3 861 1051 870
3 877 1049 868
3 1049 877 1058
3 1060 870 1051
3 870 1060 879
3 886 1058 877
3 1058 886 1067
3 879 1069 888
3 1069 879 1060
3 895 1067 886
3 1067 895 1076
3 888 1078 897
3 1078 888 1069
3 904 1076 895
3 1076 904 1085
3 897 1077 896
3 1077 897 1078
3 896 1079 898
3 1079 896 1077
3 898 1080 899
3 1080 898 1079
3 899 1081 900
3 1081 899 1080
3 900 1082 901
3 1082 900 1081
3 901 1083 902
3 1083 901 1082
3 902 1084 903
3 1084 902 1083
3 903 1085 904
3 1085 903 1084
3 1086 935 1087
3 935 1086 934
3 934 1086 932
3 1088 753 1089
3 1088 750 753
3 750 1088 751
3 1090 908 1091
3 908 1090 909
3 909 1090 917
3 729 1092 728
3 734 1092 729
3 1092 734 1093
3 227 1094 225
3 223 1094 227
3 220 1094 223
3 1094 220 1095
3 1096 46 1097
3 46 1096 44
3 44 1096 40
3 40 1096 41
3 225 1098 228
3 1098 225 1094
3 1097 47 1099
3 47 1097 46
3 1100 1101 1102
3 1101 1100 1103
3 1104 751 1088
3 1104 749 751
3 749 1104 748
3 926 935 927
3 1087 926 1105
3 926 1087 935
3 1106 917 1090
3 917 1106 916
3 731 1093 734
3 1093 731 1107
3 196 205 197
3 205 196 1108
3 199 1108 196
3 1108 199 1109
3 1110 22 1111
3 22 1110 19
3 19 1110 18
3 18 1110 16
3 1112 1113 1114
3 1113 1112 1115
3 584 589 585
3 1116 584 1117
3 584 1116 589
3 589 1116 587
3 1118 411 1119
3 1118 406 411
3 1118 403 406
3 403 1118 402
3 379 1120 377
3 381 1120 379
3 382 1120 381
3 1120 382 1121
3 1122 561 1123
3 561 1122 560
3 567 560 1122
3 560 567 558
3 1124 52 1125
3 52 1124 50
3 50 1124 49
3 49 1124 48
3 233 1126 231
3 229 233 230
3 233 229 1126
3 1126 229 1127
3 1128 404 1129
3 404 1128 405
3 1130 580 1131
3 580 1130 583
3 1132 1133 1134
3 1133 1132 1135
3 1136 43 1137
3 43 1136 37
3 37 1136 39
3 222 1138 221
3 224 1138 222
3 1138 224 1139
3 1140 748 1104
3 1140 746 748
3 746 1140 744
3 1105 929 1141
3 929 1105 928
3 928 1105 926
3 203 1142 201
3 206 1142 203
3 1142 206 1143
3 1144 24 1145
3 24 1144 23
3 23 1144 20
3 191 1146 189
3 192 1146 191
3 1146 192 1147
3 1148 11 1149
3 11 1148 9
3 9 1148 7
3 1150 366 1151
3 366 1150 368
3 1152 543 1153
3 543 1152 546
3 1154 553 550
3 1154 550 1155
3 553 1154 556
3 1156 375 1157
3 1156 374 375
3 374 1156 373
3 1158 1159 1160
3 1159 1158 1161
3 1162 1163 1164
3 1163 1162 1165
3 1166 911 1167
3 1168 911 1166
3 911 1168 907
3 907 1168 905
3 726 1167 911
3 725 1167 726
3 730 1167 725
3 1167 730 1169
3 1170 554 1171
3 554 1170 555
3 1172 370 1173
3 370 1172 369
3 1174 912 1175
3 912 1174 915
3 915 1174 918
3 736 1176 735
3 737 1176 736
3 1176 737 1177
3 1178 573 1179
3 573 1178 571
3 571 1178 569
3 389 1180 388
3 391 1180 389
3 1180 391 1181
3 1125 16 1110
3 16 1125 17
3 17 1125 52
3 200 1109 199
3 231 1109 200
3 1109 231 1126
3 1182 10 1183
3 10 1182 5
3 5 1182 4
3 183 1184 193
3 182 1184 183
3 1184 182 1185
3 1186 30 1187
3 1188 30 1186
3 30 1188 29
3 210 1187 30
3 207 1187 210
3 1187 207 1189
3 1190 41 1096
3 41 1190 42
3 219 1095 220
3 1095 219 1191
3 1192 1193 1194
3 1193 1192 1195
3 228 1127 229
3 1127 228 1098
3 1099 48 1124
3 48 1099 47
3 1194 1196 1197
3 1196 1194 1193
3 1165 1198 1163
3 1198 1165 1199
3 1200 1201 1202
3 1201 1200 1203
3 1204 1205 1206
3 1205 1204 1207
3 1208 399 1209
3 1208 398 399
3 398 1208 397
3 1210 579 578
3 1210 578 1211
3 579 1210 586
3 380 1212 414
3 377 1212 380
3 1212 377 1120
3 1123 594 1213
3 594 1123 562
3 562 1123 561
3 1214 918 1174
3 918 1214 919
3 919 1214 940
3 738 1177 737
3 759 1177 738
3 1177 759 1215
3 1216 567 1122
3 567 1216 568
3 383 1121 382
3 1121 383 1217
3 1218 414 1212
3 1218 412 414
3 1218 409 412
3 409 1218 408
3 591 595 592
3 1213 591 1219
3 591 1213 595
3 595 1213 594
3 1145 28 1220
3 28 1145 25
3 25 1145 24
3 201 211 204
3 211 201 1221
3 1221 201 1142
3 1222 1223 1224
3 1223 1222 1225
3 1161 1226 1159
3 1226 1161 1227
3 1227 1228 1226
3 1228 1227 1229
3 1151 369 1172
3 1151 367 369
3 367 1151 366
3 1171 546 1152
3 546 1171 547
3 547 1171 554
3 1230 1160 1231
3 1160 1230 1158
3 1232 35 1233
3 35 1232 14
3 14 1232 13
3 195 1234 216
3 194 1234 195
3 1234 194 1235
3 190 1235 194
3 189 1235 190
3 1235 189 1146
3 1149 13 1232
3 13 1149 12
3 12 1149 11
3 1129 402 1118
3 402 1129 404
3 1117 583 1130
3 583 1117 584
3 205 1143 206
3 1143 205 1108
3 1111 20 1144
3 20 1111 22
3 1206 6 1236
3 6 1206 0
3 3 1206 187
3 0 1206 3
3 185 1237 184
3 187 1237 185
3 187 1205 1237
3 1205 187 1206
3 1103 1238 1101
3 1238 1103 1239
3 1137 42 1190
3 42 1137 43
3 221 1191 219
3 1191 221 1138
3 1179 563 1240
3 573 563 1179
3 563 573 566
3 387 1241 386
3 388 1241 387
3 1241 388 1180
3 1242 1164 1243
3 1164 1242 1162
3 1244 952 1245
3 952 1244 950
3 1246 770 1247
3 770 1246 772
3 1197 1203 1200
3 1203 1197 1196
3 1209 405 1128
3 1209 400 405
3 400 1209 399
3 1131 586 1210
3 586 1131 582
3 582 1131 580
3 1220 29 1188
3 29 1220 26
3 26 1220 28
3 209 1189 207
3 211 1189 209
3 1189 211 1221
3 1173 373 1156
3 1173 372 373
3 372 1173 370
3 1155 552 555
3 1155 555 1170
3 552 1155 550
3 1248 1249 1250
3 1249 1248 1251
3 1175 916 1106
3 916 1175 914
3 914 1175 912
3 733 1107 731
3 735 1107 733
3 1107 735 1176
3 1089 754 1252
3 754 1089 753
3 933 1252 754
3 1253 932 1086
3 933 1253 1252
3 932 1253 933
3 1115 1134 1113
3 1134 1115 1132
3 1183 7 1148
3 7 1183 10
3 193 1147 192
3 1147 193 1184
3 1224 1254 1255
3 1254 1224 1223
3 1256 1114 1257
3 1114 1256 1112
3 1202 1225 1222
3 1225 1202 1201
3 1229 1243 1228
3 1243 1229 1242
3 1166 1251 1248
3 1251 1166 1167
3 1253 1102 1252
3 1102 1253 1100
3 1255 569 1178
3 572 1255 392
3 569 1255 572
3 392 1181 391
3 392 1254 1181
3 1254 392 1255
3 1250 1195 1192
3 1195 1250 1249
3 1135 1204 1133
3 1204 1135 1207
3 1258 744 1140
3 744 1258 747
3 1141 930 1259
3 930 1141 929
3 1260 941 940
3 1260 940 1214
3 941 1260 948
3 1215 762 1261
3 1215 760 762
3 760 1215 759
3 1240 568 1216
3 568 1240 565
3 565 1240 563
3 385 1217 383
3 386 1217 385
3 1217 386 1241
3 1198 368 1150
3 1198 363 368
3 1198 364 363
3 1198 549 364
3 549 1198 1199
3 1153 545 549
3 1153 549 1199
3 545 1153 543
3 1262 924 956
3 1262 956 1263
3 924 1262 923
3 1264 739 1265
3 1264 742 739
3 742 1264 776
3 1266 1096 1097
3 1267 1097 1099
3 1096 1266 1190
3 1268 1099 1124
3 1269 1190 1266
3 1270 1124 1125
3 1190 1269 1137
3 1271 1125 1110
3 1272 1137 1269
3 1273 1110 1111
3 1137 1272 1136
3 1274 1111 1144
3 1275 1136 1272
3 1276 1144 1145
3 1136 1275 1233
3 1277 1145 1220
3 1278 1233 1275
3 1279 1220 1188
3 1233 1278 1232
3 1280 1188 1186
3 1281 1232 1278
3 1282 1186 1283
3 1232 1281 1149
3 1284 1283 1231
3 1285 1149 1281
3 1286 1231 1160
3 1149 1285 1148
3 1287 1160 1159
3 1288 1148 1285
3 1289 1159 1226
3 1148 1288 1183
3 1290 1226 1228
3 1291 1183 1288
3 1292 1228 1243
3 1183 1291 1182
3 1293 1243 1164
3 1294 1182 1291
3 1295 1164 1163
3 1182 1294 1236
3 1296 1236 1294
3 1097 1267 1266
3 1099 1268 1267
3 1124 1270 1268
3 1125 1271 1270
3 1110 1273 1271
3 1297 1163 1198
3 1111 1274 1273
3 1144 1276 1274
3 1145 1277 1276
3 1220 1279 1277
3 1188 1280 1279
3 1186 1282 1280
3 1283 1284 1282
3 1231 1286 1284
3 1298 1198 1150
3 1160 1287 1286
3 1159 1289 1287
3 1226 1290 1289
3 1228 1292 1290
3 1243 1293 1292
3 1164 1295 1293
3 1299 1150 1151
3 1163 1297 1295
3 1198 1298 1297
3 1150 1299 1298
3 1151 1300 1299
3 1172 1300 1151
3 1172 1301 1300
3 1172 1302 1301
3 1173 1302 1172
3 1302 1173 1303
3 1156 1303 1173
3 1303 1156 1304
3 1157 1304 1156
3 1304 1157 1305
3 1208 1305 1157
3 1305 1208 1306
3 1209 1306 1208
3 1306 1209 1307
3 1128 1307 1209
3 1307 1128 1308
3 1129 1308 1128
3 1308 1129 1309
3 1118 1309 1129
3 1309 1118 1310
3 1119 1310 1118
3 1310 1119 1311
3 1312 1311 1119
3 1311 1312 1313
3 1218 1313 1312
3 1313 1218 1314
3 1212 1314 1218
3 1314 1212 1315
3 1120 1315 1212
3 1315 1120 1316
3 1121 1316 1120
3 1236 1296 1206
3 1317 1206 1296
3 1206 1317 1204
3 1318 1204 1317
3 1204 1318 1133
3 1319 1133 1318
3 1133 1319 1134
3 1320 1134 1319
3 1134 1320 1113
3 1321 1113 1320
3 1113 1321 1114
3 1322 1114 1321
3 1114 1322 1257
3 1323 1257 1322
3 1257 1323 1238
3 1324 1238 1323
3 1238 1324 1101
3 1325 1101 1324
3 1101 1325 1102
3 1326 1102 1325
3 1102 1326 1252
3 1327 1252 1326
3 1252 1327 1089
3 1328 1089 1327
3 1089 1328 1088
3 1329 1088 1328
3 1330 1088 1329
3 1330 1104 1088
3 1331 1104 1330
3 1140 1331 1332
3 1258 1332 1333
3 1265 1333 1334
3 1331 1140 1104
3 1264 1334 1335
3 1247 1335 1336
3 1246 1336 1337
3 1338 1337 1339
3 1340 1339 1341
3 1342 1341 1343
3 1332 1258 1140
3 1344 1343 1345
3 1261 1345 1346
3 1215 1346 1347
3 1177 1347 1348
3 1176 1348 1349
3 1107 1349 1350
3 1093 1350 1351
3 1092 1351 1352
3 1333 1265 1258
3 1169 1352 1353
3 1167 1353 1354
3 1251 1354 1355
3 1249 1355 1356
3 1195 1356 1357
3 1193 1357 1358
3 1316 1121 1359
3 1334 1264 1265
3 1217 1359 1121
3 1335 1247 1264
3 1359 1217 1360
3 1336 1246 1247
3 1241 1360 1217
3 1337 1338 1246
3 1360 1241 1361
3 1339 1340 1338
3 1180 1361 1241
3 1341 1342 1340
3 1361 1180 1362
3 1343 1344 1342
3 1181 1362 1180
3 1345 1261 1344
3 1362 1181 1363
3 1346 1215 1261
3 1254 1363 1181
3 1347 1177 1215
3 1363 1254 1364
3 1348 1176 1177
3 1223 1364 1254
3 1349 1107 1176
3 1364 1223 1365
3 1350 1093 1107
3 1225 1365 1223
3 1351 1092 1093
3 1365 1225 1366
3 1352 1169 1092
3 1201 1366 1225
3 1353 1167 1169
3 1366 1201 1367
3 1354 1251 1167
3 1203 1367 1201
3 1355 1249 1251
3 1367 1203 1358
3 1356 1195 1249
3 1196 1358 1203
3 1357 1193 1195
3 1358 1196 1193
3 1236 4 1182
3 4 1236 6
3 184 1185 182
3 1185 184 1237
3 1368 1095 1191
3 1369 1191 1138
3 1095 1368 1094
3 1370 1138 1139
3 1371 1094 1368
3 1372 1139 1234
3 1094 1371 1098
3 1373 1234 1235
3 1374 1098 1371
3 1375 1235 1146
3 1098 1374 1127
3 1376 1146 1147
3 1377 1127 1374
3 1378 1147 1184
3 1127 1377 1126
3 1379 1184 1185
3 1380 1126 1377
3 1381 1185 1237
3 1126 1380 1109
3 1382 1237 1205
3 1383 1109 1380
3 1384 1205 1207
3 1109 1383 1108
3 1385 1207 1135
3 1386 1108 1383
3 1387 1135 1132
3 1108 1386 1143
3 1388 1132 1115
3 1389 1143 1386
3 1390 1115 1112
3 1143 1389 1142
3 1391 1112 1256
3 1392 1142 1389
3 1393 1256 1239
3 1142 1392 1221
3 1394 1239 1103
3 1395 1221 1392
3 1396 1103 1100
3 1221 1395 1189
3 1397 1189 1395
3 1191 1369 1368
3 1138 1370 1369
3 1139 1372 1370
3 1234 1373 1372
3 1235 1375 1373
3 1398 1100 1253
3 1146 1376 1375
3 1147 1378 1376
3 1184 1379 1378
3 1185 1381 1379
3 1237 1382 1381
3 1205 1384 1382
3 1207 1385 1384
3 1135 1387 1385
3 1399 1253 1086
3 1132 1388 1387
3 1115 1390 1388
3 1112 1391 1390
3 1256 1393 1391
3 1239 1394 1393
3 1103 1396 1394
3 1400 1086 1087
3 1100 1398 1396
3 1253 1399 1398
3 1086 1400 1399
3 1087 1401 1400
3 1105 1401 1087
3 1105 1402 1401
3 1105 1403 1402
3 1141 1403 1105
3 1403 1141 1404
3 1259 1404 1141
3 1404 1259 1405
3 1262 1405 1259
3 1405 1262 1406
3 1263 1406 1262
3 1406 1263 1407
3 1244 1407 1263
3 1407 1244 1408
3 1245 1408 1244
3 1408 1245 1409
3 1410 1409 1245
3 1409 1410 1411
3 1412 1411 1410
3 1411 1412 1413
3 1414 1413 1412
3 1413 1414 1415
3 1416 1415 1414
3 1415 1416 1417
3 1260 1417 1416
3 1417 1260 1418
3 1214 1418 1260
3 1418 1214 1419
3 1174 1419 1214
3 1419 1174 1420
3 1175 1420 1174
3 1189 1397 1187
3 1421 1187 1397
3 1187 1421 1422
3 1423 1422 1421
3 1422 1423 1230
3 1424 1230 1423
3 1230 1424 1158
3 1425 1158 1424
3 1158 1425 1161
3 1426 1161 1425
3 1161 1426 1227
3 1427 1227 1426
3 1227 1427 1229
3 1428 1229 1427
3 1229 1428 1242
3 1429 1242 1428
3 1242 1429 1162
3 1430 1162 1429
3 1162 1430 1165
3 1431 1165 1430
3 1165 1431 1199
3 1432 1199 1431
3 1199 1432 1153
3 1433 1153 1432
3 1153 1433 1152
3 1434 1152 1433
3 1435 1152 1434
3 1435 1171 1152
3 1436 1171 1435
3 1170 1436 1437
3 1155 1437 1438
3 1154 1438 1439
3 1436 1170 1171
3 1211 1439 1440
3 1210 1440 1441
3 1131 1441 1442
3 1130 1442 1443
3 1117 1443 1444
3 1116 1444 1445
3 1437 1155 1170
3 1446 1445 1447
3 1219 1447 1448
3 1213 1448 1449
3 1123 1449 1450
3 1122 1450 1451
3 1216 1451 1452
3 1240 1452 1453
3 1179 1453 1454
3 1438 1154 1155
3 1178 1454 1455
3 1255 1455 1456
3 1224 1456 1457
3 1222 1457 1458
3 1202 1458 1459
3 1200 1459 1460
3 1420 1175 1461
3 1439 1211 1154
3 1106 1461 1175
3 1440 1210 1211
3 1461 1106 1462
3 1441 1131 1210
3 1090 1462 1106
3 1442 1130 1131
3 1462 1090 1463
3 1443 1117 1130
3 1091 1463 1090
3 1444 1116 1117
3 1463 1091 1464
3 1445 1446 1116
3 1168 1464 1091
3 1447 1219 1446
3 1464 1168 1465
3 1448 1213 1219
3 1166 1465 1168
3 1449 1123 1213
3 1465 1166 1466
3 1450 1122 1123
3 1248 1466 1166
3 1451 1216 1122
3 1466 1248 1467
3 1452 1240 1216
3 1250 1467 1248
3 1453 1179 1240
3 1467 1250 1468
3 1454 1178 1179
3 1192 1468 1250
3 1455 1255 1178
3 1468 1192 1469
3 1456 1224 1255
3 1194 1469 1192
3 1457 1222 1224
3 1469 1194 1460
3 1458 1202 1222
3 1197 1460 1194
3 1459 1200 1202
3 1460 1197 1200
3 1312 408 1218
3 408 1312 410
3 1219 590 1446
3 590 1219 591
3 1446 587 1116
3 587 1446 590
3 1119 410 1312
3 410 1119 411
3 1186 1422 1283
3 1422 1186 1187
3 1422 1231 1283
3 1231 1422 1230
3 1091 905 1168
3 905 1091 908
3 728 1169 730
3 1169 728 1092
3 1211 557 556
3 1211 556 1154
3 557 1211 578
3 1157 397 1208
3 1157 376 397
3 376 1157 375
3 921 930 922
3 1259 923 1262
3 923 1259 921
3 921 1259 930
3 1265 747 1258
3 1265 743 747
3 1265 741 743
3 741 1265 739
3 1239 1257 1238
3 1257 1239 1256
3 1233 39 1136
3 39 1233 36
3 36 1233 35
3 217 1139 224
3 216 1139 217
3 1139 216 1234
3 950 957 951
3 1263 950 1244
3 950 1263 957
3 957 1263 956
3 1247 776 1264
3 1247 774 776
3 1247 771 774
3 771 1247 770
3 1338 772 1246
3 772 1338 773
3 1245 953 1410
3 953 1245 952
3 1412 945 1414
3 945 1412 943
3 1342 764 1340
3 764 1342 766
3 1344 766 1342
3 766 1344 767
3 1414 946 1416
3 946 1414 945
3 1416 948 1260
3 948 1416 947
3 947 1416 946
3 1261 767 1344
3 1261 761 767
3 761 1261 762
3 943 954 944
3 1410 943 1412
3 943 1410 954
3 954 1410 953
3 1340 773 1338
3 1340 768 773
3 1340 765 768
3 765 1340 764
3 1371 1268 1374
3 1268 1371 1267
3 1368 1267 1371
3 1267 1368 1266
3 1386 1276 1389
3 1276 1386 1274
3 1447 1311 1313
3 1311 1447 1445
3 1376 1281 1375
3 1281 1376 1285
3 1435 1300 1301
3 1300 1435 1434
3 1398 1327 1326
3 1327 1398 1399
3 1393 1324 1323
3 1324 1393 1394
3 1403 1332 1331
3 1332 1403 1404
3 1430 1293 1295
3 1293 1430 1429
3 1399 1328 1327
3 1328 1399 1400
3 1377 1271 1380
3 1271 1377 1270
3 1441 1306 1307
3 1306 1441 1440
3 1381 1291 1379
3 1291 1381 1294
3 1442 1307 1308
3 1307 1442 1441
3 1426 1287 1289
3 1287 1426 1425
3 1352 1465 1353
3 1465 1352 1464
3 1378 1285 1376
3 1285 1378 1288
3 1429 1292 1293
3 1292 1429 1428
3 1444 1309 1310
3 1309 1444 1443
3 1360 1451 1359
3 1451 1360 1452
3 1385 1319 1318
3 1319 1385 1387
3 1405 1334 1333
3 1334 1405 1406
3 1375 1278 1373
3 1278 1375 1281
3 1443 1308 1309
3 1308 1443 1442
3 1401 1330 1329
3 1330 1401 1402
3 1363 1454 1362
3 1454 1363 1455
3 1395 1280 1397
3 1280 1395 1279
3 1407 1336 1335
3 1336 1407 1408
3 1364 1455 1363
3 1455 1364 1456
3 1392 1279 1395
3 1279 1392 1277
3 1438 1303 1304
3 1303 1438 1437
3 1397 1282 1421
3 1282 1397 1280
3 1365 1456 1364
3 1456 1365 1457
3 1357 1460 1358
3 1460 1357 1469
3 1379 1288 1378
3 1288 1379 1291
3 1369 1266 1368
3 1266 1369 1269
3 1380 1273 1383
3 1273 1380 1271
3 1421 1284 1423
3 1284 1421 1282
3 1417 1346 1345
3 1346 1417 1418
3 1391 1323 1322
3 1323 1391 1393
3 1445 1310 1311
3 1310 1445 1444
3 1384 1296 1382
3 1296 1384 1317
3 1389 1277 1392
3 1277 1389 1276
3 1354 1467 1355
3 1467 1354 1466
3 1396 1326 1325
3 1326 1396 1398
3 1356 1469 1357
3 1469 1356 1468
3 1355 1468 1356
3 1468 1355 1467
3 1316 1449 1315
3 1449 1316 1450
3 1385 1317 1384
3 1317 1385 1318
3 1433 1298 1299
3 1298 1433 1432
3 1427 1289 1290
3 1289 1427 1426
3 1394 1325 1324
3 1325 1394 1396
3 1404 1333 1332
3 1333 1404 1405
3 1402 1331 1330
3 1331 1402 1403
3 1353 1466 1354
3 1466 1353 1465
3 1428 1290 1292
3 1290 1428 1427
3 1415 1345 1343
3 1345 1415 1417
3 1348 1461 1349
3 1461 1348 1420
3 1383 1274 1386
3 1274 1383 1273
3 1349 1462 1350
3 1462 1349 1461
3 1400 1329 1328
3 1329 1400 1401
3 1424 1284 1286
3 1284 1424 1423
3 1382 1294 1381
3 1294 1382 1296
3 1373 1275 1372
3 1275 1373 1278
3 1439 1304 1305
3 1304 1439 1438
3 1370 1269 1369
3 1269 1370 1272
3 1367 1458 1366
3 1458 1367 1459
3 1315 1448 1314
3 1448 1315 1449
3 1437 1302 1303
3 1302 1437 1436
3 1425 1286 1287
3 1286 1425 1424
3 1366 1457 1365
3 1457 1366 1458
3 1440 1305 1306
3 1305 1440 1439
3 1374 1270 1377
3 1270 1374 1268
3 1409 1339 1337
3 1339 1409 1411
3 1351 1464 1352
3 1464 1351 1463
3 1434 1299 1300
3 1299 1434 1433
3 1448 1313 1314
3 1313 1448 1447
3 1413 1343 1341
3 1343 1413 1415
3 1372 1272 1370
3 1272 1372 1275
3 1350 1463 1351
3 1463 1350 1462
3 1431 1295 1297
3 1295 1431 1430
3 1436 1301 1302
3 1301 1436 1435
3 1346 1419 1347
3 1419 1346 1418
3 1359 1450 1316
3 1450 1359 1451
3 1347 1420 1348
3 1420 1347 1419
3 1388 1321 1320
3 1321 1388 1390
3 1362 1453 1361
3 1453 1362 1454
3 1390 1322 1321
3 1322 1390 1391
3 1361 1452 1360
3 1452 1361 1453
3 1406 1335 1334
3 1335 1406 1407
3 1411 1341 1339
3 1341 1411 1413
3 1358 1459 1367
3 1459 1358 1460
3 1432 1297 1298
3 1297 1432 1431
3 1387 1320 1319
3 1320 1387 1388
3 1408 1337 1336
3 1337 1408 1409
